ply
format ascii 1.0
comment Created in Blender version 4.0.2
element vertex 110
property float x
property float y
property float z
property float nx
property float ny
property float nz
property uchar red
property uchar green
property uchar blue
property uchar alpha
property float s
property float t
element face 108
property list uchar uint vertex_indices
end_header
-10 10 10 -0.57735026 0.57735026 0.57735026 254 254 254 255 0.875 0.5
7.5 7.5 10 0 0 1 254 254 254 255 0.65625006 0.53125
10 10 10 0.57735026 0.57735026 0.57735026 254 254 254 255 0.625 0.5
-10 -10 10 -0.57735026 -0.57735026 0.57735026 254 254 254 255 0.875 0.75
-7.5 7.5 10 0 0 1 254 254 254 255 0.84375006 0.53125
10 -10 10 0.57735026 -0.57735026 0.57735026 254 254 254 255 0.625 0.75
-7.5 -7.5 10 0 0 1 254 254 254 255 0.84375006 0.71875006
7.5 -7.5 10 0 0 1 254 254 254 255 0.65625 0.71875006
7.5 -10 -7.5 0 -1 0 254 254 254 255 0.40625003 0.78125006
10 -10 -10 0.57735026 -0.57735026 -0.57735026 254 254 254 255 0.375 0.75
-10 -10 10 -0.57735026 -0.57735026 0.57735026 254 254 254 255 0.625 1
7.5 -10 7.5 0 -1 0 254 254 254 255 0.59375 0.78125006
-10 -10 -10 -0.57735026 -0.57735026 -0.57735026 254 254 254 255 0.375 1
-7.5 -10 7.5 0 -1 0 254 254 254 255 0.59374994 0.96875
-7.5 -10 -7.5 0 -1 0 254 254 254 255 0.40625003 0.96875
-10 -10 10 -0.57735026 -0.57735026 0.57735026 254 254 254 255 0.625 0
-10 -7.5 -7.5 -1 0 0 254 254 254 255 0.40625003 0.03125
-10 -10 -10 -0.57735026 -0.57735026 -0.57735026 254 254 254 255 0.375 0
-10 10 10 -0.57735026 0.57735026 0.57735026 254 254 254 255 0.625 0.25
-10 -7.5 7.5 -1 0 0 254 254 254 255 0.59375 0.03125
-10 10 -10 -0.57735026 0.57735026 -0.57735026 254 254 254 255 0.375 0.25
-10 7.5 7.5 -1 0 0 254 254 254 255 0.59374994 0.21875
-10 7.5 -7.5 -1 0 0 254 254 254 255 0.40625003 0.21875
10 10 -10 0.57735026 0.57735026 -0.57735026 254 254 254 255 0.375 0.5
-7.5 7.5 -10 0 0 -1 254 254 254 255 0.15625 0.53125
-10 10 -10 -0.57735026 0.57735026 -0.57735026 254 254 254 255 0.125 0.5
7.5 7.5 -10 0 0 -1 254 254 254 255 0.34375003 0.53125
-10 -10 -10 -0.57735026 -0.57735026 -0.57735026 254 254 254 255 0.125 0.75
7.5 -7.5 -10 0 0 -1 254 254 254 255 0.34375003 0.71875006
-7.5 -7.5 -10 0 0 -1 254 254 254 255 0.15625 0.71875006
10 7.5 -7.5 1 0 0 254 254 254 255 0.40625003 0.53125
10 7.5 7.5 1 0 0 254 254 254 255 0.59375 0.53125
10 -7.5 7.5 1 0 0 254 254 254 255 0.59374994 0.71875006
10 -7.5 -7.5 1 0 0 254 254 254 255 0.40625003 0.71875006
-7.5 10 -7.5 0 1 0 254 254 254 255 0.40625003 0.28125
-7.5 10 7.5 0 1 0 254 254 254 255 0.59375 0.28125
7.5 10 7.5 0 1 0 254 254 254 255 0.59374994 0.46875
7.5 10 -7.5 0 1 0 254 254 254 255 0.40625003 0.46875
-3.75 3.75 5 0 0 1 0 254 254 255 0.84375006 0.53125
3.75 -3.75 5 0 0 1 0 254 254 255 0.65625 0.71875006
3.75 3.75 5 0 0 1 0 254 254 255 0.65625006 0.53125
3.75 -5 3.75 0 -1 0 0 254 254 255 0.59375 0.78125006
-3.75 -5 -3.75 0 -1 0 0 254 254 255 0.40625003 0.96875
3.75 -5 -3.75 0 -1 0 0 254 254 255 0.40625003 0.78125006
-5 -3.75 3.75 -1 0 0 0 254 254 255 0.59375 0.03125
-5 3.75 -3.75 -1 0 0 0 254 254 255 0.40625003 0.21875
-5 -3.75 -3.75 -1 0 0 0 254 254 255 0.40625003 0.03125
3.75 3.75 -5 0 0 -1 0 254 254 255 0.34375003 0.53125
-3.75 -3.75 -5 0 0 -1 0 254 254 255 0.15625 0.71875006
-3.75 3.75 -5 0 0 -1 0 254 254 255 0.15625 0.53125
5 3.75 3.75 1 0 0 0 254 254 255 0.59375 0.53125
5 -3.75 -3.75 1 0 0 0 254 254 255 0.40625003 0.71875006
5 3.75 -3.75 1 0 0 0 254 254 255 0.40625003 0.53125
-3.75 5 3.75 0 1 0 0 254 254 255 0.59375 0.28125
3.75 5 -3.75 0 1 0 0 254 254 255 0.40625003 0.46875
-3.75 5 -3.75 0 1 0 0 254 254 255 0.40625003 0.28125
-3.75 -3.75 5 0 0 1 0 254 254 255 0.84375006 0.71875006
-3.75 -5 3.75 0 -1 0 0 254 254 255 0.59374994 0.96875
-5 3.75 3.75 -1 0 0 0 254 254 255 0.59374994 0.21875
3.75 -3.75 -5 0 0 -1 0 254 254 255 0.34375003 0.71875006
5 -3.75 3.75 1 0 0 0 254 254 255 0.59374994 0.71875006
3.75 5 3.75 0 1 0 0 254 254 255 0.59374994 0.46875
-10 -7.5 7.5 -0.72760683 0.48507127 -0.48507127 174 174 174 255 0.59375 0.03125
-5 -3.75 -3.75 -0.72760683 0.48507124 0.48507124 174 174 174 255 0.40625003 0.03125
-10 -7.5 -7.5 -0.72760683 0.48507127 0.48507127 174 174 174 255 0.40625003 0.03125
7.5 7.5 10 -0.48507127 -0.4850712 0.72760683 174 174 174 255 0.65625006 0.53125
3.75 -3.75 5 -0.48507124 0.48507124 0.72760683 174 174 174 255 0.65625 0.71875006
7.5 -7.5 10 -0.4850712 0.48507127 0.72760683 174 174 174 255 0.65625 0.71875006
7.5 -10 7.5 -0.48507127 -0.72760683 -0.48507127 174 174 174 255 0.59375 0.78125006
3.75 -5 -3.75 -0.48507124 -0.72760683 0.48507124 174 174 174 255 0.40625003 0.78125006
7.5 -10 -7.5 -0.48507127 -0.72760683 0.48507127 174 174 174 255 0.40625003 0.78125006
-7.5 7.5 10 0.4850712 -0.48507127 0.72760683 174 174 174 255 0.84375006 0.53125
3.75 3.75 5 -0.4850713 -0.4850713 0.72760683 174 174 174 255 0.65625006 0.53125
7.5 10 -7.5 -0.48507127 0.72760683 0.48507127 174 174 174 255 0.40625003 0.46875
3.75 5 3.75 -0.48507124 0.72760683 -0.48507124 174 174 174 255 0.59374994 0.46875
7.5 10 7.5 -0.48507127 0.72760683 -0.48507127 174 174 174 255 0.59374994 0.46875
10 -7.5 -7.5 0.72760683 0.48507127 0.48507127 174 174 174 255 0.40625003 0.71875006
5 -3.75 3.75 0.72760683 0.48507124 -0.48507124 174 174 174 255 0.59374994 0.71875006
10 -7.5 7.5 0.72760683 0.48507127 -0.48507127 174 174 174 255 0.59374994 0.71875006
-3.75 -5 -3.75 0.48507124 -0.72760683 0.48507124 174 174 174 255 0.40625003 0.96875
-7.5 -10 -7.5 0.48507127 -0.72760683 0.48507127 174 174 174 255 0.40625003 0.96875
7.5 7.5 -10 -0.4850712 -0.48507127 -0.72760683 174 174 174 255 0.34375003 0.53125
-3.75 3.75 -5 0.48507124 -0.48507124 -0.72760683 174 174 174 255 0.15625 0.53125
-7.5 7.5 -10 0.48507127 -0.4850712 -0.72760683 174 174 174 255 0.15625 0.53125
-7.5 -7.5 10 0.48507127 0.4850712 0.72760683 174 174 174 255 0.84375006 0.71875006
-3.75 3.75 5 0.4850713 -0.4850713 0.72760683 174 174 174 255 0.84375006 0.53125
-5 3.75 -3.75 -0.72760683 -0.48507124 0.48507124 174 174 174 255 0.40625003 0.21875
-10 7.5 -7.5 -0.72760683 -0.48507127 0.48507127 174 174 174 255 0.40625003 0.21875
10 7.5 7.5 0.72760683 -0.48507127 -0.48507127 174 174 174 255 0.59375 0.53125
5 3.75 -3.75 0.72760683 -0.48507124 0.48507124 174 174 174 255 0.40625003 0.53125
10 7.5 -7.5 0.72760683 -0.48507127 0.48507127 174 174 174 255 0.40625003 0.53125
-7.5 -10 7.5 0.48507127 -0.72760683 -0.48507127 174 174 174 255 0.59374994 0.96875
3.75 -5 3.75 -0.4850713 -0.72760683 -0.4850713 174 174 174 255 0.59375 0.78125006
-3.75 -3.75 -5 0.48507124 0.48507124 -0.72760683 174 174 174 255 0.15625 0.71875006
-7.5 -7.5 -10 0.4850712 0.48507127 -0.72760683 174 174 174 255 0.15625 0.71875006
-7.5 10 7.5 0.48507127 0.72760683 -0.48507127 174 174 174 255 0.59375 0.28125
-3.75 5 -3.75 0.48507124 0.72760683 0.48507124 174 174 174 255 0.40625003 0.28125
-7.5 10 -7.5 0.48507127 0.72760683 0.48507127 174 174 174 255 0.40625003 0.28125
-3.75 -3.75 5 0.4850713 0.4850713 0.72760683 174 174 174 255 0.84375006 0.71875006
-10 7.5 7.5 -0.72760683 -0.48507127 -0.48507127 174 174 174 255 0.59374994 0.21875
-5 -3.75 3.75 -0.72760683 0.4850713 -0.4850713 174 174 174 255 0.59375 0.03125
5 -3.75 -3.75 0.72760683 0.4850713 0.4850713 174 174 174 255 0.40625003 0.71875006
-3.75 -5 3.75 0.4850713 -0.72760683 -0.4850713 174 174 174 255 0.59374994 0.96875
7.5 -7.5 -10 -0.48507127 0.4850712 -0.72760683 174 174 174 255 0.34375003 0.71875006
3.75 3.75 -5 -0.4850713 -0.4850713 -0.72760683 174 174 174 255 0.34375003 0.53125
3.75 5 -3.75 -0.4850713 0.72760683 0.4850713 174 174 174 255 0.40625003 0.46875
-5 3.75 3.75 -0.72760683 -0.4850713 -0.4850713 174 174 174 255 0.59374994 0.21875
5 3.75 3.75 0.72760683 -0.4850713 -0.4850713 174 174 174 255 0.59375 0.53125
3.75 -3.75 -5 -0.4850713 0.4850713 -0.72760683 174 174 174 255 0.34375003 0.71875006
-3.75 5 3.75 0.4850713 0.72760683 -0.4850713 174 174 174 255 0.59375 0.28125
3 0 1 2
3 3 4 0
3 5 6 3
3 2 7 5
3 5 8 9
3 10 11 5
3 12 13 10
3 9 14 12
3 15 16 17
3 18 19 15
3 20 21 18
3 17 22 20
3 23 24 25
3 9 26 23
3 27 28 9
3 25 29 27
3 2 30 23
3 5 31 2
3 9 32 5
3 23 33 9
3 18 34 20
3 2 35 18
3 23 36 2
3 20 37 23
3 0 4 1
3 3 6 4
3 5 7 6
3 2 1 7
3 5 11 8
3 10 13 11
3 12 14 13
3 9 8 14
3 15 19 16
3 18 21 19
3 20 22 21
3 17 16 22
3 23 26 24
3 9 28 26
3 27 29 28
3 25 24 29
3 2 31 30
3 5 32 31
3 9 33 32
3 23 30 33
3 18 35 34
3 2 36 35
3 23 37 36
3 20 34 37
3 38 39 40
3 41 42 43
3 44 45 46
3 47 48 49
3 50 51 52
3 53 54 55
3 38 56 39
3 41 57 42
3 44 58 45
3 47 59 48
3 50 60 51
3 53 61 54
3 62 63 64
3 65 66 67
3 68 69 70
3 71 72 65
3 73 74 75
3 76 77 78
3 70 79 80
3 81 82 83
3 84 85 71
3 64 86 87
3 88 89 90
3 91 92 68
3 83 93 94
3 95 96 97
3 67 98 84
3 99 100 62
3 90 101 76
3 80 102 91
3 103 104 81
3 97 105 73
3 87 106 99
3 78 107 88
3 94 108 103
3 75 109 95
3 62 100 63
3 65 72 66
3 68 92 69
3 71 85 72
3 73 105 74
3 76 101 77
3 70 69 79
3 81 104 82
3 84 98 85
3 64 63 86
3 88 107 89
3 91 102 92
3 83 82 93
3 95 109 96
3 67 66 98
3 99 106 100
3 90 89 101
3 80 79 102
3 103 108 104
3 97 96 105
3 87 86 106
3 78 77 107
3 94 93 108
3 75 74 109
