ply
format ascii 1.0
comment Created in Blender version 4.0.2
element vertex 432
property float x
property float y
property float z
property float nx
property float ny
property float nz
property float s
property float t
element face 144
property list uchar uint vertex_indices
end_header
2.282283 -2.178016 8.756124 0.06666666 0 0 0.31262207 0.21105957
2.282283 -2.178016 2.193623 0.066666655 0 0 0.31262207 0.26550293
2.282283 7.1969843 8.756124 0.06666666 0 0 0.39050293 0.21105957
2.282283 -2.178016 2.193623 0.06666666 0 0 0.31262207 0.26550293
2.282283 7.1969843 2.193623 0.06666666 0 0 0.39050293 0.26550293
2.282283 7.1969843 8.756124 0.066666655 0 0 0.39050293 0.21105957
-2.405217 7.1969843 8.756124 -0.06666666 0 0 0.42980957 0.21105957
-2.405217 7.1969843 2.193623 -0.066666655 0 0 0.42980957 0.26550293
-2.405217 -2.178016 8.756124 -0.06666666 0 0 0.5076904 0.21105957
-2.405217 7.1969843 2.193623 -0.06666666 0 0 0.42980957 0.26550293
-2.405217 -2.178016 2.193623 -0.06666666 0 0 0.5076904 0.26550293
-2.405217 -2.178016 8.756124 -0.066666655 0 0 0.5076904 0.21105957
-2.405217 7.1969843 8.756124 0 0 0.06666666 0.42956543 0.21081543
-2.405217 -2.178016 8.756124 0 0 0.06666666 0.42956543 0.13293457
2.282283 7.1969843 8.756124 0 0 0.06666666 0.39074707 0.21081543
-2.405217 -2.178016 8.756124 0 0 0.06666666 0.42956543 0.13293457
2.282283 -2.178016 8.756124 0 0 0.06666666 0.39074707 0.13293457
2.282283 7.1969843 8.756124 0 0 0.06666666 0.39074707 0.21081543
-2.405217 -2.178016 2.193623 0 0 -0.06666666 0.46862793 0.13293457
-2.405217 7.1969843 2.193623 0 0 -0.06666666 0.46862793 0.21081543
2.282283 -2.178016 2.193623 0 0 -0.06666666 0.42980957 0.13293457
-2.405217 7.1969843 2.193623 0 0 -0.06666666 0.46862793 0.21081543
2.282283 7.1969843 2.193623 0 0 -0.06666666 0.42980957 0.21081543
2.282283 -2.178016 2.193623 0 0 -0.06666666 0.42980957 0.13293457
-2.405217 -2.178016 8.756124 0 -0.06666666 0 0.5079346 0.21105957
-2.405217 -2.178016 2.193623 0 -0.06666666 0 0.5079346 0.26550293
2.282283 -2.178016 8.756124 0 -0.06666666 0 0.5467529 0.21105957
-2.405217 -2.178016 2.193623 0 -0.06666666 0 0.5079346 0.26550293
2.282283 -2.178016 2.193623 0 -0.06666666 0 0.5467529 0.26550293
2.282283 -2.178016 8.756124 0 -0.06666666 0 0.5467529 0.21105957
2.282283 7.1969843 8.756124 0 0.06666666 0 0.39074707 0.21105957
2.282283 7.1969843 2.193623 0 0.06666666 0 0.39074707 0.26550293
-2.405217 7.1969843 8.756124 0 0.06666666 0 0.42956543 0.21105957
2.282283 7.1969843 2.193623 0 0.06666666 0 0.39074707 0.26550293
-2.405217 7.1969843 2.193623 0 0.06666666 0 0.42956543 0.26550293
-2.405217 7.1969843 8.756124 0 0.06666666 0 0.42956543 0.21105957
2.2729082 -6.446657 9.307943 0.06666666 0 0 0.00012207031 0.42199707
2.2729082 -1.0709734 5.543849 0.06666666 0 0 0.00012207031 0.47644043
2.2729082 -5.3712025 10.843855 0.06666666 0 0 0.01550293 0.42199707
2.2729082 -1.0709734 5.543849 0.066666655 0 0 0.00012207031 0.47644043
2.2729082 0.0044824183 7.0797567 0.06666666 0 0 0.01550293 0.47644043
2.2729082 -5.3712025 10.843855 0.06666666 0 0 0.01550293 0.42199707
0.39790824 -5.3712025 10.843855 -0.06666666 0 0 0.03137207 0.42199707
0.39790824 0.0044824183 7.0797567 -0.06666666 0 0 0.03137207 0.47644043
0.39790824 -6.446657 9.307943 -0.06666666 0 0 0.04675293 0.42199707
0.39790824 0.0044824183 7.0797567 -0.06666666 0 0 0.03137207 0.47644043
0.39790824 -1.0709734 5.543849 -0.06666666 0 0 0.04675293 0.47644043
0.39790824 -6.446657 9.307943 -0.06666666 0 0 0.04675293 0.42199707
0.39790824 -5.3712025 10.843855 0 -0.054610167 0.038238388 0.03112793 0.42175293
0.39790824 -6.446657 9.307943 0 -0.054610163 0.038238384 0.03112793 0.40637207
2.2729082 -5.3712025 10.843855 0 -0.05461016 0.03823838 0.01574707 0.42175293
0.39790824 -6.446657 9.307943 0 -0.05461016 0.03823838 0.03112793 0.40637207
2.2729082 -6.446657 9.307943 0 -0.054610167 0.038238384 0.01574707 0.40637207
2.2729082 -5.3712025 10.843855 0 -0.054610167 0.038238384 0.01574707 0.42175293
0.39790824 -1.0709734 5.543849 0 0.05461011 -0.03823846 0.04675293 0.40637207
0.39790824 0.0044824183 7.0797567 0 0.05461011 -0.03823846 0.04675293 0.42175293
2.2729082 -1.0709734 5.543849 0 0.054610107 -0.038238455 0.03137207 0.40637207
0.39790824 0.0044824183 7.0797567 0 0.05461011 -0.03823846 0.04675293 0.42175293
2.2729082 0.0044824183 7.0797567 0 0.05461011 -0.03823846 0.03137207 0.42175293
2.2729082 -1.0709734 5.543849 0 0.054610115 -0.03823846 0.03137207 0.40637207
0.39790824 -6.446657 9.307943 0 -0.038238425 -0.05461013 0.04699707 0.42199707
0.39790824 -1.0709734 5.543849 0 -0.03823843 -0.054610133 0.04699707 0.47644043
2.2729082 -6.446657 9.307943 0 -0.03823843 -0.054610133 0.06237793 0.42199707
0.39790824 -1.0709734 5.543849 0 -0.03823843 -0.054610133 0.04699707 0.47644043
2.2729082 -1.0709734 5.543849 0 -0.038238425 -0.05461013 0.06237793 0.47644043
2.2729082 -6.446657 9.307943 0 -0.03823843 -0.054610133 0.06237793 0.42199707
2.2729082 -5.3712025 10.843855 0 0.038238443 0.05461012 0.01574707 0.42199707
2.2729082 0.0044824183 7.0797567 0 0.038238443 0.05461012 0.01574707 0.47644043
0.39790824 -5.3712025 10.843855 0 0.038238443 0.05461012 0.03112793 0.42199707
2.2729082 0.0044824183 7.0797567 0 0.038238443 0.05461012 0.01574707 0.47644043
0.39790824 0.0044824183 7.0797567 0 0.038238443 0.05461012 0.03112793 0.47644043
0.39790824 -5.3712025 10.843855 0 0.038238443 0.05461012 0.03112793 0.42199707
-0.5208417 -6.446657 9.307943 0.06666666 0 0 0.35949707 0.01574707
-0.5208417 -1.0709734 5.543849 0.06666666 0 0 0.35949707 0.07019043
-0.5208417 -5.3712025 10.843855 0.06666666 0 0 0.37487793 0.01574707
-0.5208417 -1.0709734 5.543849 0.066666655 2.2706543e-09 0 0.35949707 0.07019043
-0.5208417 0.0044824183 7.0797567 0.06666666 2.2706543e-09 0 0.37487793 0.07019043
-0.5208417 -5.3712025 10.843855 0.06666666 2.2706543e-09 0 0.37487793 0.01574707
-2.3958418 -5.3712025 10.843855 -0.06666666 4.5413038e-09 0 0.39074707 0.01574707
-2.3958418 0.0044824183 7.0797567 -0.06666666 4.5413038e-09 0 0.39074707 0.07019043
-2.3958418 -6.446657 9.307943 -0.06666666 4.5413038e-09 0 0.40612793 0.01574707
-2.3958418 0.0044824183 7.0797567 -0.06666666 0 0 0.39074707 0.07019043
-2.3958418 -1.0709734 5.543849 -0.06666666 0 0 0.40612793 0.07019043
-2.3958418 -6.446657 9.307943 -0.06666666 0 0 0.40612793 0.01574707
-2.3958418 -5.3712025 10.843855 0 -0.05461017 0.03823838 0.39050293 0.01550293
-2.3958418 -6.446657 9.307943 0 -0.054610167 0.038238376 0.39050293 0.00012207031
-0.5208417 -5.3712025 10.843855 0 -0.05461017 0.03823838 0.37512207 0.01550293
-2.3958418 -6.446657 9.307943 0 -0.054610167 0.038238384 0.39050293 0.00012207031
-0.5208417 -6.446657 9.307943 0 -0.054610167 0.03823838 0.37512207 0.00012207031
-0.5208417 -5.3712025 10.843855 0 -0.054610167 0.03823838 0.37512207 0.01550293
-2.3958418 -1.0709734 5.543849 0 0.054610107 -0.03823846 0.40612793 0.00012207031
-2.3958418 0.0044824183 7.0797567 0 0.05461011 -0.03823846 0.40612793 0.01550293
-0.5208417 -1.0709734 5.543849 0 0.05461011 -0.038238462 0.39074707 0.00012207031
-2.3958418 0.0044824183 7.0797567 0 0.05461011 -0.038238462 0.40612793 0.01550293
-0.5208417 0.0044824183 7.0797567 0 0.05461011 -0.038238462 0.39074707 0.01550293
-0.5208417 -1.0709734 5.543849 0 0.05461011 -0.03823846 0.39074707 0.00012207031
-2.3958418 -6.446657 9.307943 0 -0.038238425 -0.05461013 0.40637207 0.01574707
-2.3958418 -1.0709734 5.543849 0 -0.03823843 -0.054610133 0.40637207 0.07019043
-0.5208417 -6.446657 9.307943 0 -0.03823843 -0.054610133 0.42175293 0.01574707
-2.3958418 -1.0709734 5.543849 0 -0.03823843 -0.054610133 0.40637207 0.07019043
-0.5208417 -1.0709734 5.543849 0 -0.038238425 -0.05461013 0.42175293 0.07019043
-0.5208417 -6.446657 9.307943 0 -0.03823843 -0.054610133 0.42175293 0.01574707
-0.5208417 -5.3712025 10.843855 0 0.038238447 0.054610126 0.37512207 0.01574707
-0.5208417 0.0044824183 7.0797567 0 0.038238443 0.05461012 0.37512207 0.07019043
-2.3958418 -5.3712025 10.843855 0 0.038238443 0.054610122 0.39050293 0.01574707
-0.5208417 0.0044824183 7.0797567 0 0.038238443 0.054610122 0.37512207 0.07019043
-2.3958418 0.0044824183 7.0797567 0 0.038238447 0.054610126 0.39050293 0.07019043
-2.3958418 -5.3712025 10.843855 0 0.038238443 0.05461012 0.39050293 0.01574707
-2.405217 -2.0691547 7.3872595 0.06666666 3.1789142e-08 0 0.06262207 0.10949707
-2.405217 -0.5332451 6.311805 0.06666666 3.1789142e-08 0 0.06262207 0.12487793
-2.405217 -1.5314274 8.155215 0.06666666 3.1789142e-08 0 0.07019043 0.10949707
-2.405217 -0.5332451 6.311805 0.06666666 0 0 0.06262207 0.12487793
-2.405217 0.0044824183 7.0797567 0.06666666 0 0 0.07019043 0.12487793
-2.405217 -1.5314274 8.155215 0.066666655 0 0 0.07019043 0.10949707
-5.2177167 -1.5314274 8.155215 -0.06666666 0 0 0.09387207 0.10949707
-5.2177167 0.0044824183 7.0797567 -0.06666666 0 0 0.09387207 0.12487793
-5.2177167 -2.0691547 7.3872595 -0.06666666 0 0 0.10144043 0.10949707
-5.2177167 0.0044824183 7.0797567 -0.066666655 0 0 0.09387207 0.12487793
-5.2177167 -0.5332451 6.311805 -0.06666666 0 0 0.10144043 0.12487793
-5.2177167 -2.0691547 7.3872595 -0.06666666 0 0 0.10144043 0.10949707
-5.2177167 -1.5314274 8.155215 0 -0.05461017 0.03823838 0.09362793 0.10925293
-5.2177167 -2.0691547 7.3872595 0 -0.05461017 0.038238376 0.09362793 0.10168457
-2.405217 -1.5314274 8.155215 0 -0.054610167 0.038238376 0.07043457 0.10925293
-5.2177167 -2.0691547 7.3872595 0 -0.054610163 0.03823838 0.09362793 0.10168457
-2.405217 -2.0691547 7.3872595 0 -0.054610167 0.038238384 0.07043457 0.10168457
-2.405217 -1.5314274 8.155215 0 -0.05461017 0.038238384 0.07043457 0.10925293
-5.2177167 -0.5332451 6.311805 0 0.054610077 -0.0382385 0.11706543 0.10168457
-5.2177167 0.0044824183 7.0797567 0 0.05461008 -0.0382385 0.11706543 0.10925293
-2.405217 -0.5332451 6.311805 0 0.05461008 -0.0382385 0.09387207 0.10168457
-5.2177167 0.0044824183 7.0797567 0 0.05461008 -0.0382385 0.11706543 0.10925293
-2.405217 0.0044824183 7.0797567 0 0.054610077 -0.0382385 0.09387207 0.10925293
-2.405217 -0.5332451 6.311805 0 0.05461008 -0.0382385 0.09387207 0.10168457
-5.2177167 -2.0691547 7.3872595 0 -0.038238417 -0.054610144 0.10168457 0.10949707
-5.2177167 -0.5332451 6.311805 0 -0.038238406 -0.05461014 0.10168457 0.12487793
-2.405217 -2.0691547 7.3872595 0 -0.038238414 -0.054610144 0.12487793 0.10949707
-5.2177167 -0.5332451 6.311805 0 -0.038238414 -0.054610144 0.10168457 0.12487793
-2.405217 -0.5332451 6.311805 0 -0.038238417 -0.054610144 0.12487793 0.12487793
-2.405217 -2.0691547 7.3872595 0 -0.038238406 -0.05461014 0.12487793 0.10949707
-2.405217 -1.5314274 8.155215 0 0.0382385 0.05461009 0.07043457 0.10949707
-2.405217 0.0044824183 7.0797567 0 0.038238496 0.054610085 0.07043457 0.12487793
-5.2177167 -1.5314274 8.155215 0 0.038238496 0.054610085 0.09362793 0.10949707
-2.405217 0.0044824183 7.0797567 0 0.038238496 0.054610085 0.07043457 0.12487793
-5.2177167 0.0044824183 7.0797567 0 0.0382385 0.05461009 0.09362793 0.12487793
-5.2177167 -1.5314274 8.155215 0 0.038238496 0.054610085 0.09362793 0.10949707
5.0947833 -2.0691547 7.3872595 0.06666666 0 0 0.00012207031 0.10949707
5.0947833 -0.5332451 6.311805 0.06666666 0 0 0.00012207031 0.12487793
5.0947833 -1.5314274 8.155215 0.06666666 0 0 0.0076904297 0.10949707
5.0947833 -0.5332451 6.311805 0.06666666 3.1789202e-08 0 0.00012207031 0.12487793
5.0947833 0.0044824183 7.0797567 0.06666666 3.1789202e-08 0 0.0076904297 0.12487793
5.0947833 -1.5314274 8.155215 0.066666655 3.1789202e-08 0 0.0076904297 0.10949707
2.282283 -1.5314274 8.155215 -0.06666666 -3.973635e-09 0 0.03137207 0.10949707
2.282283 0.0044824183 7.0797567 -0.06666666 -3.973635e-09 0 0.03137207 0.12487793
2.282283 -2.0691547 7.3872595 -0.06666666 -3.973635e-09 0 0.03894043 0.10949707
2.282283 0.0044824183 7.0797567 -0.066666655 -1.5894617e-08 0 0.03137207 0.12487793
2.282283 -0.5332451 6.311805 -0.06666666 -1.5894619e-08 0 0.03894043 0.12487793
2.282283 -2.0691547 7.3872595 -0.06666666 -1.5894619e-08 0 0.03894043 0.10949707
2.282283 -1.5314274 8.155215 0 -0.054610167 0.038238376 0.03112793 0.10925293
2.282283 -2.0691547 7.3872595 0 -0.054610167 0.03823838 0.03112793 0.10168457
5.0947833 -1.5314274 8.155215 0 -0.054610163 0.038238376 0.00793457 0.10925293
2.282283 -2.0691547 7.3872595 0 -0.054610156 0.038238384 0.03112793 0.10168457
5.0947833 -2.0691547 7.3872595 0 -0.054610163 0.038238388 0.00793457 0.10168457
5.0947833 -1.5314274 8.155215 0 -0.05461016 0.038238384 0.00793457 0.10925293
2.282283 -0.5332451 6.311805 0 0.05461008 -0.0382385 0.05456543 0.10168457
2.282283 0.0044824183 7.0797567 0 0.05461008 -0.038238496 0.05456543 0.10925293
5.0947833 -0.5332451 6.311805 0 0.05461008 -0.038238503 0.03137207 0.10168457
2.282283 0.0044824183 7.0797567 0 0.05461008 -0.0382385 0.05456543 0.10925293
5.0947833 0.0044824183 7.0797567 0 0.054610077 -0.0382385 0.03137207 0.10925293
5.0947833 -0.5332451 6.311805 0 0.05461008 -0.0382385 0.03137207 0.10168457
2.282283 -2.0691547 7.3872595 0 -0.038238417 -0.054610144 0.03918457 0.10949707
2.282283 -0.5332451 6.311805 0 -0.038238406 -0.05461014 0.03918457 0.12487793
5.0947833 -2.0691547 7.3872595 0 -0.038238414 -0.054610144 0.06237793 0.10949707
2.282283 -0.5332451 6.311805 0 -0.038238414 -0.054610144 0.03918457 0.12487793
5.0947833 -0.5332451 6.311805 0 -0.038238417 -0.054610144 0.06237793 0.12487793
5.0947833 -2.0691547 7.3872595 0 -0.038238406 -0.05461014 0.06237793 0.10949707
5.0947833 -1.5314274 8.155215 0 0.0382385 0.05461009 0.00793457 0.10949707
5.0947833 0.0044824183 7.0797567 0 0.038238496 0.054610085 0.00793457 0.12487793
2.282283 -1.5314274 8.155215 0 0.038238496 0.054610085 0.03112793 0.10949707
5.0947833 0.0044824183 7.0797567 0 0.038238496 0.054610085 0.00793457 0.12487793
2.282283 0.0044824183 7.0797567 0 0.0382385 0.05461009 0.03112793 0.12487793
2.282283 -1.5314274 8.155215 0 0.038238496 0.054610085 0.03112793 0.10949707
-0.06052927 4.074486 3.0854363 0.06666666 0 0 0.00012207031 0.21105957
-0.06052927 9.450171 -0.6786579 0.06666666 0 0 0.00012207031 0.26550293
-0.06052927 6.7631245 6.9252114 0.06666666 0 0 0.03894043 0.21105957
-0.06052927 9.450171 -0.6786579 0.06666666 -1.1353267e-10 0 0.00012207031 0.26550293
-0.06052927 12.13881 3.1611176 0.06666666 -1.1353267e-10 0 0.03894043 0.26550293
-0.06052927 6.7631245 6.9252114 0.06666666 -1.1353267e-10 0 0.03894043 0.21105957
-0.06146676 6.7631245 6.9252114 -0.06666666 -3.5478957e-12 0 0.03918457 0.21105957
-0.06146676 12.13881 3.1611176 -0.06666666 -3.5478955e-12 0 0.03918457 0.26550293
-0.06146676 4.074486 3.0854363 -0.06666666 -3.5478957e-12 0 0.07800293 0.21105957
-0.06146676 12.13881 3.1611176 -0.06666666 0 0 0.03918457 0.26550293
-0.06146676 9.450171 -0.6786579 -0.06666666 0 0 0.07800293 0.26550293
-0.06146676 4.074486 3.0854363 -0.06666666 0 0 0.07800293 0.21105957
-0.06146676 6.7631245 6.9252114 0 -0.05461025 0.038238253 0.03918457 0.21081543
-0.06146676 4.074486 3.0854363 -0.0008017146 0.053143755 0.04024353 0.03918457 0.17199707
-0.06052927 6.7631245 6.9252114 0 -0.054610256 0.038238257 0.03894043 0.21081543
-0.06146676 4.074486 3.0854363 0 -0.054609984 0.03823863 0.03918457 0.17199707
-0.06052927 4.074486 3.0854363 0 -0.054609988 0.038238633 0.03894043 0.17199707
-0.06052927 6.7631245 6.9252114 -0.00041686895 0.046578072 0.047694374 0.03894043 0.21081543
-0.06146676 9.450171 -0.6786579 0 0.05461025 -0.038238253 0.03918457 0.17199707
-0.06146676 12.13881 3.1611176 -0.00032667778 0.06451421 0.016800411 0.03918457 0.21081543
-0.06052927 9.450171 -0.6786579 0 0.054610256 -0.038238257 0.03894043 0.17199707
-0.06146676 12.13881 3.1611176 0 0.054609995 -0.03823863 0.03918457 0.21081543
-0.06052927 12.13881 3.1611176 0 0.054609988 -0.038238626 0.03894043 0.21081543
-0.06052927 9.450171 -0.6786579 -0.00042590097 0.06649406 -0.0047752275 0.03894043 0.17199707
-0.06146676 4.074486 3.0854363 0 -0.03823833 -0.0546102 0.07824707 0.21105957
-0.06146676 9.450171 -0.6786579 -0.0004324971 0.06649402 -0.0047752243 0.07824707 0.26550293
-0.06052927 4.074486 3.0854363 0 -0.03823833 -0.0546102 0.07800293 0.21105957
-0.06146676 9.450171 -0.6786579 0 -0.03823871 -0.054609932 0.07824707 0.26550293
-0.06052927 9.450171 -0.6786579 0 -0.038238715 -0.05460994 0.07800293 0.26550293
-0.06052927 4.074486 3.0854363 -0.0007894886 0.053143874 0.040243614 0.07800293 0.21105957
-0.06052927 6.7631245 6.9252114 0 0.038238715 0.054609932 0.03918457 0.21105957
-0.06052927 12.13881 3.1611176 0 0.03823871 0.054609932 0.03918457 0.26550293
-0.06146676 6.7631245 6.9252114 0 0.038238715 0.054609932 0.03894043 0.21105957
-0.06052927 12.13881 3.1611176 0 0.03823833 0.0546102 0.03918457 0.26550293
-0.06146676 12.13881 3.1611176 0 0.03823833 0.0546102 0.03894043 0.26550293
-0.06146676 6.7631245 6.9252114 0 0.03823833 0.0546102 0.03894043 0.21105957
4.1572833 -5.752192 -13.459961 0.06666666 -5.779844e-09 0 0.00012207031 0.12512207
4.1572833 4.5603085 -13.45996 0.066666655 -5.779844e-09 0 0.00012207031 0.21081543
4.1572833 -5.752194 1.5400404 0.06666666 -5.779844e-09 0 0.12487793 0.12512207
4.1572833 4.5603085 -13.45996 0.06666666 6.2774214e-10 0 0.00012207031 0.21081543
4.1572833 4.560306 1.5400422 0.06666666 6.2774214e-10 0 0.12487793 0.21081543
4.1572833 -5.752194 1.5400404 0.06666666 6.2774214e-10 0 0.12487793 0.12512207
-4.2802167 -5.752194 1.5400404 -0.06666666 -5.779844e-09 0 0.19543457 0.12512207
-4.2802167 4.560306 1.5400422 -0.066666655 -5.779844e-09 0 0.19543457 0.21081543
-4.2802167 -5.752192 -13.459961 -0.06666666 -5.779844e-09 0 0.32019043 0.12512207
-4.2802167 4.560306 1.5400422 -0.06666666 2.4813127e-09 0 0.19543457 0.21081543
-4.2802167 4.5603085 -13.45996 -0.06666666 2.4813127e-09 0 0.32019043 0.21081543
-4.2802167 -5.752192 -13.459961 -0.06666666 2.481313e-09 0 0.32019043 0.12512207
-4.2802167 -5.752194 1.5400404 0 -0.06666666 -7.0642536e-09 0.19519043 0.12487793
-4.2802167 -5.752192 -13.459961 0 -0.06666666 -7.0642536e-09 0.19519043 0.00012207031
4.1572833 -5.752194 1.5400404 0 -0.06666666 -7.0642536e-09 0.12512207 0.12487793
-4.2802167 -5.752192 -13.459961 0 -0.06666666 -7.0642536e-09 0.19519043 0.00012207031
4.1572833 -5.752192 -13.459961 0 -0.06666666 -7.0642536e-09 0.12512207 0.00012207031
4.1572833 -5.752194 1.5400404 0 -0.06666666 -7.0642536e-09 0.12512207 0.12487793
-4.2802167 4.5603085 -13.45996 0 0.06666666 1.41285055e-08 0.26550293 0.00012207031
-4.2802167 4.560306 1.5400422 0 0.06666666 1.41285055e-08 0.26550293 0.12487793
4.1572833 4.5603085 -13.45996 0 0.06666666 1.41285055e-08 0.19543457 0.00012207031
-4.2802167 4.560306 1.5400422 0 0.06666666 7.0642527e-09 0.26550293 0.12487793
4.1572833 4.560306 1.5400422 0 0.06666666 7.0642527e-09 0.19543457 0.12487793
4.1572833 4.5603085 -13.45996 0 0.06666666 7.0642527e-09 0.19543457 0.00012207031
-4.2802167 -5.752192 -13.459961 0 5.779843e-09 -0.06666666 0.32043457 0.12512207
-4.2802167 4.5603085 -13.45996 0 5.7798433e-09 -0.06666666 0.32043457 0.21081543
4.1572833 -5.752192 -13.459961 0 5.7798433e-09 -0.06666666 0.39050293 0.12512207
-4.2802167 4.5603085 -13.45996 0 5.7798433e-09 -0.06666666 0.32043457 0.21081543
4.1572833 4.5603085 -13.45996 0 5.779843e-09 -0.06666666 0.39050293 0.21081543
4.1572833 -5.752192 -13.459961 0 5.7798433e-09 -0.06666666 0.39050293 0.12512207
4.1572833 -5.752194 1.5400404 0 -1.1559688e-08 0.06666666 0.12512207 0.12512207
4.1572833 4.560306 1.5400422 0 -1.1559688e-08 0.06666666 0.12512207 0.21081543
-4.2802167 -5.752194 1.5400404 0 -1.1559689e-08 0.06666666 0.19519043 0.12512207
4.1572833 4.560306 1.5400422 0 -1.1559689e-08 0.06666666 0.12512207 0.21081543
-4.2802167 4.560306 1.5400422 0 -1.1559688e-08 0.06666666 0.19519043 0.21081543
-4.2802167 -5.752194 1.5400404 0 -1.1559688e-08 0.06666666 0.19519043 0.12512207
5.0947833 -6.689694 -7.8349605 0.06666666 -3.302767e-09 0 0.00012207031 0.29699707
5.0947833 6.435308 -7.8349586 0.06666666 -3.3027667e-09 0 0.00012207031 0.40612793
5.0947833 -6.689696 2.4775405 0.06666666 -3.302767e-09 0 0.08581543 0.29699707
5.0947833 6.435308 -7.8349586 0.06666666 2.3688032e-09 0 0.00012207031 0.40612793
5.0947833 6.4353065 2.4775422 0.06666666 2.3688032e-09 0 0.08581543 0.40612793
5.0947833 -6.689696 2.4775405 0.06666666 2.3688032e-09 0 0.08581543 0.29699707
-5.2177167 -6.689696 2.4775405 -0.06666666 3.3027674e-09 0 0.17199707 0.29699707
-5.2177167 6.4353065 2.4775422 -0.06666666 3.3027674e-09 0 0.17199707 0.40612793
-5.2177167 -6.689694 -7.8349605 -0.06666666 3.3027674e-09 0 0.25769043 0.29699707
-5.2177167 6.4353065 2.4775422 -0.06666666 -2.5853477e-09 0 0.17199707 0.40612793
-5.2177167 6.435308 -7.8349586 -0.06666666 -2.5853475e-09 0 0.25769043 0.40612793
-5.2177167 -6.689694 -7.8349605 -0.06666666 -2.5853477e-09 0 0.25769043 0.29699707
-5.2177167 -6.689696 2.4775405 0 -0.06666666 -1.681409e-08 0.17175293 0.29675293
-5.2177167 -6.689694 -7.8349605 0 -0.06666666 -1.681409e-08 0.17175293 0.21105957
5.0947833 -6.689696 2.4775405 0 -0.06666666 -1.681409e-08 0.08605957 0.29675293
-5.2177167 -6.689694 -7.8349605 0 -0.06666666 -8.407046e-09 0.17175293 0.21105957
5.0947833 -6.689694 -7.8349605 0 -0.06666666 -8.407046e-09 0.08605957 0.21105957
5.0947833 -6.689696 2.4775405 0 -0.06666666 -8.407046e-09 0.08605957 0.29675293
-5.2177167 6.435308 -7.8349586 0 0.06666666 1.681409e-08 0.25769043 0.21105957
-5.2177167 6.4353065 2.4775422 0 0.06666666 1.681409e-08 0.25769043 0.29675293
5.0947833 6.435308 -7.8349586 0 0.06666666 1.681409e-08 0.17199707 0.21105957
-5.2177167 6.4353065 2.4775422 0 0.06666666 0 0.25769043 0.29675293
5.0947833 6.4353065 2.4775422 0 0.06666666 0 0.17199707 0.29675293
5.0947833 6.435308 -7.8349586 0 0.06666666 0 0.17199707 0.21105957
-5.2177167 -6.689694 -7.8349605 0 9.082611e-09 -0.06666666 0.25793457 0.29699707
-5.2177167 6.435308 -7.8349586 0 9.082611e-09 -0.06666666 0.25793457 0.40612793
5.0947833 -6.689694 -7.8349605 0 9.08261e-09 -0.06666666 0.34362793 0.29699707
-5.2177167 6.435308 -7.8349586 0 9.082609e-09 -0.06666666 0.25793457 0.40612793
5.0947833 6.435308 -7.8349586 0 9.082609e-09 -0.06666666 0.34362793 0.40612793
5.0947833 -6.689694 -7.8349605 0 9.082609e-09 -0.06666666 0.34362793 0.29699707
5.0947833 -6.689696 2.4775405 0 -9.082609e-09 0.06666666 0.08605957 0.29699707
5.0947833 6.4353065 2.4775422 0 -9.082609e-09 0.06666666 0.08605957 0.40612793
-5.2177167 -6.689696 2.4775405 0 -9.082609e-09 0.06666666 0.17175293 0.29699707
5.0947833 6.4353065 2.4775422 0 -9.082609e-09 0.06666666 0.08605957 0.40612793
-5.2177167 6.4353065 2.4775422 0 -9.082609e-09 0.06666666 0.17175293 0.40612793
-5.2177167 -6.689696 2.4775405 0 -9.082609e-09 0.06666666 0.17175293 0.29699707
0.2069124 -1.757192 -2.6464481 0 0 -0.06666666 0.26574707 0.02355957
-9.168087 -1.757192 -2.6464481 0 0 -0.06666666 0.26574707 0.10144043
0.2069124 1.055308 -2.6464481 0 0 -0.066666655 0.28894043 0.02355957
-9.168087 -1.757192 -2.6464481 0 0 -0.066666655 0.26574707 0.10144043
-9.168087 1.055308 -2.6464481 0 0 -0.06666666 0.28894043 0.10144043
0.2069124 1.055308 -2.6464481 0 0 -0.06666666 0.28894043 0.02355957
0.2069124 1.055308 0.16605198 0 0 0.06666666 0.31262207 0.02355957
-9.168087 1.055308 0.16605198 0 0 0.06666666 0.31262207 0.10144043
0.2069124 -1.757192 0.16605198 0 0 0.066666655 0.33581543 0.02355957
-9.168087 1.055308 0.16605198 0 0 0.066666655 0.31262207 0.10144043
-9.168087 -1.757192 0.16605198 0 0 0.06666666 0.33581543 0.10144043
0.2069124 -1.757192 0.16605198 0 0 0.06666666 0.33581543 0.02355957
0.2069124 1.055308 0.16605198 0.06666666 0 0 0.31237793 0.02331543
0.2069124 -1.757192 0.16605198 0.06666666 0 0 0.31237793 0.00012207031
0.2069124 1.055308 -2.6464481 0.06666666 0 0 0.28918457 0.02331543
0.2069124 -1.757192 0.16605198 0.06666666 0 0 0.31237793 0.00012207031
0.2069124 -1.757192 -2.6464481 0.06666666 0 0 0.28918457 0.00012207031
0.2069124 1.055308 -2.6464481 0.06666666 0 0 0.28918457 0.02331543
-9.168087 -1.757192 0.16605198 -0.06666666 0 0 0.33581543 0.00012207031
-9.168087 1.055308 0.16605198 -0.06666666 0 0 0.33581543 0.02331543
-9.168087 -1.757192 -2.6464481 -0.06666666 0 0 0.31262207 0.00012207031
-9.168087 1.055308 0.16605198 -0.06666666 0 0 0.33581543 0.02331543
-9.168087 1.055308 -2.6464481 -0.06666666 0 0 0.31262207 0.02331543
-9.168087 -1.757192 -2.6464481 -0.06666666 0 0 0.31262207 0.00012207031
0.2069124 -1.757192 0.16605198 0 -0.06666666 0 0.33605957 0.02355957
-9.168087 -1.757192 0.16605198 0 -0.06666666 0 0.33605957 0.10144043
0.2069124 -1.757192 -2.6464481 0 -0.066666655 0 0.35925293 0.02355957
-9.168087 -1.757192 0.16605198 0 -0.066666655 0 0.33605957 0.10144043
-9.168087 -1.757192 -2.6464481 0 -0.06666666 0 0.35925293 0.10144043
0.2069124 -1.757192 -2.6464481 0 -0.06666666 0 0.35925293 0.02355957
0.2069124 1.055308 -2.6464481 0 0.06666666 0 0.28918457 0.02355957
-9.168087 1.055308 -2.6464481 0 0.06666666 0 0.28918457 0.10144043
0.2069124 1.055308 0.16605198 0 0.066666655 0 0.31237793 0.02355957
-9.168087 1.055308 -2.6464481 0 0.066666655 0 0.28918457 0.10144043
-9.168087 1.055308 0.16605198 0 0.06666666 0 0.31237793 0.10144043
0.2069124 1.055308 0.16605198 0 0.06666666 0 0.31237793 0.02355957
3.219783 -1.7483944 -11.38221 0.06666666 0 0 0.34387207 0.28918457
3.219783 -1.7483944 -17.00721 0.06666666 0 0 0.34387207 0.33581543
3.219783 1.0641056 -11.38221 0.06666666 0 0 0.36706543 0.28918457
3.219783 -1.7483944 -17.00721 0.06666666 0 0 0.34387207 0.33581543
3.219783 1.0641056 -17.00721 0.06666666 0 0 0.36706543 0.33581543
3.219783 1.0641056 -11.38221 0.06666666 0 0 0.36706543 0.28918457
0.40728325 1.0641056 -11.38221 -0.06666666 0 0 0.39074707 0.28918457
0.40728325 1.0641056 -17.00721 -0.06666666 0 0 0.39074707 0.33581543
0.40728325 -1.7483944 -11.38221 -0.06666666 0 0 0.41394043 0.28918457
0.40728325 1.0641056 -17.00721 -0.06666666 0 0 0.39074707 0.33581543
0.40728325 -1.7483944 -17.00721 -0.06666666 0 0 0.41394043 0.33581543
0.40728325 -1.7483944 -11.38221 -0.06666666 0 0 0.41394043 0.28918457
0.40728325 1.0641056 -11.38221 0 0 0.06666666 0.39050293 0.28894043
0.40728325 -1.7483944 -11.38221 0 0 0.06666666 0.39050293 0.26574707
3.219783 1.0641056 -11.38221 0 0 0.06666666 0.36730957 0.28894043
0.40728325 -1.7483944 -11.38221 0 0 0.06666666 0.39050293 0.26574707
3.219783 -1.7483944 -11.38221 0 0 0.06666666 0.36730957 0.26574707
3.219783 1.0641056 -11.38221 0 0 0.06666666 0.36730957 0.28894043
0.40728325 -1.7483944 -17.00721 0 0 -0.06666666 0.41394043 0.26574707
0.40728325 1.0641056 -17.00721 0 0 -0.06666666 0.41394043 0.28894043
3.219783 -1.7483944 -17.00721 0 0 -0.06666666 0.39074707 0.26574707
0.40728325 1.0641056 -17.00721 0 0 -0.06666666 0.41394043 0.28894043
3.219783 1.0641056 -17.00721 0 0 -0.06666666 0.39074707 0.28894043
3.219783 -1.7483944 -17.00721 0 0 -0.06666666 0.39074707 0.26574707
0.40728325 -1.7483944 -11.38221 0 -0.06666666 0 0.41418457 0.28918457
0.40728325 -1.7483944 -17.00721 0 -0.06666666 0 0.41418457 0.33581543
3.219783 -1.7483944 -11.38221 0 -0.06666666 0 0.43737793 0.28918457
0.40728325 -1.7483944 -17.00721 0 -0.06666666 0 0.41418457 0.33581543
3.219783 -1.7483944 -17.00721 0 -0.06666666 0 0.43737793 0.33581543
3.219783 -1.7483944 -11.38221 0 -0.06666666 0 0.43737793 0.28918457
3.219783 1.0641056 -11.38221 0 0.06666666 0 0.36730957 0.28918457
3.219783 1.0641056 -17.00721 0 0.06666666 0 0.36730957 0.33581543
0.40728325 1.0641056 -11.38221 0 0.06666666 0 0.39050293 0.28918457
3.219783 1.0641056 -17.00721 0 0.06666666 0 0.36730957 0.33581543
0.40728325 1.0641056 -17.00721 0 0.06666666 0 0.39050293 0.33581543
0.40728325 1.0641056 -11.38221 0 0.06666666 0 0.39050293 0.28918457
-0.53021675 -1.7483944 -11.38221 0.06666666 0 0 0.34387207 0.35949707
-0.53021675 -1.7483944 -17.00721 0.06666666 0 0 0.34387207 0.40612793
-0.53021675 1.0641056 -11.38221 0.06666666 0 0 0.36706543 0.35949707
-0.53021675 -1.7483944 -17.00721 0.06666666 0 0 0.34387207 0.40612793
-0.53021675 1.0641056 -17.00721 0.06666666 0 0 0.36706543 0.40612793
-0.53021675 1.0641056 -11.38221 0.06666666 0 0 0.36706543 0.35949707
-3.342717 1.0641056 -11.38221 -0.06666666 0 0 0.39074707 0.35949707
-3.342717 1.0641056 -17.00721 -0.06666666 0 0 0.39074707 0.40612793
-3.342717 -1.7483944 -11.38221 -0.06666666 0 0 0.41394043 0.35949707
-3.342717 1.0641056 -17.00721 -0.06666666 0 0 0.39074707 0.40612793
-3.342717 -1.7483944 -17.00721 -0.06666666 0 0 0.41394043 0.40612793
-3.342717 -1.7483944 -11.38221 -0.06666666 0 0 0.41394043 0.35949707
-3.342717 1.0641056 -11.38221 0 0 0.06666666 0.39050293 0.35925293
-3.342717 -1.7483944 -11.38221 0 0 0.06666666 0.39050293 0.33605957
-0.53021675 1.0641056 -11.38221 0 0 0.06666666 0.36730957 0.35925293
-3.342717 -1.7483944 -11.38221 0 0 0.06666666 0.39050293 0.33605957
-0.53021675 -1.7483944 -11.38221 0 0 0.06666666 0.36730957 0.33605957
-0.53021675 1.0641056 -11.38221 0 0 0.06666666 0.36730957 0.35925293
-3.342717 -1.7483944 -17.00721 0 0 -0.06666666 0.41394043 0.33605957
-3.342717 1.0641056 -17.00721 0 0 -0.06666666 0.41394043 0.35925293
-0.53021675 -1.7483944 -17.00721 0 0 -0.06666666 0.39074707 0.33605957
-3.342717 1.0641056 -17.00721 0 0 -0.06666666 0.41394043 0.35925293
-0.53021675 1.0641056 -17.00721 0 0 -0.06666666 0.39074707 0.35925293
-0.53021675 -1.7483944 -17.00721 0 0 -0.06666666 0.39074707 0.33605957
-3.342717 -1.7483944 -11.38221 0 -0.06666666 0 0.41418457 0.35949707
-3.342717 -1.7483944 -17.00721 0 -0.06666666 0 0.41418457 0.40612793
-0.53021675 -1.7483944 -11.38221 0 -0.06666666 0 0.43737793 0.35949707
-3.342717 -1.7483944 -17.00721 0 -0.06666666 0 0.41418457 0.40612793
-0.53021675 -1.7483944 -17.00721 0 -0.06666666 0 0.43737793 0.40612793
-0.53021675 -1.7483944 -11.38221 0 -0.06666666 0 0.43737793 0.35949707
-0.53021675 1.0641056 -11.38221 0 0.06666666 0 0.36730957 0.35949707
-0.53021675 1.0641056 -17.00721 0 0.06666666 0 0.36730957 0.40612793
-3.342717 1.0641056 -11.38221 0 0.06666666 0 0.39050293 0.35949707
-0.53021675 1.0641056 -17.00721 0 0.06666666 0 0.36730957 0.40612793
-3.342717 1.0641056 -17.00721 0 0.06666666 0 0.39050293 0.40612793
-3.342717 1.0641056 -11.38221 0 0.06666666 0 0.39050293 0.35949707
9.782284 -1.757192 -2.5906615 0 0 -0.06666666 0.00012207031 0.02355957
0.40728322 -1.757192 -2.5906615 0 0 -0.06666666 0.00012207031 0.10144043
9.782284 1.055308 -2.5906615 0 0 -0.066666655 0.02331543 0.02355957
0.40728322 -1.757192 -2.5906615 0 0 -0.066666655 0.00012207031 0.10144043
0.40728322 1.055308 -2.5906615 0 0 -0.06666666 0.02331543 0.10144043
9.782284 1.055308 -2.5906615 0 0 -0.06666666 0.02331543 0.02355957
9.782284 1.055308 0.22183836 0 0 0.06666666 0.04699707 0.02355957
0.4072831 1.055308 0.22183836 0 0 0.06666666 0.04699707 0.10144043
9.782284 -1.757192 0.22183836 0 0 0.066666655 0.07019043 0.02355957
0.4072831 1.055308 0.22183836 0 0 0.06666666 0.04699707 0.10144043
0.4072831 -1.757192 0.22183836 0 0 0.06666666 0.07019043 0.10144043
9.782284 -1.757192 0.22183836 0 0 0.06666666 0.07019043 0.02355957
9.782284 1.055308 0.22183836 0.06666666 0 0 0.04675293 0.02331543
9.782284 -1.757192 0.22183836 0.06666666 0 0 0.04675293 0.00012207031
9.782284 1.055308 -2.5906615 0.06666666 0 0 0.02355957 0.02331543
9.782284 -1.757192 0.22183836 0.06666666 0 0 0.04675293 0.00012207031
9.782284 -1.757192 -2.5906615 0.06666666 0 0 0.02355957 0.00012207031
9.782284 1.055308 -2.5906615 0.06666666 0 0 0.02355957 0.02331543
0.4072831 -1.757192 0.22183836 -0.06666666 0 -2.6490952e-09 0.07019043 0.00012207031
0.4072831 1.055308 0.22183836 -0.06666666 0 -2.6490952e-09 0.07019043 0.02331543
0.40728322 -1.757192 -2.5906615 -0.06666666 0 -2.6490952e-09 0.04699707 0.00012207031
0.4072831 1.055308 0.22183836 -0.06666666 0 -2.6490952e-09 0.07019043 0.02331543
0.40728322 1.055308 -2.5906615 -0.06666666 0 -2.6490952e-09 0.04699707 0.02331543
0.40728322 -1.757192 -2.5906615 -0.06666666 0 -2.6490952e-09 0.04699707 0.00012207031
9.782284 -1.757192 0.22183836 0 -0.06666666 0 0.07043457 0.02355957
0.4072831 -1.757192 0.22183836 0 -0.06666666 0 0.07043457 0.10144043
9.782284 -1.757192 -2.5906615 0 -0.066666655 0 0.09362793 0.02355957
0.4072831 -1.757192 0.22183836 0 -0.066666655 -8.477105e-09 0.07043457 0.10144043
0.40728322 -1.757192 -2.5906615 0 -0.06666666 -8.477105e-09 0.09362793 0.10144043
9.782284 -1.757192 -2.5906615 0 -0.06666666 -8.477105e-09 0.09362793 0.02355957
9.782284 1.055308 -2.5906615 0 0.06666666 0 0.02355957 0.02355957
0.40728322 1.055308 -2.5906615 0 0.06666666 0 0.02355957 0.10144043
9.782284 1.055308 0.22183836 0 0.066666655 0 0.04675293 0.02355957
0.40728322 1.055308 -2.5906615 0 0.066666655 -4.2385526e-09 0.02355957 0.10144043
0.4072831 1.055308 0.22183836 0 0.06666666 -4.2385526e-09 0.04675293 0.10144043
9.782284 1.055308 0.22183836 0 0.06666666 -4.2385526e-09 0.04675293 0.02355957
3 0 1 2
3 3 4 5
3 6 7 8
3 9 10 11
3 12 13 14
3 15 16 17
3 18 19 20
3 21 22 23
3 24 25 26
3 27 28 29
3 30 31 32
3 33 34 35
3 36 37 38
3 39 40 41
3 42 43 44
3 45 46 47
3 48 49 50
3 51 52 53
3 54 55 56
3 57 58 59
3 60 61 62
3 63 64 65
3 66 67 68
3 69 70 71
3 72 73 74
3 75 76 77
3 78 79 80
3 81 82 83
3 84 85 86
3 87 88 89
3 90 91 92
3 93 94 95
3 96 97 98
3 99 100 101
3 102 103 104
3 105 106 107
3 108 109 110
3 111 112 113
3 114 115 116
3 117 118 119
3 120 121 122
3 123 124 125
3 126 127 128
3 129 130 131
3 132 133 134
3 135 136 137
3 138 139 140
3 141 142 143
3 144 145 146
3 147 148 149
3 150 151 152
3 153 154 155
3 156 157 158
3 159 160 161
3 162 163 164
3 165 166 167
3 168 169 170
3 171 172 173
3 174 175 176
3 177 178 179
3 180 181 182
3 183 184 185
3 186 187 188
3 189 190 191
3 192 193 194
3 195 196 197
3 198 199 200
3 201 202 203
3 204 205 206
3 207 208 209
3 210 211 212
3 213 214 215
3 216 217 218
3 219 220 221
3 222 223 224
3 225 226 227
3 228 229 230
3 231 232 233
3 234 235 236
3 237 238 239
3 240 241 242
3 243 244 245
3 246 247 248
3 249 250 251
3 252 253 254
3 255 256 257
3 258 259 260
3 261 262 263
3 264 265 266
3 267 268 269
3 270 271 272
3 273 274 275
3 276 277 278
3 279 280 281
3 282 283 284
3 285 286 287
3 288 289 290
3 291 292 293
3 294 295 296
3 297 298 299
3 300 301 302
3 303 304 305
3 306 307 308
3 309 310 311
3 312 313 314
3 315 316 317
3 318 319 320
3 321 322 323
3 324 325 326
3 327 328 329
3 330 331 332
3 333 334 335
3 336 337 338
3 339 340 341
3 342 343 344
3 345 346 347
3 348 349 350
3 351 352 353
3 354 355 356
3 357 358 359
3 360 361 362
3 363 364 365
3 366 367 368
3 369 370 371
3 372 373 374
3 375 376 377
3 378 379 380
3 381 382 383
3 384 385 386
3 387 388 389
3 390 391 392
3 393 394 395
3 396 397 398
3 399 400 401
3 402 403 404
3 405 406 407
3 408 409 410
3 411 412 413
3 414 415 416
3 417 418 419
3 420 421 422
3 423 424 425
3 426 427 428
3 429 430 431
