ply
format ascii 1.0
comment Created in Blender version 4.0.2
element vertex 432
property float x
property float y
property float z
property float nx
property float ny
property float nz
property uchar red
property uchar green
property uchar blue
property uchar alpha
property float s
property float t
element face 144
property list uchar uint vertex_indices
end_header
3.1026454 16.928486 -1.6481938 0.05 -1.1368684e-16 4.371139e-09 0 0 0 255 0.31262207 0.21105957
3.1026454 8.311418 -0.12877274 0.049999997 -1.1368683e-16 4.3711386e-09 0 0 0 255 0.31262207 0.26550293
3.1026466 14.757885 -13.958291 0.05 -1.1368684e-16 4.371139e-09 0 0 0 255 0.39050293 0.21105957
3.1026454 8.311418 -0.12877274 0.05 -1.1368684e-16 4.371139e-09 0 0 0 255 0.31262207 0.26550293
3.1026466 6.1408167 -12.43887 0.05 -1.1368684e-16 4.371139e-09 0 0 0 255 0.39050293 0.26550293
3.1026466 14.757885 -13.958291 0.049999997 -1.1368683e-16 4.3711386e-09 0 0 0 255 0.39050293 0.21105957
-3.1473534 14.757885 -13.958291 -0.05 1.1368684e-16 -4.371139e-09 0 0 0 255 0.42980957 0.21105957
-3.1473534 6.1408167 -12.43887 -0.049999997 1.1368683e-16 -4.3711386e-09 0 0 0 255 0.42980957 0.26550293
-3.1473546 16.928486 -1.6481943 -0.05 1.1368684e-16 -4.371139e-09 0 0 0 255 0.5076904 0.21105957
-3.1473534 6.1408167 -12.43887 -0.05 1.1368684e-16 -4.371139e-09 0 0 0 255 0.42980957 0.26550293
-3.1473546 8.311418 -0.12877321 -0.05 1.1368684e-16 -4.371139e-09 0 0 0 255 0.5076904 0.26550293
-3.1473546 16.928486 -1.6481943 -0.049999997 1.1368683e-16 -4.3711386e-09 0 0 0 255 0.5076904 0.21105957
-3.1473534 14.757885 -13.958291 7.5904016e-10 0.049240388 -0.008682406 0 0 0 255 0.42956543 0.21081543
-3.1473546 16.928486 -1.6481943 7.5904016e-10 0.049240388 -0.008682406 0 0 0 255 0.42956543 0.13293457
3.1026466 14.757885 -13.958291 7.5904016e-10 0.049240388 -0.008682406 0 0 0 255 0.39074707 0.21081543
-3.1473546 16.928486 -1.6481943 7.5904016e-10 0.049240388 -0.008682406 0 0 0 255 0.42956543 0.13293457
3.1026454 16.928486 -1.6481938 7.5904016e-10 0.049240388 -0.008682406 0 0 0 255 0.39074707 0.13293457
3.1026466 14.757885 -13.958291 7.5904016e-10 0.049240388 -0.008682406 0 0 0 255 0.39074707 0.21081543
-3.1473546 8.311418 -0.12877321 -7.5904016e-10 -0.049240388 0.008682406 0 0 0 255 0.46862793 0.13293457
-3.1473534 6.1408167 -12.43887 -7.5904016e-10 -0.049240388 0.008682406 0 0 0 255 0.46862793 0.21081543
3.1026454 8.311418 -0.12877274 -7.5904016e-10 -0.049240388 0.008682406 0 0 0 255 0.42980957 0.13293457
-3.1473534 6.1408167 -12.43887 -7.5904016e-10 -0.049240388 0.008682406 0 0 0 255 0.46862793 0.21081543
3.1026466 6.1408167 -12.43887 -7.5904016e-10 -0.049240388 0.008682406 0 0 0 255 0.42980957 0.21081543
3.1026454 8.311418 -0.12877274 -7.5904016e-10 -0.049240388 0.008682406 0 0 0 255 0.42980957 0.13293457
-3.1473546 16.928486 -1.6481943 -4.304732e-09 0.008682406 0.049240388 0 0 0 255 0.5079346 0.21105957
-3.1473546 8.311418 -0.12877321 -4.304732e-09 0.008682406 0.049240388 0 0 0 255 0.5079346 0.26550293
3.1026454 16.928486 -1.6481938 -4.304732e-09 0.008682406 0.049240388 0 0 0 255 0.5467529 0.21105957
-3.1473546 8.311418 -0.12877321 -4.304732e-09 0.008682406 0.049240388 0 0 0 255 0.5079346 0.26550293
3.1026454 8.311418 -0.12877274 -4.304732e-09 0.008682406 0.049240388 0 0 0 255 0.5467529 0.26550293
3.1026454 16.928486 -1.6481938 -4.304732e-09 0.008682406 0.049240388 0 0 0 255 0.5467529 0.21105957
3.1026466 14.757885 -13.958291 4.304732e-09 -0.008682406 -0.049240388 0 0 0 255 0.39074707 0.21105957
3.1026466 6.1408167 -12.43887 4.304732e-09 -0.008682406 -0.049240388 0 0 0 255 0.39074707 0.26550293
-3.1473534 14.757885 -13.958291 4.304732e-09 -0.008682406 -0.049240388 0 0 0 255 0.42956543 0.21105957
3.1026466 6.1408167 -12.43887 4.304732e-09 -0.008682406 -0.049240388 0 0 0 255 0.39074707 0.26550293
-3.1473534 6.1408167 -12.43887 4.304732e-09 -0.008682406 -0.049240388 0 0 0 255 0.42956543 0.26550293
-3.1473534 14.757885 -13.958291 4.304732e-09 -0.008682406 -0.049240388 0 0 0 255 0.42956543 0.21105957
3.090145 18.641392 3.8290987 0.05 0 4.3711395e-09 0 255 0 0 0.00012207031 0.42199707
3.0901456 12.454208 -2.3580866 0.05 0 4.3711395e-09 0 255 0 0 0.00012207031 0.47644043
3.090145 20.409159 2.0613317 0.05 0 4.3711395e-09 0 255 0 0 0.01550293 0.42199707
3.0901456 12.454208 -2.3580866 0.05 0 4.3711395e-09 0 0 0 0 0.00012207031 0.47644043
3.0901456 14.221975 -4.1258535 0.05 0 4.3711395e-09 0 0 0 0 0.01550293 0.47644043
3.090145 20.409159 2.0613317 0.05 0 4.3711395e-09 0 0 0 0 0.01550293 0.42199707
0.5901451 20.409159 2.0613317 -0.05 0 -4.3711395e-09 0 0 0 0 0.03137207 0.42199707
0.59014565 14.221975 -4.1258535 -0.05 0 -4.3711395e-09 0 0 0 0 0.03137207 0.47644043
0.59014493 18.641392 3.8290987 -0.05 0 -4.3711395e-09 0 0 0 0 0.04675293 0.42199707
0.59014565 14.221975 -4.1258535 -0.05 0 -4.3711395e-09 0 0 0 0 0.03137207 0.47644043
0.5901455 12.454208 -2.3580866 -0.05 0 -4.3711395e-09 0 0 0 0 0.04675293 0.47644043
0.59014493 18.641392 3.8290987 -0.05 0 -4.3711395e-09 0 0 0 0 0.04675293 0.42199707
0.5901451 20.409159 2.0613317 -3.090863e-09 0.035355337 0.03535535 0 0 0 0 0.03112793 0.42175293
0.59014493 18.641392 3.8290987 -3.090863e-09 0.035355337 0.03535535 0 0 0 0 0.03112793 0.40637207
3.090145 20.409159 2.0613317 -3.090863e-09 0.035355337 0.03535535 0 0 0 0 0.01574707 0.42175293
0.59014493 18.641392 3.8290987 -3.090863e-09 0.035355337 0.03535535 0 0 0 0 0.03112793 0.40637207
3.090145 18.641392 3.8290987 -3.090863e-09 0.035355337 0.03535535 0 0 0 0 0.01574707 0.40637207
3.090145 20.409159 2.0613317 -3.090863e-09 0.035355337 0.03535535 0 0 0 0 0.01574707 0.42175293
0.5901455 12.454208 -2.3580866 3.090863e-09 -0.035355337 -0.03535535 0 0 0 0 0.04675293 0.40637207
0.59014565 14.221975 -4.1258535 3.090863e-09 -0.035355337 -0.03535535 0 0 0 0 0.04675293 0.42175293
3.0901456 12.454208 -2.3580866 3.090863e-09 -0.035355337 -0.03535535 0 0 0 0 0.03137207 0.40637207
0.59014565 14.221975 -4.1258535 3.090863e-09 -0.035355337 -0.03535535 0 0 0 0 0.04675293 0.42175293
3.0901456 14.221975 -4.1258535 3.090863e-09 -0.035355337 -0.03535535 0 0 0 0 0.03137207 0.42175293
3.0901456 12.454208 -2.3580866 3.090863e-09 -0.035355337 -0.03535535 0 0 0 0 0.03137207 0.40637207
0.59014493 18.641392 3.8290987 -3.090862e-09 -0.03535535 0.035355337 0 0 0 0 0.04699707 0.42199707
0.5901455 12.454208 -2.3580866 -3.090862e-09 -0.03535535 0.035355337 0 0 0 0 0.04699707 0.47644043
3.090145 18.641392 3.8290987 -3.090862e-09 -0.03535535 0.035355337 0 0 0 0 0.06237793 0.42199707
0.5901455 12.454208 -2.3580866 -3.090862e-09 -0.03535535 0.035355337 0 0 0 0 0.04699707 0.47644043
3.0901456 12.454208 -2.3580866 -3.090862e-09 -0.03535535 0.035355337 0 0 0 0 0.06237793 0.47644043
3.090145 18.641392 3.8290987 -3.090862e-09 -0.03535535 0.035355337 0 0 0 0 0.06237793 0.42199707
3.090145 20.409159 2.0613317 3.090862e-09 0.03535535 -0.035355337 0 0 0 0 0.01574707 0.42199707
3.0901456 14.221975 -4.1258535 3.090862e-09 0.03535535 -0.035355337 0 0 0 0 0.01574707 0.47644043
0.5901451 20.409159 2.0613317 3.090862e-09 0.03535535 -0.035355337 0 0 0 0 0.03112793 0.42199707
3.0901456 14.221975 -4.1258535 3.090862e-09 0.03535535 -0.035355337 0 0 0 0 0.01574707 0.47644043
0.59014565 14.221975 -4.1258535 3.090862e-09 0.03535535 -0.035355337 0 0 0 0 0.03112793 0.47644043
0.5901451 20.409159 2.0613317 3.090862e-09 0.03535535 -0.035355337 0 0 0 0 0.03112793 0.42199707
-0.63485503 18.641392 3.8290987 0.05 0 4.3711395e-09 0 0 0 0 0.35949707 0.01574707
-0.63485444 12.454208 -2.3580866 0.05 0 4.3711395e-09 0 0 0 0 0.35949707 0.07019043
-0.6348549 20.409159 2.0613317 0.05 0 4.3711395e-09 0 0 0 0 0.37487793 0.01574707
-0.63485444 12.454208 -2.3580866 0.05 0 4.3711395e-09 0 0 0 0 0.35949707 0.07019043
-0.6348543 14.221975 -4.1258535 0.05 0 4.3711395e-09 0 0 0 0 0.37487793 0.07019043
-0.6348549 20.409159 2.0613317 0.05 0 4.3711395e-09 0 0 0 0 0.37487793 0.01574707
-3.1348548 20.409159 2.0613317 -0.05 0 -4.3711395e-09 0 0 0 0 0.39074707 0.01574707
-3.1348543 14.221975 -4.1258535 -0.05 0 -4.3711395e-09 0 0 0 255 0.39074707 0.07019043
-3.1348548 18.641392 3.8290977 -0.05 0 -4.3711395e-09 0 0 0 255 0.40612793 0.01574707
-3.1348543 14.221975 -4.1258535 -0.05 0 -4.3711395e-09 0 0 0 255 0.39074707 0.07019043
-3.1348543 12.454208 -2.3580875 -0.05 0 -4.3711395e-09 0 0 0 255 0.40612793 0.07019043
-3.1348548 18.641392 3.8290977 -0.05 0 -4.3711395e-09 0 0 0 255 0.40612793 0.01574707
-3.1348548 20.409159 2.0613317 -3.090863e-09 0.035355337 0.03535535 0 0 0 255 0.39050293 0.01550293
-3.1348548 18.641392 3.8290977 -3.090863e-09 0.035355337 0.03535535 0 0 0 255 0.39050293 0.00012207031
-0.6348549 20.409159 2.0613317 -3.090863e-09 0.035355337 0.03535535 0 0 0 255 0.37512207 0.01550293
-3.1348548 18.641392 3.8290977 -3.090863e-09 0.035355337 0.03535535 0 0 0 255 0.39050293 0.00012207031
-0.63485503 18.641392 3.8290987 -3.090863e-09 0.035355337 0.03535535 0 0 0 255 0.37512207 0.00012207031
-0.6348549 20.409159 2.0613317 -3.090863e-09 0.035355337 0.03535535 0 0 0 255 0.37512207 0.01550293
-3.1348543 12.454208 -2.3580875 3.090863e-09 -0.035355337 -0.03535535 0 0 0 255 0.40612793 0.00012207031
-3.1348543 14.221975 -4.1258535 3.090863e-09 -0.035355337 -0.03535535 0 0 0 255 0.40612793 0.01550293
-0.63485444 12.454208 -2.3580866 3.090863e-09 -0.035355337 -0.03535535 0 0 0 255 0.39074707 0.00012207031
-3.1348543 14.221975 -4.1258535 3.090863e-09 -0.035355337 -0.03535535 0 0 0 255 0.40612793 0.01550293
-0.6348543 14.221975 -4.1258535 3.090863e-09 -0.035355337 -0.03535535 0 0 0 255 0.39074707 0.01550293
-0.63485444 12.454208 -2.3580866 3.090863e-09 -0.035355337 -0.03535535 0 0 0 255 0.39074707 0.00012207031
-3.1348548 18.641392 3.8290977 -3.090862e-09 -0.03535535 0.035355337 0 0 0 255 0.40637207 0.01574707
-3.1348543 12.454208 -2.3580875 -3.090862e-09 -0.03535535 0.035355337 0 0 0 255 0.40637207 0.07019043
-0.63485503 18.641392 3.8290987 -3.090862e-09 -0.03535535 0.035355337 0 0 0 255 0.42175293 0.01574707
-3.1348543 12.454208 -2.3580875 -3.090862e-09 -0.03535535 0.035355337 0 0 0 255 0.40637207 0.07019043
-0.63485444 12.454208 -2.3580866 -3.090862e-09 -0.03535535 0.035355337 0 0 0 255 0.42175293 0.07019043
-0.63485503 18.641392 3.8290987 -3.090862e-09 -0.03535535 0.035355337 0 0 0 255 0.42175293 0.01574707
-0.6348549 20.409159 2.0613317 3.090862e-09 0.03535535 -0.035355337 0 0 0 255 0.37512207 0.01574707
-0.6348543 14.221975 -4.1258535 3.090862e-09 0.03535535 -0.035355337 0 0 0 255 0.37512207 0.07019043
-3.1348548 20.409159 2.0613317 3.090862e-09 0.03535535 -0.035355337 0 0 0 255 0.39050293 0.01574707
-0.6348543 14.221975 -4.1258535 3.090862e-09 0.03535535 -0.035355337 0 0 0 255 0.37512207 0.07019043
-3.1348543 14.221975 -4.1258535 3.090862e-09 0.03535535 -0.035355337 0 0 0 255 0.39050293 0.07019043
-3.1348548 20.409159 2.0613317 3.090862e-09 0.03535535 -0.035355337 0 0 0 255 0.39050293 0.01574707
-3.1473546 15.105858 -1.4742031 0.05 0 4.3711395e-09 0 0 0 255 0.06262207 0.10949707
-3.1473544 13.338091 -3.24197 0.05 0 4.3711395e-09 0 0 0 255 0.06262207 0.12487793
-3.1473546 15.989742 -2.3580866 0.05 0 4.3711395e-09 0 0 0 255 0.07019043 0.10949707
-3.1473544 13.338091 -3.24197 0.05 0 4.3711395e-09 0 0 0 255 0.06262207 0.12487793
-3.1473544 14.221975 -4.1258535 0.05 0 4.3711395e-09 0 0 0 255 0.07019043 0.12487793
-3.1473546 15.989742 -2.3580866 0.05 0 4.3711395e-09 0 0 0 255 0.07019043 0.10949707
-6.897354 15.989742 -2.3580875 -0.05 0 -4.3711395e-09 0 0 0 255 0.09387207 0.10949707
-6.897354 14.221975 -4.1258545 -0.05 0 -4.3711395e-09 0 0 0 0 0.09387207 0.12487793
-6.8973546 15.105858 -1.4742031 -0.05 0 -4.3711395e-09 0 0 0 0 0.10144043 0.10949707
-6.897354 14.221975 -4.1258545 -0.05 0 -4.3711395e-09 0 0 0 0 0.09387207 0.12487793
-6.8973546 13.338091 -3.24197 -0.05 0 -4.3711395e-09 0 0 0 0 0.10144043 0.12487793
-6.8973546 15.105858 -1.4742031 -0.05 0 -4.3711395e-09 0 0 0 0 0.10144043 0.10949707
-6.897354 15.989742 -2.3580875 -3.090863e-09 0.035355337 0.03535535 0 0 0 0 0.09362793 0.10925293
-6.8973546 15.105858 -1.4742031 -3.090863e-09 0.035355337 0.03535535 0 0 0 0 0.09362793 0.10168457
-3.1473546 15.989742 -2.3580866 -3.090863e-09 0.035355337 0.03535535 0 0 0 0 0.07043457 0.10925293
-6.8973546 15.105858 -1.4742031 -3.090863e-09 0.035355337 0.03535535 0 0 0 0 0.09362793 0.10168457
-3.1473546 15.105858 -1.4742031 -3.090863e-09 0.035355337 0.03535535 0 0 0 0 0.07043457 0.10168457
-3.1473546 15.989742 -2.3580866 -3.090863e-09 0.035355337 0.03535535 0 0 0 0 0.07043457 0.10925293
-6.8973546 13.338091 -3.24197 3.090863e-09 -0.035355337 -0.03535535 0 0 0 0 0.11706543 0.10168457
-6.897354 14.221975 -4.1258545 3.090863e-09 -0.035355337 -0.03535535 0 0 0 0 0.11706543 0.10925293
-3.1473544 13.338091 -3.24197 3.090863e-09 -0.035355337 -0.03535535 0 0 0 0 0.09387207 0.10168457
-6.897354 14.221975 -4.1258545 3.090863e-09 -0.035355337 -0.03535535 0 0 0 0 0.11706543 0.10925293
-3.1473544 14.221975 -4.1258535 3.090863e-09 -0.035355337 -0.03535535 0 0 0 0 0.09387207 0.10925293
-3.1473544 13.338091 -3.24197 3.090863e-09 -0.035355337 -0.03535535 0 0 0 0 0.09387207 0.10168457
-6.8973546 15.105858 -1.4742031 -3.090862e-09 -0.03535535 0.035355337 0 0 0 0 0.10168457 0.10949707
-6.8973546 13.338091 -3.24197 -3.0908618e-09 -0.035355344 0.035355333 0 0 0 0 0.10168457 0.12487793
-3.1473546 15.105858 -1.4742031 -3.090862e-09 -0.03535535 0.035355337 0 0 0 0 0.12487793 0.10949707
-6.8973546 13.338091 -3.24197 -3.090862e-09 -0.03535535 0.035355337 0 0 0 0 0.10168457 0.12487793
-3.1473544 13.338091 -3.24197 -3.090862e-09 -0.03535535 0.035355337 0 0 0 0 0.12487793 0.12487793
-3.1473546 15.105858 -1.4742031 -3.0908618e-09 -0.035355344 0.035355333 0 0 0 0 0.12487793 0.10949707
-3.1473546 15.989742 -2.3580866 3.090862e-09 0.03535535 -0.035355337 0 0 0 0 0.07043457 0.10949707
-3.1473544 14.221975 -4.1258535 3.0908618e-09 0.035355344 -0.035355333 0 0 0 0 0.07043457 0.12487793
-6.897354 15.989742 -2.3580875 3.090862e-09 0.03535535 -0.035355337 0 0 0 0 0.09362793 0.10949707
-3.1473544 14.221975 -4.1258535 3.090862e-09 0.03535535 -0.035355337 0 0 0 0 0.07043457 0.12487793
-6.897354 14.221975 -4.1258545 3.090862e-09 0.03535535 -0.035355337 0 0 0 0 0.09362793 0.12487793
-6.897354 15.989742 -2.3580875 3.0908618e-09 0.035355344 -0.035355333 0 0 0 0 0.09362793 0.10949707
6.8526454 15.105858 -1.4742031 0.05 0 4.3711395e-09 0 0 0 0 0.00012207031 0.10949707
6.8526454 13.338091 -3.24197 0.05 0 4.3711395e-09 0 0 0 0 0.00012207031 0.12487793
6.852646 15.989742 -2.3580856 0.05 0 4.3711395e-09 0 0 0 0 0.0076904297 0.10949707
6.8526454 13.338091 -3.24197 0.05 0 4.3711395e-09 0 0 0 0 0.00012207031 0.12487793
6.852646 14.221975 -4.1258526 0.05 0 4.3711395e-09 0 0 0 0 0.0076904297 0.12487793
6.852646 15.989742 -2.3580856 0.05 0 4.3711395e-09 0 0 0 0 0.0076904297 0.10949707
3.1026454 15.989742 -2.3580866 -0.05 0 -4.3711395e-09 0 0 0 0 0.03137207 0.10949707
3.1026456 14.221975 -4.1258535 -0.05 0 -4.3711395e-09 0 0 0 0 0.03137207 0.12487793
3.1026454 15.105858 -1.4742031 -0.05 0 -4.3711395e-09 0 0 0 0 0.03894043 0.10949707
3.1026456 14.221975 -4.1258535 -0.05 0 -4.3711395e-09 0 0 0 0 0.03137207 0.12487793
3.1026456 13.338091 -3.24197 -0.05 0 -4.3711395e-09 0 255 255 255 0.03894043 0.12487793
3.1026454 15.105858 -1.4742031 -0.05 0 -4.3711395e-09 255 255 255 0 0.03894043 0.10949707
3.1026454 15.989742 -2.3580866 -3.090863e-09 0.035355337 0.03535535 0 0 0 0 0.03112793 0.10925293
3.1026454 15.105858 -1.4742031 -3.090863e-09 0.035355337 0.03535535 0 0 0 0 0.03112793 0.10168457
6.852646 15.989742 -2.3580856 -3.090863e-09 0.035355337 0.03535535 0 0 0 0 0.00793457 0.10925293
3.1026454 15.105858 -1.4742031 -3.090863e-09 0.035355337 0.03535535 0 0 0 0 0.03112793 0.10168457
6.8526454 15.105858 -1.4742031 -3.090863e-09 0.035355337 0.03535535 0 0 0 0 0.00793457 0.10168457
6.852646 15.989742 -2.3580856 -3.090863e-09 0.035355337 0.03535535 0 0 0 0 0.00793457 0.10925293
3.1026456 13.338091 -3.24197 3.090863e-09 -0.035355337 -0.03535535 0 0 0 0 0.05456543 0.10168457
3.1026456 14.221975 -4.1258535 3.090863e-09 -0.035355337 -0.03535535 0 0 0 0 0.05456543 0.10925293
6.8526454 13.338091 -3.24197 3.090863e-09 -0.035355337 -0.03535535 0 0 0 0 0.03137207 0.10168457
3.1026456 14.221975 -4.1258535 3.090863e-09 -0.035355337 -0.03535535 0 0 0 0 0.05456543 0.10925293
6.852646 14.221975 -4.1258526 3.090863e-09 -0.035355337 -0.03535535 0 0 0 0 0.03137207 0.10925293
6.8526454 13.338091 -3.24197 3.090863e-09 -0.035355337 -0.03535535 0 0 0 0 0.03137207 0.10168457
3.1026454 15.105858 -1.4742031 -3.090862e-09 -0.03535535 0.035355337 0 0 0 0 0.03918457 0.10949707
3.1026456 13.338091 -3.24197 -3.0908618e-09 -0.035355344 0.035355333 0 0 0 0 0.03918457 0.12487793
6.8526454 15.105858 -1.4742031 -3.090862e-09 -0.03535535 0.035355337 0 0 0 0 0.06237793 0.10949707
3.1026456 13.338091 -3.24197 -3.090862e-09 -0.03535535 0.035355337 0 0 0 0 0.03918457 0.12487793
6.8526454 13.338091 -3.24197 -3.090862e-09 -0.03535535 0.035355337 0 0 0 0 0.06237793 0.12487793
6.8526454 15.105858 -1.4742031 -3.0908618e-09 -0.035355344 0.035355333 0 0 0 0 0.06237793 0.10949707
6.852646 15.989742 -2.3580856 3.090862e-09 0.03535535 -0.035355337 0 0 0 0 0.00793457 0.10949707
6.852646 14.221975 -4.1258526 3.0908618e-09 0.035355344 -0.035355333 0 0 0 0 0.00793457 0.12487793
3.1026454 15.989742 -2.3580866 3.090862e-09 0.03535535 -0.035355337 0 0 0 0 0.03112793 0.10949707
6.852646 14.221975 -4.1258526 3.090862e-09 0.03535535 -0.035355337 0 0 0 0 0.00793457 0.12487793
3.1026456 14.221975 -4.1258535 3.090862e-09 0.03535535 -0.035355337 0 0 0 0 0.03112793 0.12487793
3.1026454 15.989742 -2.3580866 3.0908618e-09 0.035355344 -0.035355333 0 0 0 0 0.03112793 0.10949707
-0.021103978 8.034792 -8.545272 0.05 0 4.3711395e-09 0 0 0 0 0.00012207031 0.21105957
-0.021103442 1.8476086 -14.732457 0.05 0 4.3711395e-09 0 0 0 0 0.00012207031 0.26550293
-0.02110362 12.45421 -12.964688 0.05 0 4.3711395e-09 0 0 0 0 0.03894043 0.21105957
-0.021103442 1.8476086 -14.732457 0.05 0 4.3711395e-09 0 0 0 0 0.00012207031 0.26550293
-0.021103084 6.267027 -19.151875 0.05 0 4.3711395e-09 0 0 0 0 0.03894043 0.26550293
-0.02110362 12.45421 -12.964688 0.05 0 4.3711395e-09 0 0 0 0 0.03894043 0.21105957
-0.02235359 12.45421 -12.964688 -0.05 0 -4.3711395e-09 0 0 0 0 0.03918457 0.21105957
-0.022353053 6.267027 -19.151875 -0.05 0 -4.3711395e-09 0 0 0 0 0.03918457 0.26550293
-0.022353947 8.034792 -8.545272 -0.05 0 -4.3711395e-09 0 0 0 0 0.07800293 0.21105957
-0.022353053 6.267027 -19.151875 -0.05 0 -4.3711395e-09 0 0 0 0 0.03918457 0.26550293
-0.02235341 1.8476086 -14.732457 -0.05 0 -4.3711395e-09 0 0 0 0 0.07800293 0.26550293
-0.022353947 8.034792 -8.545272 -0.05 0 -4.3711395e-09 0 0 0 0 0.07800293 0.21105957
-0.02235359 12.45421 -12.964688 -3.090863e-09 0.035355337 0.03535535 0 0 0 0 0.03918457 0.21081543
-0.022353947 8.034792 -8.545272 -0.0015803496 0.049168922 0.008939814 0 0 0 0 0.03918457 0.17199707
-0.02110362 12.45421 -12.964688 -3.0908627e-09 0.035355333 0.035355344 0 0 0 0 0.03894043 0.21081543
-0.022353947 8.034792 -8.545272 -3.0908627e-09 0.035355333 0.035355344 0 0 0 255 0.03918457 0.17199707
-0.021103978 8.034792 -8.545272 -3.090863e-09 0.035355337 0.03535535 0 255 0 255 0.03894043 0.17199707
-0.02110362 12.45421 -12.964688 -0.0013054974 0.049948707 -0.0018499475 0 255 0 0 0.03894043 0.21081543
-0.02235341 1.8476086 -14.732457 3.090863e-09 -0.035355337 -0.03535535 0 255 0 0 0.03918457 0.17199707
-0.022353053 6.267027 -19.151875 -0.0016404452 0.046398852 -0.018559532 0 0 0 0 0.03918457 0.21081543
-0.021103442 1.8476086 -14.732457 3.0908627e-09 -0.035355333 -0.035355344 0 0 0 0 0.03894043 0.17199707
-0.022353053 6.267027 -19.151875 3.0908627e-09 -0.035355333 -0.035355344 0 0 0 0 0.03918457 0.21081543
-0.021103084 6.267027 -19.151875 3.090863e-09 -0.035355337 -0.03535535 0 0 0 0 0.03894043 0.21081543
-0.021103442 1.8476086 -14.732457 -0.002304177 0.04897695 -0.009795383 0 0 0 0 0.03894043 0.17199707
-0.022353947 8.034792 -8.545272 -3.090862e-09 -0.03535535 0.035355337 0 0 0 0 0.07824707 0.21105957
-0.02235341 1.8476086 -14.732457 -0.0023087845 0.04897674 -0.009795342 0 0 0 0 0.07824707 0.26550293
-0.021103978 8.034792 -8.545272 -3.090862e-09 -0.03535535 0.035355337 0 0 0 0 0.07800293 0.21105957
-0.02235341 1.8476086 -14.732457 -3.090862e-09 -0.03535535 0.035355337 0 0 0 0 0.07824707 0.26550293
-0.021103442 1.8476086 -14.732457 -3.090862e-09 -0.03535535 0.035355337 0 0 0 0 0.07800293 0.26550293
-0.021103978 8.034792 -8.545272 -0.0015771921 0.049169015 0.008939829 0 0 0 0 0.07800293 0.21105957
-0.02110362 12.45421 -12.964688 3.090862e-09 0.03535535 -0.035355337 0 0 0 0 0.03918457 0.21105957
-0.021103084 6.267027 -19.151875 -0.0016371678 0.046398945 -0.018559571 0 0 0 0 0.03918457 0.26550293
-0.02235359 12.45421 -12.964688 3.090862e-09 0.03535535 -0.035355337 0 0 0 0 0.03894043 0.21105957
-0.021103084 6.267027 -19.151875 3.090862e-09 0.03535535 -0.035355337 0 0 0 0 0.03918457 0.26550293
-0.022353053 6.267027 -19.151875 3.090862e-09 0.03535535 -0.035355337 0 0 0 0 0.03894043 0.26550293
-0.02235359 12.45421 -12.964688 -0.0013081117 0.04994864 -0.0018499419 0 0 0 0 0.03894043 0.21105957
5.5702963 -13.284344 7.238592 0.049999997 -8.290447e-17 4.371139e-09 0 0 0 0 0.00012207031 0.12512207
5.570298 -13.28434 -6.5114093 0.049999997 -8.290447e-17 4.371139e-09 0 0 0 0 0.00012207031 0.21081543
5.5702963 6.715658 7.238596 0.049999997 -8.290447e-17 4.371139e-09 0 0 0 0 0.12487793 0.12512207
5.570298 -13.28434 -6.5114093 0.049999997 -8.290447e-17 4.371139e-09 0 0 0 0 0.00012207031 0.21081543
5.570298 6.715662 -6.511404 0.049999997 -8.290447e-17 4.371139e-09 0 0 0 0 0.12487793 0.21081543
5.5702963 6.715658 7.238596 0.049999997 -8.290447e-17 4.371139e-09 0 0 0 0 0.12487793 0.12512207
-5.6797037 6.715658 7.238596 -0.049999997 8.290447e-17 -4.371139e-09 0 0 0 0 0.19543457 0.12512207
-5.679702 6.715662 -6.511405 -0.049999997 8.290447e-17 -4.371139e-09 0 0 0 0 0.19543457 0.21081543
-5.6797037 -13.284344 7.2385902 -0.049999997 8.290447e-17 -4.371139e-09 0 0 0 0 0.32019043 0.12512207
-5.679702 6.715662 -6.511405 -0.049999997 8.290447e-17 -4.371139e-09 0 0 0 0 0.19543457 0.21081543
-5.679702 -13.28434 -6.51141 -0.049999997 8.290447e-17 -4.371139e-09 0 0 0 0 0.32019043 0.21081543
-5.6797037 -13.284344 7.2385902 -0.049999997 8.290447e-17 -4.371139e-09 0 0 0 0 0.32019043 0.12512207
-5.6797037 6.715658 7.238596 -4.3711386e-09 -1.2678405e-08 0.04999999 0 0 0 0 0.19519043 0.12487793
-5.6797037 -13.284344 7.2385902 -4.3711386e-09 -1.2678405e-08 0.04999999 0 0 0 0 0.19519043 0.00012207031
5.5702963 6.715658 7.238596 -4.3711386e-09 -1.2678405e-08 0.04999999 0 0 0 0 0.12512207 0.12487793
-5.6797037 -13.284344 7.2385902 -4.3711386e-09 -1.2678405e-08 0.04999999 0 0 0 0 0.19519043 0.00012207031
5.5702963 -13.284344 7.238592 -4.3711386e-09 -1.2678405e-08 0.04999999 0 0 0 0 0.12512207 0.00012207031
5.5702963 6.715658 7.238596 -4.3711386e-09 -1.2678405e-08 0.04999999 0 0 0 0 0.12512207 0.12487793
-5.679702 -13.28434 -6.51141 4.3711386e-09 1.2678405e-08 -0.04999999 0 0 0 0 0.26550293 0.00012207031
-5.679702 6.715662 -6.511405 4.3711386e-09 1.2678405e-08 -0.04999999 0 0 0 0 0.26550293 0.12487793
5.570298 -13.28434 -6.5114093 4.3711386e-09 1.2678405e-08 -0.04999999 0 0 0 0 0.19543457 0.00012207031
-5.679702 6.715662 -6.511405 4.3711386e-09 1.2678405e-08 -0.04999999 0 0 0 0 0.26550293 0.12487793
5.570298 6.715662 -6.511404 4.3711386e-09 1.2678405e-08 -0.04999999 0 0 0 0 0.19543457 0.12487793
5.570298 -13.28434 -6.5114093 4.3711386e-09 1.2678405e-08 -0.04999999 0 0 0 0 0.19543457 0.00012207031
-5.6797037 -13.284344 7.2385902 1.025477e-15 -0.04999999 -1.2678405e-08 0 0 0 0 0.32043457 0.12512207
-5.679702 -13.28434 -6.51141 1.025477e-15 -0.04999999 -1.2678405e-08 0 0 0 0 0.32043457 0.21081543
5.5702963 -13.284344 7.238592 1.025477e-15 -0.04999999 -1.2678405e-08 0 0 0 0 0.39050293 0.12512207
-5.679702 -13.28434 -6.51141 1.025477e-15 -0.04999999 -1.2678405e-08 0 0 0 0 0.32043457 0.21081543
5.570298 -13.28434 -6.5114093 1.025477e-15 -0.04999999 -1.2678405e-08 0 0 0 0 0.39050293 0.21081543
5.5702963 -13.284344 7.238592 1.025477e-15 -0.04999999 -1.2678405e-08 0 0 0 0 0.39050293 0.12512207
5.5702963 6.715658 7.238596 -1.025477e-15 0.04999999 1.2678405e-08 0 0 0 0 0.12512207 0.12512207
5.570298 6.715662 -6.511404 -1.025477e-15 0.04999999 1.2678405e-08 0 0 0 0 0.12512207 0.21081543
-5.6797037 6.715658 7.238596 -1.025477e-15 0.04999999 1.2678405e-08 0 0 0 0 0.19519043 0.12512207
5.570298 6.715662 -6.511404 -1.025477e-15 0.04999999 1.2678405e-08 0 0 0 0 0.12512207 0.21081543
-5.679702 6.715662 -6.511405 -1.025477e-15 0.04999999 1.2678405e-08 0 0 0 0 0.19519043 0.21081543
-5.6797037 6.715658 7.238596 -1.025477e-15 0.04999999 1.2678405e-08 0 0 0 0 0.19519043 0.12512207
6.8202963 -5.7843437 8.488594 0.049999997 -8.290447e-17 4.371139e-09 0 0 0 0 0.00012207031 0.29699707
6.820298 -5.784339 -9.011408 0.049999997 -8.290447e-17 4.371139e-09 0 0 0 0 0.00012207031 0.40612793
6.8202963 7.965658 8.488598 0.049999997 -8.290447e-17 4.371139e-09 0 0 0 0 0.08581543 0.29699707
6.820298 -5.784339 -9.011408 0.049999997 -8.290447e-17 4.371139e-09 0 0 0 0 0.00012207031 0.40612793
6.820298 7.965663 -9.011404 0.049999997 -8.290447e-17 4.371139e-09 0 0 0 0 0.08581543 0.40612793
6.8202963 7.965658 8.488598 0.049999997 -8.290447e-17 4.371139e-09 0 0 0 0 0.08581543 0.29699707
-6.9297037 7.965658 8.488596 -0.049999997 8.290447e-17 -4.371139e-09 0 0 0 0 0.17199707 0.29699707
-6.929702 7.965663 -9.011406 -0.049999997 8.290447e-17 -4.371139e-09 0 0 0 0 0.17199707 0.40612793
-6.9297037 -5.7843437 8.488592 -0.049999997 8.290447e-17 -4.371139e-09 0 0 0 0 0.25769043 0.29699707
-6.929702 7.965663 -9.011406 -0.049999997 8.290447e-17 -4.371139e-09 0 0 0 0 0.17199707 0.40612793
-6.929702 -5.784339 -9.011409 -0.049999997 8.290447e-17 -4.371139e-09 0 0 0 0 0.25769043 0.40612793
-6.9297037 -5.7843437 8.488592 -0.049999997 8.290447e-17 -4.371139e-09 0 0 0 0 0.25769043 0.29699707
-6.9297037 7.965658 8.488596 -4.3711386e-09 -1.2678405e-08 0.04999999 0 0 0 0 0.17175293 0.29675293
-6.9297037 -5.7843437 8.488592 -4.3711386e-09 -1.2678405e-08 0.04999999 0 0 0 0 0.17175293 0.21105957
6.8202963 7.965658 8.488598 -4.3711386e-09 -1.2678405e-08 0.04999999 0 0 0 0 0.08605957 0.29675293
-6.9297037 -5.7843437 8.488592 -4.3711386e-09 -1.2678405e-08 0.04999999 0 0 0 0 0.17175293 0.21105957
6.8202963 -5.7843437 8.488594 -4.3711386e-09 -1.2678405e-08 0.04999999 0 0 0 0 0.08605957 0.21105957
6.8202963 7.965658 8.488598 -4.3711386e-09 -1.2678405e-08 0.04999999 0 0 0 0 0.08605957 0.29675293
-6.929702 -5.784339 -9.011409 4.3711386e-09 1.2678405e-08 -0.04999999 0 0 0 0 0.25769043 0.21105957
-6.929702 7.965663 -9.011406 4.3711386e-09 1.2678405e-08 -0.04999999 0 0 0 0 0.25769043 0.29675293
6.820298 -5.784339 -9.011408 4.3711386e-09 1.2678405e-08 -0.04999999 0 0 0 0 0.17199707 0.21105957
-6.929702 7.965663 -9.011406 4.3711386e-09 1.2678405e-08 -0.04999999 0 0 0 0 0.25769043 0.29675293
6.820298 7.965663 -9.011404 4.3711386e-09 1.2678405e-08 -0.04999999 0 0 0 0 0.17199707 0.29675293
6.820298 -5.784339 -9.011408 4.3711386e-09 1.2678405e-08 -0.04999999 0 0 0 0 0.17199707 0.21105957
-6.9297037 -5.7843437 8.488592 1.025477e-15 -0.04999999 -1.2678405e-08 0 0 0 0 0.25793457 0.29699707
-6.929702 -5.784339 -9.011409 1.025477e-15 -0.04999999 -1.2678405e-08 0 0 0 0 0.25793457 0.40612793
6.8202963 -5.7843437 8.488594 1.025477e-15 -0.04999999 -1.2678405e-08 0 0 0 0 0.34362793 0.29699707
-6.929702 -5.784339 -9.011409 1.025477e-15 -0.04999999 -1.2678405e-08 0 0 0 0 0.25793457 0.40612793
6.820298 -5.784339 -9.011408 1.025477e-15 -0.04999999 -1.2678405e-08 0 0 0 0 0.34362793 0.40612793
6.8202963 -5.7843437 8.488594 1.025477e-15 -0.04999999 -1.2678405e-08 0 0 0 0 0.34362793 0.29699707
6.8202963 7.965658 8.488598 -1.025477e-15 0.04999999 1.2678405e-08 0 0 0 0 0.08605957 0.29699707
6.820298 7.965663 -9.011404 -1.025477e-15 0.04999999 1.2678405e-08 0 40 24 0 0.08605957 0.40612793
-6.9297037 7.965658 8.488596 -1.025477e-15 0.04999999 1.2678405e-08 0 0 0 0 0.17175293 0.29699707
6.820298 7.965663 -9.011404 -1.025477e-15 0.04999999 1.2678405e-08 0 0 0 0 0.08605957 0.40612793
-6.929702 7.965663 -9.011406 -1.025477e-15 0.04999999 1.2678405e-08 0 0 0 0 0.17175293 0.40612793
-6.9297037 7.965658 8.488596 -1.025477e-15 0.04999999 1.2678405e-08 0 0 0 0 0.17175293 0.29699707
6.5023756 6.9315677 1.8274243 -6.7179418e-09 0.049999993 5.960464e-09 14 0 0 0 0.26574707 0.02355957
19.002377 6.931569 1.8274255 -6.7179418e-09 0.049999993 5.960464e-09 0 0 0 77 0.26574707 0.10144043
6.5023756 6.931568 -1.9225755 -6.7179413e-09 0.04999999 5.9604637e-09 0 0 0 0 0.28894043 0.02355957
19.002377 6.931569 1.8274255 -6.7179413e-09 0.04999999 5.9604637e-09 0 0 63 0 0.26574707 0.10144043
19.002377 6.93157 -1.9225745 -6.7179418e-09 0.049999993 5.960464e-09 0 0 0 0 0.28894043 0.10144043
6.5023756 6.931568 -1.9225755 -6.7179418e-09 0.049999993 5.960464e-09 0 15 0 0 0.28894043 0.02355957
6.5023766 3.1815677 -1.922576 6.7179418e-09 -0.049999993 -5.960464e-09 0 0 0 0 0.31262207 0.02355957
19.002377 3.1815693 -1.922575 6.7179418e-09 -0.049999993 -5.960464e-09 0 0 0 0 0.31262207 0.10144043
6.5023756 3.1815672 1.8274238 6.7179413e-09 -0.04999999 -5.9604637e-09 0 0 0 0 0.33581543 0.02355957
19.002377 3.1815693 -1.922575 6.7179413e-09 -0.04999999 -5.9604637e-09 0 0 0 0 0.31262207 0.10144043
19.002377 3.1815689 1.827425 6.7179418e-09 -0.049999993 -5.960464e-09 0 0 0 0 0.33581543 0.10144043
6.5023756 3.1815672 1.8274238 6.7179418e-09 -0.049999993 -5.960464e-09 192 0 0 0 0.33581543 0.02355957
6.5023766 3.1815677 -1.922576 -0.049999993 -6.7179418e-09 -4.37114e-09 0 0 0 0 0.31237793 0.02331543
6.5023756 3.1815672 1.8274238 -0.049999993 -6.7179418e-09 -4.37114e-09 0 0 0 0 0.31237793 0.00012207031
6.5023756 6.931568 -1.9225755 -0.049999993 -6.7179418e-09 -4.37114e-09 0 0 0 0 0.28918457 0.02331543
6.5023756 3.1815672 1.8274238 -0.049999993 -6.7179418e-09 -4.37114e-09 0 0 0 0 0.31237793 0.00012207031
6.5023756 6.9315677 1.8274243 -0.049999993 -6.7179418e-09 -4.37114e-09 0 0 0 0 0.28918457 0.00012207031
6.5023756 6.931568 -1.9225755 -0.049999993 -6.7179418e-09 -4.37114e-09 0 0 0 0 0.28918457 0.02331543
19.002377 3.1815689 1.827425 0.049999993 6.7179418e-09 4.37114e-09 0 0 0 0 0.33581543 0.00012207031
19.002377 3.1815693 -1.922575 0.049999993 6.7179418e-09 4.37114e-09 0 0 0 0 0.33581543 0.02331543
19.002377 6.931569 1.8274255 0.049999993 6.7179418e-09 4.37114e-09 0 0 0 0 0.31262207 0.00012207031
19.002377 3.1815693 -1.922575 0.049999993 6.7179418e-09 4.37114e-09 0 0 0 0 0.33581543 0.02331543
19.002377 6.93157 -1.9225745 0.049999993 6.7179418e-09 4.37114e-09 0 0 0 0 0.31262207 0.02331543
19.002377 6.931569 1.8274255 0.049999993 6.7179418e-09 4.37114e-09 0 0 0 0 0.31262207 0.00012207031
6.5023756 3.1815672 1.8274238 -4.3711395e-09 -5.960465e-09 0.05 0 1 0 0 0.33605957 0.02355957
19.002377 3.1815689 1.827425 -4.3711395e-09 -5.960465e-09 0.05 0 0 0 0 0.33605957 0.10144043
6.5023756 6.9315677 1.8274243 -4.371139e-09 -5.9604646e-09 0.049999997 0 255 255 255 0.35925293 0.02355957
19.002377 3.1815689 1.827425 -4.371139e-09 -5.9604646e-09 0.049999997 255 255 255 0 0.33605957 0.10144043
19.002377 6.931569 1.8274255 -4.3711395e-09 -5.960465e-09 0.05 0 0 0 0 0.35925293 0.10144043
6.5023756 6.9315677 1.8274243 -4.3711395e-09 -5.960465e-09 0.05 0 0 0 0 0.35925293 0.02355957
6.5023756 6.931568 -1.9225755 4.3711395e-09 5.960465e-09 -0.05 0 0 0 0 0.28918457 0.02355957
19.002377 6.93157 -1.9225745 4.3711395e-09 5.960465e-09 -0.05 0 0 0 0 0.28918457 0.10144043
6.5023766 3.1815677 -1.922576 4.371139e-09 5.9604646e-09 -0.049999997 0 0 0 0 0.31237793 0.02355957
19.002377 6.93157 -1.9225745 4.371139e-09 5.9604646e-09 -0.049999997 0 0 0 0 0.28918457 0.10144043
19.002377 3.1815693 -1.922575 4.3711395e-09 5.960465e-09 -0.05 0 0 0 0 0.31237793 0.10144043
6.5023766 3.1815677 -1.922576 4.3711395e-09 5.960465e-09 -0.05 0 0 0 0 0.31237793 0.02355957
4.3526454 -12.873193 1.2606058 0.05 -8.290453e-17 4.3711395e-09 0 0 0 0 0.34387207 0.28918457
4.3526454 -20.373194 1.2606049 0.05 -8.290453e-17 4.3711395e-09 0 0 0 0 0.34387207 0.33581543
4.3526454 -12.873192 -2.4893937 0.05 -8.290453e-17 4.3711395e-09 0 0 0 0 0.36706543 0.28918457
4.3526454 -20.373194 1.2606049 0.05 -8.290453e-17 4.3711395e-09 0 0 0 0 0.34387207 0.33581543
4.3526454 -20.373192 -2.4893947 0.05 -8.290453e-17 4.3711395e-09 0 0 0 0 0.36706543 0.33581543
4.3526454 -12.873192 -2.4893937 0.05 -8.290453e-17 4.3711395e-09 0 0 0 0 0.36706543 0.28918457
0.6026455 -12.873192 -2.4893942 -0.05 8.290453e-17 -4.3711395e-09 0 0 0 0 0.39074707 0.28918457
0.6026455 -20.373192 -2.4893951 -0.05 8.290453e-17 -4.3711395e-09 0 0 0 0 0.39074707 0.33581543
0.60264516 -12.873193 1.2606058 -0.05 8.290453e-17 -4.3711395e-09 0 0 0 0 0.41394043 0.28918457
0.6026455 -20.373192 -2.4893951 -0.05 8.290453e-17 -4.3711395e-09 0 0 0 0 0.39074707 0.33581543
0.60264516 -20.373194 1.2606049 -0.05 8.290453e-17 -4.3711395e-09 0 0 0 0 0.41394043 0.33581543
0.60264516 -12.873193 1.2606058 -0.05 8.290453e-17 -4.3711395e-09 0 0 0 0 0.41394043 0.28918457
0.6026455 -12.873192 -2.4893942 -4.3817597e-16 0.05 5.960465e-09 0 0 0 0 0.39050293 0.28894043
0.60264516 -12.873193 1.2606058 -4.3817597e-16 0.05 5.960465e-09 0 0 0 0 0.39050293 0.26574707
4.3526454 -12.873192 -2.4893937 -4.3817597e-16 0.05 5.960465e-09 0 0 0 0 0.36730957 0.28894043
0.60264516 -12.873193 1.2606058 -4.3817597e-16 0.05 5.960465e-09 0 0 0 0 0.39050293 0.26574707
4.3526454 -12.873193 1.2606058 -4.3817597e-16 0.05 5.960465e-09 0 0 0 0 0.36730957 0.26574707
4.3526454 -12.873192 -2.4893937 -4.3817597e-16 0.05 5.960465e-09 0 0 0 0 0.36730957 0.28894043
0.60264516 -20.373194 1.2606049 4.3817597e-16 -0.05 -5.960465e-09 0 0 0 0 0.41394043 0.26574707
0.6026455 -20.373192 -2.4893951 4.3817597e-16 -0.05 -5.960465e-09 0 0 0 0 0.41394043 0.28894043
4.3526454 -20.373194 1.2606049 4.3817597e-16 -0.05 -5.960465e-09 0 0 0 0 0.39074707 0.26574707
0.6026455 -20.373192 -2.4893951 4.3817597e-16 -0.05 -5.960465e-09 0 0 0 0 0.41394043 0.28894043
4.3526454 -20.373192 -2.4893947 4.3817597e-16 -0.05 -5.960465e-09 0 0 0 0 0.39074707 0.28894043
4.3526454 -20.373194 1.2606049 4.3817597e-16 -0.05 -5.960465e-09 0 0 0 0 0.39074707 0.26574707
0.60264516 -12.873193 1.2606058 -4.3711395e-09 -5.960465e-09 0.05 0 0 0 0 0.41418457 0.28918457
0.60264516 -20.373194 1.2606049 -4.3711395e-09 -5.960465e-09 0.05 0 0 0 0 0.41418457 0.33581543
4.3526454 -12.873193 1.2606058 -4.3711395e-09 -5.960465e-09 0.05 0 0 0 0 0.43737793 0.28918457
0.60264516 -20.373194 1.2606049 -4.3711395e-09 -5.960465e-09 0.05 0 0 0 0 0.41418457 0.33581543
4.3526454 -20.373194 1.2606049 -4.3711395e-09 -5.960465e-09 0.05 0 0 0 0 0.43737793 0.33581543
4.3526454 -12.873193 1.2606058 -4.3711395e-09 -5.960465e-09 0.05 54 0 0 0 0.43737793 0.28918457
4.3526454 -12.873192 -2.4893937 4.3711395e-09 5.960465e-09 -0.05 0 0 0 0 0.36730957 0.28918457
4.3526454 -20.373192 -2.4893947 4.3711395e-09 5.960465e-09 -0.05 0 0 0 0 0.36730957 0.33581543
0.6026455 -12.873192 -2.4893942 4.3711395e-09 5.960465e-09 -0.05 0 0 0 0 0.39050293 0.28918457
4.3526454 -20.373192 -2.4893947 4.3711395e-09 5.960465e-09 -0.05 0 0 0 0 0.36730957 0.33581543
0.6026455 -20.373192 -2.4893951 4.3711395e-09 5.960465e-09 -0.05 0 0 0 0 0.39050293 0.33581543
0.6026455 -12.873192 -2.4893942 4.3711395e-09 5.960465e-09 -0.05 0 0 0 0 0.39050293 0.28918457
-0.6473548 -12.873193 1.2606058 0.05 -8.290453e-17 4.3711395e-09 0 0 0 0 0.34387207 0.35949707
-0.6473548 -20.373194 1.2606049 0.05 -8.290453e-17 4.3711395e-09 0 0 0 0 0.34387207 0.40612793
-0.64735454 -12.873192 -2.4893942 0.05 -8.290453e-17 4.3711395e-09 0 0 0 0 0.36706543 0.35949707
-0.6473548 -20.373194 1.2606049 0.05 -8.290453e-17 4.3711395e-09 0 0 0 0 0.34387207 0.40612793
-0.64735454 -20.373192 -2.4893951 0.05 -8.290453e-17 4.3711395e-09 0 0 0 0 0.36706543 0.40612793
-0.64735454 -12.873192 -2.4893942 0.05 -8.290453e-17 4.3711395e-09 0 0 0 0 0.36706543 0.35949707
-4.3973546 -12.873192 -2.4893947 -0.05 8.290453e-17 -4.3711395e-09 0 0 0 0 0.39074707 0.35949707
-4.3973546 -20.373192 -2.4893956 -0.05 8.290453e-17 -4.3711395e-09 0 0 0 0 0.39074707 0.40612793
-4.397355 -12.873193 1.2606058 -0.05 8.290453e-17 -4.3711395e-09 0 0 0 0 0.41394043 0.35949707
-4.3973546 -20.373192 -2.4893956 -0.05 8.290453e-17 -4.3711395e-09 0 0 0 0 0.39074707 0.40612793
-4.397355 -20.373194 1.2606049 -0.05 8.290453e-17 -4.3711395e-09 0 0 0 0 0.41394043 0.40612793
-4.397355 -12.873193 1.2606058 -0.05 8.290453e-17 -4.3711395e-09 0 0 0 0 0.41394043 0.35949707
-4.3973546 -12.873192 -2.4893947 -4.3817597e-16 0.05 5.960465e-09 0 0 0 0 0.39050293 0.35925293
-4.397355 -12.873193 1.2606058 -4.3817597e-16 0.05 5.960465e-09 0 0 0 0 0.39050293 0.33605957
-0.64735454 -12.873192 -2.4893942 -4.3817597e-16 0.05 5.960465e-09 0 0 0 0 0.36730957 0.35925293
-4.397355 -12.873193 1.2606058 -4.3817597e-16 0.05 5.960465e-09 0 0 0 0 0.39050293 0.33605957
-0.6473548 -12.873193 1.2606058 -4.3817597e-16 0.05 5.960465e-09 0 0 0 0 0.36730957 0.33605957
-0.64735454 -12.873192 -2.4893942 -4.3817597e-16 0.05 5.960465e-09 0 0 0 0 0.36730957 0.35925293
-4.397355 -20.373194 1.2606049 4.3817597e-16 -0.05 -5.960465e-09 0 0 0 0 0.41394043 0.33605957
-4.3973546 -20.373192 -2.4893956 4.3817597e-16 -0.05 -5.960465e-09 0 0 0 0 0.41394043 0.35925293
-0.6473548 -20.373194 1.2606049 4.3817597e-16 -0.05 -5.960465e-09 0 0 0 0 0.39074707 0.33605957
-4.3973546 -20.373192 -2.4893956 4.3817597e-16 -0.05 -5.960465e-09 0 0 0 0 0.41394043 0.35925293
-0.64735454 -20.373192 -2.4893951 4.3817597e-16 -0.05 -5.960465e-09 0 0 0 0 0.39074707 0.35925293
-0.6473548 -20.373194 1.2606049 4.3817597e-16 -0.05 -5.960465e-09 0 0 0 0 0.39074707 0.33605957
-4.397355 -12.873193 1.2606058 -4.3711395e-09 -5.960465e-09 0.05 0 0 0 0 0.41418457 0.35949707
-4.397355 -20.373194 1.2606049 -4.3711395e-09 -5.960465e-09 0.05 54 0 0 0 0.41418457 0.40612793
-0.6473548 -12.873193 1.2606058 -4.3711395e-09 -5.960465e-09 0.05 0 0 0 0 0.43737793 0.35949707
-4.397355 -20.373194 1.2606049 -4.3711395e-09 -5.960465e-09 0.05 0 0 0 121 0.41418457 0.40612793
-0.6473548 -20.373194 1.2606049 -4.3711395e-09 -5.960465e-09 0.05 0 230 0 0 0.43737793 0.40612793
-0.6473548 -12.873193 1.2606058 -4.3711395e-09 -5.960465e-09 0.05 0 230 0 0 0.43737793 0.35949707
-0.64735454 -12.873192 -2.4893942 4.3711395e-09 5.960465e-09 -0.05 0 0 0 0 0.36730957 0.35949707
-0.64735454 -20.373192 -2.4893951 4.3711395e-09 5.960465e-09 -0.05 0 0 0 0 0.36730957 0.40612793
-4.3973546 -12.873192 -2.4893947 4.3711395e-09 5.960465e-09 -0.05 0 0 138 231 0.39050293 0.35949707
-0.64735454 -20.373192 -2.4893951 4.3711395e-09 5.960465e-09 -0.05 138 231 255 255 0.36730957 0.40612793
-4.3973546 -20.373192 -2.4893956 4.3711395e-09 5.960465e-09 -0.05 0 0 0 0 0.39050293 0.40612793
-4.3973546 -12.873192 -2.4893947 4.3711395e-09 5.960465e-09 -0.05 0 0 0 0 0.39050293 0.35949707
-6.661352 3.190944 1.8466344 -6.717941e-09 -0.049999993 -5.960465e-09 0 0 0 0 0.00012207031 0.02355957
-19.161354 3.1909456 1.8466332 -6.717941e-09 -0.049999993 -5.960465e-09 0 0 0 0 0.00012207031 0.10144043
-6.661352 3.1909444 -1.9033661 -6.7179404e-09 -0.04999999 -5.9604646e-09 0 0 0 0 0.02331543 0.02355957
-19.161354 3.1909456 1.8466332 -6.7179404e-09 -0.04999999 -5.9604646e-09 0 0 0 0 0.00012207031 0.10144043
-19.161354 3.190946 -1.903367 -6.717941e-09 -0.049999993 -5.960465e-09 0 0 0 0 0.02331543 0.10144043
-6.661352 3.1909444 -1.9033661 -6.717941e-09 -0.049999993 -5.960465e-09 0 0 0 0 0.02331543 0.02355957
-6.661352 6.9409447 -1.9033656 6.717941e-09 0.049999993 5.960465e-09 0 0 0 0 0.04699707 0.02355957
-19.161352 6.9409466 -1.9033666 6.717941e-09 0.049999993 5.960465e-09 0 0 0 0 0.04699707 0.10144043
-6.661352 6.940944 1.8466349 6.7179404e-09 0.04999999 5.9604646e-09 0 0 0 0 0.07019043 0.02355957
-19.161352 6.9409466 -1.9033666 6.7179404e-09 0.04999999 5.9604646e-09 0 0 0 0 0.04699707 0.10144043
-19.161352 6.940946 1.8466337 6.717941e-09 0.049999993 5.960465e-09 0 0 0 0 0.07019043 0.10144043
-6.661352 6.940944 1.8466349 6.717941e-09 0.049999993 5.960465e-09 0 0 0 0 0.07019043 0.02355957
-6.661352 6.9409447 -1.9033656 0.049999993 -6.7179413e-09 4.371138e-09 0 0 0 0 0.04675293 0.02331543
-6.661352 6.940944 1.8466349 0.049999993 -6.7179413e-09 4.371138e-09 0 0 0 0 0.04675293 0.00012207031
-6.661352 3.1909444 -1.9033661 0.049999993 -6.7179413e-09 4.371138e-09 0 0 0 0 0.02355957 0.02331543
-6.661352 6.940944 1.8466349 0.049999993 -6.7179413e-09 4.371138e-09 0 0 0 0 0.04675293 0.00012207031
-6.661352 3.190944 1.8466344 0.049999993 -6.7179413e-09 4.371138e-09 0 0 0 0 0.02355957 0.00012207031
-6.661352 3.1909444 -1.9033661 0.049999993 -6.7179413e-09 4.371138e-09 0 0 0 0 0.02355957 0.02331543
-19.161352 6.940946 1.8466337 -0.049999993 6.7179413e-09 -4.371138e-09 0 0 0 0 0.07019043 0.00012207031
-19.161352 6.9409466 -1.9033666 -0.049999993 6.7179413e-09 -4.371138e-09 0 0 0 0 0.07019043 0.02331543
-19.161354 3.1909456 1.8466332 -0.049999993 6.7179413e-09 -4.371138e-09 0 0 0 0 0.04699707 0.00012207031
-19.161352 6.9409466 -1.9033666 -0.049999993 6.7179413e-09 -4.371138e-09 54 0 0 0 0.07019043 0.02331543
-19.161354 3.190946 -1.903367 -0.049999993 6.7179413e-09 -4.371138e-09 0 0 0 0 0.04699707 0.02331543
-19.161354 3.1909456 1.8466332 -0.049999993 6.7179413e-09 -4.371138e-09 0 0 9 252 0.04699707 0.00012207031
-6.661352 6.940944 1.8466349 -4.3711395e-09 -5.960465e-09 0.05 34 0 9 252 0.07043457 0.02355957
-19.161352 6.940946 1.8466337 -4.3711395e-09 -5.960465e-09 0.05 45 0 0 0 0.07043457 0.10144043
-6.661352 3.190944 1.8466344 -4.371139e-09 -5.9604646e-09 0.049999997 0 0 0 0 0.09362793 0.02355957
-19.161352 6.940946 1.8466337 -4.371139e-09 -5.9604646e-09 0.049999997 0 0 0 0 0.07043457 0.10144043
-19.161354 3.1909456 1.8466332 -4.3711395e-09 -5.960465e-09 0.05 0 0 0 0 0.09362793 0.10144043
-6.661352 3.190944 1.8466344 -4.3711395e-09 -5.960465e-09 0.05 0 0 2 206 0.09362793 0.02355957
-6.661352 3.1909444 -1.9033661 4.3711395e-09 5.960465e-09 -0.05 0 0 0 0 0.02355957 0.02355957
-19.161354 3.190946 -1.903367 4.3711395e-09 5.960465e-09 -0.05 0 0 0 0 0.02355957 0.10144043
-6.661352 6.9409447 -1.9033656 4.371139e-09 5.9604646e-09 -0.049999997 0 0 0 0 0.04675293 0.02355957
-19.161354 3.190946 -1.903367 4.371139e-09 5.9604646e-09 -0.049999997 0 0 0 0 0.02355957 0.10144043
-19.161352 6.9409466 -1.9033666 4.3711395e-09 5.960465e-09 -0.05 0 0 0 0 0.04675293 0.10144043
-6.661352 6.9409447 -1.9033656 4.3711395e-09 5.960465e-09 -0.05 0 0 0 0 0.04675293 0.02355957
3 0 1 2
3 3 4 5
3 6 7 8
3 9 10 11
3 12 13 14
3 15 16 17
3 18 19 20
3 21 22 23
3 24 25 26
3 27 28 29
3 30 31 32
3 33 34 35
3 36 37 38
3 39 40 41
3 42 43 44
3 45 46 47
3 48 49 50
3 51 52 53
3 54 55 56
3 57 58 59
3 60 61 62
3 63 64 65
3 66 67 68
3 69 70 71
3 72 73 74
3 75 76 77
3 78 79 80
3 81 82 83
3 84 85 86
3 87 88 89
3 90 91 92
3 93 94 95
3 96 97 98
3 99 100 101
3 102 103 104
3 105 106 107
3 108 109 110
3 111 112 113
3 114 115 116
3 117 118 119
3 120 121 122
3 123 124 125
3 126 127 128
3 129 130 131
3 132 133 134
3 135 136 137
3 138 139 140
3 141 142 143
3 144 145 146
3 147 148 149
3 150 151 152
3 153 154 155
3 156 157 158
3 159 160 161
3 162 163 164
3 165 166 167
3 168 169 170
3 171 172 173
3 174 175 176
3 177 178 179
3 180 181 182
3 183 184 185
3 186 187 188
3 189 190 191
3 192 193 194
3 195 196 197
3 198 199 200
3 201 202 203
3 204 205 206
3 207 208 209
3 210 211 212
3 213 214 215
3 216 217 218
3 219 220 221
3 222 223 224
3 225 226 227
3 228 229 230
3 231 232 233
3 234 235 236
3 237 238 239
3 240 241 242
3 243 244 245
3 246 247 248
3 249 250 251
3 252 253 254
3 255 256 257
3 258 259 260
3 261 262 263
3 264 265 266
3 267 268 269
3 270 271 272
3 273 274 275
3 276 277 278
3 279 280 281
3 282 283 284
3 285 286 287
3 288 289 290
3 291 292 293
3 294 295 296
3 297 298 299
3 300 301 302
3 303 304 305
3 306 307 308
3 309 310 311
3 312 313 314
3 315 316 317
3 318 319 320
3 321 322 323
3 324 325 326
3 327 328 329
3 330 331 332
3 333 334 335
3 336 337 338
3 339 340 341
3 342 343 344
3 345 346 347
3 348 349 350
3 351 352 353
3 354 355 356
3 357 358 359
3 360 361 362
3 363 364 365
3 366 367 368
3 369 370 371
3 372 373 374
3 375 376 377
3 378 379 380
3 381 382 383
3 384 385 386
3 387 388 389
3 390 391 392
3 393 394 395
3 396 397 398
3 399 400 401
3 402 403 404
3 405 406 407
3 408 409 410
3 411 412 413
3 414 415 416
3 417 418 419
3 420 421 422
3 423 424 425
3 426 427 428
3 429 430 431
