ply
format ascii 1.0
comment Created in Blender version 4.0.2
element vertex 482
property float x
property float y
property float z
property float nx
property float ny
property float nz
property uchar red
property uchar green
property uchar blue
property uchar alpha
element face 538
property list uchar uint vertex_indices
end_header
-9.706858 23.381155 -3.6383092 -0.2731787 0.91693974 -0.29085198 40 102 42 255
-7.424875 23.589254 -5.125589 -0.2731791 0.9169405 -0.29084906 40 102 42 255
-9.764109 21.8004 -7.01259 -0.3354234 0.8552692 -0.39497533 40 102 42 255
-10.270216 21.75424 -6.6827397 -0.33542284 0.85526884 -0.39497676 40 102 42 255
-8.615113 24.404837 -0.26168972 -0.112270966 0.99311906 -0.03331387 40 102 42 255
-4.915756 24.742167 -2.6727443 -0.11227122 0.99311906 -0.033312887 40 102 42 255
-6.725564 24.044655 3.0559506 0.09242021 0.95679945 0.2756688 40 102 42 255
-2.5997658 24.420876 0.36694586 0.09242005 0.9567997 0.27566797 40 102 42 255
-4.544514 22.397154 5.4256253 0.24476688 0.8352367 0.49241114 40 102 42 255
-1.0974932 22.711472 3.179026 0.24476711 0.8352369 0.49241072 40 102 42 255
-1.5553164 20.344463 6.470879 0.31149045 0.75044066 0.5829343 40 102 42 255
-1.068007 20.388905 6.153275 0.31149226 0.7504425 0.5829311 40 102 42 255
-1.8587711 18.69213 19.558695 -0.12285024 0.71727866 0.685871 40 102 42 255
-4.5595875 18.614899 19.155704 -0.12285012 0.71727866 0.6858713 40 102 42 255
-3.7384079 16.02208 21.354736 -0.13344322 0.616111 0.77627313 40 102 42 255
-3.1394157 16.039196 21.44412 -0.13344458 0.61611086 0.7762731 40 102 42 255
-0.6687667 20.962337 16.899496 -0.09010402 0.89740914 0.43190035 40 102 42 255
-5.047116 20.837149 16.246187 -0.090105094 0.89740866 0.43190128 40 102 42 255
0.097405985 22.016891 13.29288 -0.039882362 0.9962803 0.0763872 40 102 42 255
-4.785633 21.877285 12.56427 -0.03988242 0.9962803 0.07638713 40 102 42 255
0.23446016 21.573248 9.70524 0.0035696665 0.97743106 -0.21122412 40 102 42 255
-3.845226 21.4566 9.096511 0.0035705755 0.9774309 -0.21122505 40 102 42 255
-1.0232892 20.374928 6.3551044 0.024637451 0.93832314 -0.3448805 40 102 42 255
-1.6000371 20.35844 6.269047 0.024633443 0.9383236 -0.3448794 40 102 42 255
11.846667 19.250645 8.358856 0.6328387 0.74203503 0.22113173 40 102 42 255
11.138369 19.070297 10.991056 0.6328394 0.74203444 0.22113156 40 102 42 255
13.536188 16.602503 10.36404 0.7260361 0.64459026 0.23953077 40 102 42 255
13.693281 16.642492 9.780271 0.7260362 0.64458954 0.23953214 40 102 42 255
9.239688 21.440252 6.926855 0.37622023 0.91195095 0.16371925 40 102 42 255
8.091427 21.1479 11.193975 0.37621975 0.91195124 0.16371864 40 102 42 255
5.700484 22.36149 5.772688 0.024665697 0.99688315 0.07493717 40 102 42 255
4.419855 22.035435 10.531695 0.024664981 0.9968832 0.07493712 40 102 42 255
2.1773639 21.76751 5.205611 -0.25480482 0.96698964 -0.0023159785 40 102 42 255
1.1074287 21.495104 9.181665 -0.2548047 0.96698976 -0.0023155618 40 102 42 255
-1.2360343 20.38594 6.031028 -0.38315398 0.9228234 -0.039872333 40 102 42 255
-1.3872935 20.347427 6.593126 -0.3831551 0.92282283 -0.03987691 40 102 42 255
2.6250522 24.385508 -5.809304 0.1643157 0.94280124 -0.29004514 40 102 42 255
5.1290836 24.28359 -4.722014 0.16431656 0.94280094 -0.29004553 40 102 42 255
5.2834625 22.803139 -7.8870144 0.21228962 0.8890915 -0.4055236 40 102 42 255
4.7281184 22.825756 -8.128154 0.21228246 0.88909334 -0.40552315 40 102 42 255
0.48720473 25.2804 -2.9335194 0.043574244 0.9990277 -0.006707359 40 102 42 255
4.5465436 25.115183 -1.1708844 0.043573618 0.9990276 -0.006706576 40 102 42 255
-1.2727072 24.698675 0.42373583 -0.10484428 0.9383466 0.3294138 40 102 42 255
3.2545614 24.514406 2.389546 -0.10484476 0.9383465 0.329414 40 102 42 255
-2.183115 22.796225 3.3628657 -0.21163338 0.7993756 0.5623254 40 102 42 255
1.5993259 22.642271 5.005261 -0.21163437 0.79937536 0.5623255 40 102 42 255
-1.5790244 20.37757 6.195985 -0.25716826 0.7072031 0.65858054 40 102 42 255
-1.0443006 20.355795 6.4281697 -0.25717524 0.7072009 0.6585802 40 102 42 255
-14.605312 19.338005 7.20489 -0.62310374 0.67112476 0.40166315 40 102 42 255
-14.59097 20.750675 4.8667502 -0.62310433 0.67112494 0.40166202 40 102 42 255
-16.896633 18.14373 4.51947 -0.72352517 0.59278953 0.35371166 40 102 42 255
-16.899818 17.83043 5.03802 -0.72352475 0.59278876 0.35371363 40 102 42 255
-11.598123 20.570814 8.959411 -0.35071576 0.8024922 0.48270547 40 102 42 255
-11.574878 22.86093 5.1690125 -0.35071594 0.8024922 0.48270538 40 102 42 255
-7.834617 21.0136 9.54825 0.016251897 0.85575086 0.5171327 40 102 42 255
-7.8086953 23.5677 5.3209143 0.016251912 0.8557506 0.5171331 40 102 42 255
-4.323213 20.547716 8.81361 0.303894 0.8146031 0.49403456 40 102 42 255
-4.3015585 22.681608 5.281761 0.30389452 0.8146026 0.49403507 40 102 42 255
-1.3131924 20.215853 6.561727 0.43471465 0.76962763 0.4676499 40 102 42 255
-1.3101324 20.517515 6.0624256 0.4347193 0.7696225 0.46765417 40 102 42 255
-6.8825 19.756601 15.165285 -0.5141504 0.65737605 0.5509138 40 102 42 255
-8.495096 19.617214 13.826625 -0.51414967 0.65737677 0.5509137 40 102 42 255
-8.659421 17.53743 15.523546 -0.5613075 0.54937315 0.6189694 40 102 42 255
-8.301767 17.568346 15.820441 -0.5613079 0.549373 0.61896914 40 102 42 255
-5.194473 21.69248 13.953795 -0.37070554 0.8572714 0.3573 40 102 42 255
-7.808698 21.466509 11.783656 -0.37070572 0.85727125 0.3572999 40 102 42 255
-3.3366904 22.73527 11.915206 -0.15376595 0.98463994 0.08270581 40 102 42 255
-6.252272 22.483252 9.494911 -0.15376692 0.98463976 0.08270603 40 102 42 255
-1.8069358 22.60556 9.59574 0.032148976 0.9893808 -0.14174671 40 102 42 255
-4.242849 22.395008 7.5736375 0.03214774 0.9893809 -0.1417463 40 102 42 255
-1.2409468 21.831022 6.857273 0.12174785 0.9613993 -0.2467566 40 102 42 255
-1.5853115 21.801262 6.5714064 0.12174234 0.9614001 -0.24675626 40 102 42 255
5.490584 24.957985 13.645576 -0.025740037 0.85317796 0.5209843 40 102 42 255
4.1831884 24.072662 15.030809 -0.025739947 0.8531781 0.52098423 40 102 42 255
6.6864576 23.34035 15.6860695 0.080707245 0.8035602 0.5897264 40 102 42 255
6.976404 23.536692 15.378857 0.080706805 0.8035581 0.58972955 40 102 42 255
3.7510836 25.854292 11.587531 -0.2663673 0.9063884 0.32788503 40 102 42 255
1.6316273 24.419075 13.833166 -0.26636785 0.90638846 0.32788423 40 102 42 255
1.881805 25.545135 9.328126 -0.5171774 0.85393476 0.05764478 40 102 42 255
-0.4819581 23.944479 11.832631 -0.51717734 0.8539348 0.057644837 40 102 42 255
0.38363165 24.11336 7.4727774 -0.66461414 0.72964776 -0.16094153 40 102 42 255
-1.5912415 22.776049 9.565231 -0.6646142 0.7296477 -0.1609412 40 102 42 255
-1.2735336 21.910679 6.5664334 -0.7160964 0.6467609 -0.2625003 40 102 42 255
-1.5527236 21.72162 6.862247 -0.71609575 0.64676064 -0.26250258 40 102 42 255
6.1219087 25.550562 0.8108108 0.32660645 0.9449262 -0.021033855 40 102 42 255
7.330322 25.170177 2.4862208 0.326605 0.94492686 -0.021034982 40 102 42 255
8.6499815 24.297512 0.311611 0.42539346 0.89916414 -0.10268416 40 102 42 255
8.381987 24.381866 -0.059969276 0.4253955 0.8991634 -0.10268258 40 102 42 255
3.597538 26.170513 1.9544708 0.07871391 0.9829138 0.1663865 40 102 42 255
5.556503 25.553864 4.670521 0.07871525 0.9829138 0.16638632 40 102 42 255
1.0862992 25.5965 3.389341 -0.22463693 0.90270376 0.36696628 40 102 42 255
3.2710972 24.908783 6.418489 -0.22463572 0.9027042 0.36696613 40 102 42 255
-0.738905 23.982346 4.7309704 -0.4418944 0.75180423 0.48940745 40 102 42 255
1.0864418 23.407764 7.2617517 -0.44189548 0.75180376 0.48940715 40 102 42 255
-1.5421548 21.856762 6.535451 -0.53421706 0.6552703 0.53407204 40 102 42 255
-1.2841024 21.77554 6.89323 -0.5342139 0.6552711 0.53407407 40 102 42 255
-2.512645 26.870075 -2.163899 -0.11102679 0.98739296 -0.11281912 40 102 42 255
-0.4312308 27.119263 -2.0313442 -0.111026034 0.98739296 -0.11281957 40 102 42 255
-1.0103765 26.412846 -4.560689 -0.099715255 0.9640224 -0.2464097 40 102 42 255
-1.4719878 26.357584 -4.5900893 -0.099717565 0.9640225 -0.24640785 40 102 42 255
-3.3381531 26.82159 0.55290073 -0.12899275 0.9714036 0.19933902 40 102 42 255
0.0360851 27.225563 0.7677761 -0.12899218 0.97140366 0.19933827 40 102 42 255
-3.5741553 25.694672 3.2674809 -0.13382453 0.8287889 0.5433233 40 102 42 255
0.18903114 26.145208 3.5071359 -0.13382494 0.8287884 0.54332376 40 102 42 255
-3.1574385 23.791286 5.2524996 -0.12463203 0.6358854 0.76165396 40 102 42 255
-0.013373494 24.167694 5.4527197 -0.12463303 0.6358846 0.7616543 40 102 42 255
-1.6353675 21.789536 6.700188 -0.116336524 0.52244186 0.84470135 40 102 42 255
-1.1908904 21.842749 6.7284937 -0.116337866 0.52244 0.84470236 40 102 42 255
-10.717879 24.93724 3.6721957 -0.42830563 0.8804108 0.20354602 40 102 42 255
-9.665604 25.816948 2.0813558 -0.42830545 0.88041097 0.20354606 40 102 42 255
-11.835008 24.603817 1.0546803 -0.5264434 0.8420641 0.11741072 40 102 42 255
-12.068379 24.408724 1.4074955 -0.5264453 0.84206235 0.11741545 40 102 42 255
-8.862963 25.04469 5.8198686 -0.17476417 0.9060386 0.38542375 40 102 42 255
-7.157084 26.470806 3.2409158 -0.17476396 0.90603846 0.3854243 40 102 42 255
-6.415751 24.312712 7.2929583 0.14749834 0.8209917 0.5515585 40 102 42 255
-4.513231 25.903221 4.4167213 0.14749846 0.8209917 0.5515587 40 102 42 255
-4.031971 22.937428 7.6967564 0.38715863 0.67421633 0.6289202 40 102 42 255
-2.4424543 24.266262 5.293723 0.38715875 0.67421603 0.62892056 40 102 42 255
-1.5254824 21.722221 6.884201 0.49206227 0.5820754 0.6473507 40 102 42 255
-1.3007722 21.910078 6.5444803 0.49206227 0.58207256 0.64735323 40 102 42 255
0.3508591 1.3804874 1.6399192 0.16399245 0.32184318 0.9324825 140 112 69 255
0.2399075 1.5952287 1.3817391 -0.013433096 0.76646084 0.6421505 140 112 69 255
-0.07803619 1.5608714 1.3913543 -0.11876392 0.75582796 0.6439093 140 112 69 255
-0.11088431 1.3310363 1.6555192 -0.15085451 0.31042942 0.9385502 140 112 69 255
-0.86748594 1.448552 1.234244 -0.7235242 0.292072 0.6254651 141 113 69 255
-0.60006404 1.643005 1.1058743 -0.29061005 0.7668428 0.57227427 140 112 69 255
-0.69003147 1.7491391 0.9113091 -0.39165193 0.8696445 0.3005447 140 112 69 255
-0.9964584 1.600137 0.9415792 -0.88140565 0.42745292 0.20101768 141 113 69 255
-0.5955595 1.8182096 0.52915424 -0.39315438 0.9193258 -0.016418345 141 113 69 255
-0.86054844 1.7022425 0.3945744 -0.82664883 0.46087587 -0.3228699 180 143 89 255
-0.36637992 1.8778539 0.22676915 -0.2876697 0.9479869 -0.13626039 142 114 70 255
-0.52902234 1.790505 -0.03723085 -0.5770245 0.49119416 -0.6525114 179 143 89 255
-0.057718232 1.9185779 0.090794116 -0.106145136 0.97436875 -0.1983403 142 114 70 255
-0.08151814 1.8504167 -0.23131594 -0.14295717 0.5278868 -0.83719695 142 114 70 255
0.2619186 1.9277189 0.13849407 0.104999304 0.9803651 -0.16691147 142 114 70 255
0.38241303 1.8636837 -0.16209081 0.34809953 0.54442924 -0.76316667 148 119 73 255
0.51927453 1.9031739 0.35891935 0.26263714 0.9633764 -0.05410871 140 112 69 255
0.75645447 1.827271 0.15457436 0.7108382 0.5342242 -0.4575081 148 119 73 255
0.65323436 1.8539196 0.71548414 0.31866577 0.947801 0.0112020355 140 112 69 255
0.95201457 1.754061 0.6650242 0.83673495 0.4863539 -0.2516634 148 119 73 255
0.95201457 1.754061 0.6650242 0.84254265 0.5238081 0.12548597 140 112 69 255
0.65323436 1.8539196 0.71548414 0.34102938 0.9235894 0.1751618 140 112 69 255
0.6358355 1.7870405 1.109144 0.23789932 0.89125514 0.38609368 140 112 69 255
0.9279283 1.6551528 1.2287245 0.7595062 0.47793415 0.44128108 140 112 69 255
0.4991126 1.674427 1.2698842 0.059143562 0.77989584 0.62310857 140 112 69 255
0.72789025 1.4941738 1.4722941 0.48748162 0.3326025 0.8073024 140 112 69 255
-1.7138572 20.439407 7.0010567 -0.06735138 0.96137995 0.2668563 140 112 69 255
-1.4691688 20.429379 7.0989428 -0.06728273 0.9614121 0.26675823 140 112 69 255
-1.2075344 20.453884 7.0766077 -0.06729441 0.9614023 0.26679006 140 112 69 255
-0.98888665 20.507332 6.9391685 -0.06730225 0.9613899 0.26683316 140 112 69 255
-0.8633124 20.577478 6.718114 -0.06730474 0.96138906 0.2668356 140 112 69 255
-0.8595836 20.648245 6.4640827 -0.06730927 0.9613931 0.26681957 140 112 69 255
-0.9785544 20.703415 6.2352695 -0.06730869 0.9613939 0.26681688 140 112 69 255
-1.1929686 20.730362 6.0840936 -0.06731554 0.96139467 0.2668123 140 112 69 255
-1.4537079 20.722897 6.0451894 -0.067316614 0.9613973 0.2668029 140 112 69 255
-1.7010359 20.682756 6.127466 -0.06726558 0.9613929 0.26683185 140 112 69 255
-1.8782955 20.619116 6.312077 -0.067271955 0.9613919 0.26683325 140 112 69 255
-1.9448836 20.546547 6.5567303 -0.067365415 0.9613867 0.2668289 140 112 69 255
-1.885537 20.481695 6.8053775 -0.06730733 0.9613936 0.26681823 140 112 69 255
-0.38076907 1.5774769 1.2891291 -0.22077627 0.75881916 0.6127409 140 112 69 255
-0.5500243 1.3547301 1.5055043 -0.45120367 0.29902595 0.84083205 141 112 69 255
-0.014555678 -0.6230235 1.3843341 0.06729018 -0.9614132 -0.26675227 140 112 69 255
-0.31450891 -0.6107265 1.2643491 0.06730018 -0.9613978 -0.266805 140 112 69 255
-0.52496463 -0.5588874 1.0244693 0.06731131 -0.96138686 -0.26684138 140 112 69 255
-0.59770995 -0.47937423 0.7196541 0.06729669 -0.9613928 -0.26682362 140 112 69 255
-0.5160923 -0.3904277 0.41974425 0.067292534 -0.96139544 -0.26681548 140 112 69 255
-0.29879183 -0.3124112 0.19343913 0.06728653 -0.9613964 -0.26681364 140 112 69 255
0.004400611 -0.2632025 0.09257913 0.06728817 -0.96139693 -0.26681134 140 112 69 255
0.3240379 -0.25406152 0.14026433 0.067298554 -0.961396 -0.266812 140 112 69 255
0.5868774 -0.2870947 0.32558933 0.06729772 -0.9613954 -0.26681414 140 112 69 255
0.7327122 -0.35473555 0.60608894 0.06729854 -0.96139616 -0.26681137 140 112 69 255
0.7281426 -0.44146925 0.91748893 0.06733998 -0.9613987 -0.26679158 140 112 69 255
0.5742156 -0.52745014 1.1884792 0.06735145 -0.9614045 -0.26676816 140 112 69 255
0.30618176 -0.5929783 1.3569591 0.06730435 -0.9613975 -0.26680502 140 112 69 255
-0.43089485 19.471525 6.8214784 0.69792974 -0.21183677 0.6841193 141 112 69 255
-0.98888665 20.507332 6.9391685 0.6282749 0.23794688 0.74071044 141 113 70 255
-1.2075344 20.453884 7.0766077 0.28274786 0.0640569 0.95705295 141 113 70 255
-0.88545966 19.357052 7.0614066 0.31100383 -0.3639988 0.8779416 141 113 70 255
-0.18025428 19.622684 6.452723 0.95010597 0.017753147 0.31142172 141 112 69 255
-0.8633124 20.577478 6.718114 0.80536526 0.4489689 0.38705802 141 113 70 255
-0.16135052 19.770084 5.842313 0.998218 0.041173663 0.04319242 141 112 69 255
-0.8595836 20.648245 6.4640827 0.8235377 0.54371786 0.1617303 141 113 70 255
-0.4026197 19.884691 5.2907286 0.766806 0.3769466 -0.51953804 180 144 89 255
-0.9785544 20.703415 6.2352695 0.5778656 0.7548475 -0.31028444 148 121 74 255
-0.8595836 20.648245 6.4640827 0.69573975 0.69130015 -0.1950648 141 113 70 255
-0.16135052 19.770084 5.842313 0.87721014 0.3664111 -0.31023404 190 151 94 255
-0.8511152 19.940716 4.939831 0.36503723 0.4793297 -0.79811716 165 131 81 255
-1.1929686 20.730362 6.0840936 0.24717517 0.8281871 -0.50300163 148 120 74 255
-1.4022275 19.924961 4.8576 -0.1399001 0.46656924 -0.87335044 141 113 70 255
-1.4537079 20.722897 6.0451894 -0.13178116 0.8201444 -0.5567736 148 120 73 255
-1.9297084 19.841024 5.0628757 -0.60072964 0.3412245 -0.7229729 141 113 70 255
-1.7010359 20.682756 6.127466 -0.49940005 0.7306648 -0.46554133 148 120 73 255
-2.3145773 19.708508 5.521025 -0.8971092 0.15794662 -0.41261107 142 113 70 255
-1.8782955 20.619116 6.312077 -0.7831386 0.57900006 -0.22683251 156 125 77 255
-2.466337 19.557323 6.1116095 -0.9991582 -0.037417516 0.016817376 143 115 71 255
-1.9448836 20.546547 6.5567303 -0.9001259 0.41812003 0.12226594 140 112 69 255
-2.3261256 19.417328 6.5386868 -0.8534814 -0.26059905 0.4512844 140 112 69 255
-1.885537 20.481695 6.8053775 -0.82140225 0.22264083 0.52509934 140 112 69 255
-1.955656 19.326464 6.9017196 -0.5301387 -0.3911 0.7523255 140 112 69 255
-1.7138572 20.439407 7.0010567 -0.5458984 0.056212634 0.83596355 140 112 69 255
-1.4360878 19.304777 7.092736 -0.119840436 -0.4275461 0.8960148 141 113 70 255
-1.4691688 20.429379 7.0989428 -0.14311615 -0.004587916 0.98969525 140 112 69 255
-0.82726884 18.339119 6.286013 0.19830143 0.14266008 0.9697034 140 112 69 255
-1.289187 18.29484 6.3017387 -0.14942825 0.10590568 0.9830845 140 112 69 255
-1.0259722 16.143902 4.9498653 -0.10871282 -0.5390676 0.8352171 141 113 69 255
-0.70712775 16.173504 4.9352255 0.29345873 -0.49357647 0.81869656 141 113 69 255
-0.58667177 15.935703 5.134095 0.22876197 0.118434004 0.96625125 140 112 69 255
-1.0494761 15.892689 5.155545 -0.1491677 0.07891851 0.98565763 140 112 69 255
-0.7840088 13.342102 3.8651102 -0.117987394 -0.4584643 0.88084584 143 115 71 255
-0.4648512 13.372266 3.8482797 0.30041102 -0.4157777 0.85841846 143 115 71 255
-0.34643656 13.131374 4.0614753 0.23282361 0.16362272 0.95865566 140 112 69 255
-0.8097008 13.087814 4.08603 -0.14985938 0.12672462 0.98055243 140 112 69 255
-0.55439585 10.285306 2.9120097 -0.124641076 -0.39308214 0.91101646 142 114 70 255
-0.23492686 10.312765 2.8936198 0.29895848 -0.35508168 0.88574314 143 114 70 255
-0.11456676 10.012945 3.1050148 0.2474434 0.14823781 0.95749533 140 112 69 255
-0.5782554 9.973395 3.1316848 -0.14982031 0.11313549 0.982219 140 112 69 255
-0.35207188 7.1718345 2.1527097 -0.12972462 -0.3362268 0.9328039 140 112 69 255
-0.03253095 7.1964417 2.1343348 0.29040352 -0.304402 0.90719634 140 112 69 255
0.084710866 6.9117184 2.3637598 0.23904671 0.20325293 0.94949716 140 112 69 255
-0.37896687 6.874861 2.3898594 -0.15057944 0.1724024 0.9734492 140 112 69 255
-0.18755771 4.1670065 1.6259694 -0.13433363 -0.27736712 0.95132643 140 112 69 255
0.1308775 4.2024317 1.6129348 0.26258838 -0.25402927 0.93086874 140 112 69 255
0.2487845 3.8520536 1.8504591 0.20412678 0.18050867 0.9621585 140 112 69 255
-0.21332748 3.8008072 1.8688493 -0.15045442 0.15823357 0.9758717 140 112 69 255
-0.07803619 1.5608714 1.3913543 -0.13878252 -0.2136166 0.9670096 140 112 69 255
0.2399075 1.5952287 1.3817391 0.23068596 -0.19969265 0.95231664 140 112 69 255
-0.44970745 18.436298 6.117947 0.52360266 0.2282793 0.82080984 140 112 69 255
-0.44510186 16.237604 4.80729 0.6772746 -0.3741718 0.6334783 140 112 69 255
-0.20626791 16.028883 4.94781 0.57614666 0.2113172 0.7895569 140 112 69 255
-0.20183735 13.438148 3.7133849 0.688611 -0.30983338 0.65560514 140 112 69 255
0.03538795 13.226299 3.8652751 0.58193517 0.2480599 0.77447903 140 112 69 255
0.029068217 10.370056 2.75379 0.68956465 -0.26381338 0.67446506 140 112 69 255
0.2686344 10.095091 2.9020648 0.61119914 0.22693317 0.7582459 140 112 69 255
0.23172297 7.2446203 1.9945197 0.6814638 -0.23053974 0.69459236 140 112 69 255
0.4678687 6.985327 2.1626544 0.6018648 0.2711731 0.75114846 140 112 69 255
0.3916005 4.285064 1.4901597 0.6419259 -0.20358846 0.7392448 140 112 69 255
0.6269782 3.9714656 1.6739247 0.5506076 0.2224252 0.8045857 140 112 69 255
0.4991126 1.674427 1.2698842 0.59802455 -0.17393826 0.782376 140 112 69 255
-0.24862267 18.56515 5.873556 0.77017605 0.44137856 0.4604496 140 112 69 255
-0.30287325 16.320799 4.6152754 0.95728004 -0.15729253 0.24263963 140 112 69 255
0.0003234297 16.149939 4.6679254 0.8213193 0.38729966 0.41884804 140 112 69 255
-0.057687387 13.524835 3.5078099 0.9578924 -0.13239644 0.25478074 140 112 69 255
0.24476029 13.350759 3.5661302 0.822229 0.40149543 0.40341178 140 112 69 255
0.17513841 10.439997 2.5386152 0.95646244 -0.11724342 0.26727018 140 112 69 255
0.48068786 10.194684 2.58975 0.8617116 0.33598438 0.3802202 140 112 69 255
0.37828177 7.296827 1.7793748 0.95247287 -0.113509856 0.2826855 140 112 69 255
0.6798691 7.0682683 1.8539245 0.85839987 0.34923384 0.3757463 140 112 69 255
0.53129685 4.4043627 1.3081647 0.94145685 -0.117633864 0.31594503 140 112 69 255
0.8292807 4.1436024 1.4130297 0.8259491 0.37025708 0.42510924 140 112 69 255
0.6358355 1.7870405 1.109144 0.9261115 -0.12521285 0.3558639 140 112 69 255
-0.22532277 18.688034 5.3104696 0.8761616 0.46218133 0.13685474 140 112 69 255
-0.28957665 16.40961 4.244955 0.9988403 -0.039633114 0.02733847 140 112 69 255
0.019508377 16.278633 4.131315 0.8957324 0.4240038 0.13373125 140 112 69 255
-0.045816824 13.611052 3.147615 0.99912447 -0.033312768 0.025309384 140 112 69 255
0.2618665 13.476913 3.04389 0.88703454 0.441465 0.13519731 140 112 69 255
0.18557623 10.538713 2.1855752 0.99927944 -0.031458423 0.02123947 140 112 69 255
0.4957965 10.339391 2.0773351 0.9046486 0.40257633 0.13979721 140 112 69 255
0.38835728 7.4087696 1.4263196 0.9990756 -0.039847568 0.016128426 140 112 69 255
0.69502807 7.2253985 1.3388394 0.8862252 0.43429175 0.16123101 140 112 69 255
0.5464831 4.466251 0.9303595 0.99774784 -0.061027307 0.027837388 140 112 69 255
0.8516595 4.2341824 0.86224437 0.9161509 0.38794947 0.10080944 140 112 69 255
0.65323436 1.8539196 0.71548414 0.9959199 -0.08542974 0.029072886 140 112 69 255
-0.4215923 18.783388 4.8006005 0.6463847 0.6894042 -0.32696885 147 119 73 255
-0.22532277 18.688034 5.3104696 0.6988547 0.7016066 -0.13910553 140 112 69 255
-0.28957665 16.40961 4.244955 0.92571735 0.13848472 -0.3519505 163 130 81 255
-0.4273396 16.47917 3.909975 0.78832066 0.22176208 -0.57390934 163 130 81 255
-0.18055625 16.379377 3.6459303 0.6790035 0.62570703 -0.38398567 143 115 71 255
0.019508377 16.278633 4.131315 0.77094907 0.6071248 -0.19245002 140 112 69 255
-0.045816824 13.611052 3.147615 0.92189515 0.11397429 -0.37029594 146 118 73 255
-0.18491618 13.678203 2.8219798 0.7890714 0.17904581 -0.5876299 146 118 73 255
0.059883222 13.5753145 2.5718102 0.6810111 0.60931545 -0.4061508 145 116 72 255
0.2618665 13.476913 3.04389 0.7868948 0.5778206 -0.21660991 144 116 72 255
0.18557623 10.538713 2.1855752 0.91952115 0.088023916 -0.38305688 141 113 69 255
0.045156553 10.617413 1.866585 0.7936365 0.1379074 -0.5925562 141 113 69 255
0.29196784 10.454948 1.6143299 0.7142631 0.54150563 -0.44339582 141 113 69 255
0.4957965 10.339391 2.0773351 0.84016395 0.4814509 -0.24965896 141 113 69 255
0.38835728 7.4087696 1.4263196 0.91911465 0.053029373 -0.39040503 140 112 69 255
0.24759717 7.4996986 1.1072848 0.80020106 0.08965424 -0.5929928 141 113 69 255
0.49122536 7.352441 0.87335944 0.7226301 0.53029996 -0.44338214 141 113 69 255
0.69502807 7.2253985 1.3388394 0.8565471 0.4515047 -0.24994084 141 113 69 255
0.5464831 4.466251 0.9303595 0.92936945 0.004612771 -0.36912215 141 113 70 255
0.41046962 4.510891 0.5884646 0.8083851 0.033223376 -0.5877158 142 114 70 255
0.6545531 4.299691 0.36376476 0.7491349 0.4335906 -0.50079536 142 114 70 255
0.8516595 4.2341824 0.86224437 0.8733499 0.38903043 -0.29311287 142 114 70 255
0.65323436 1.8539196 0.71548414 0.9321105 -0.05563799 -0.357875 140 112 69 255
0.51927453 1.9031739 0.35891935 0.82078356 -0.046923418 -0.5693088 140 112 69 255
-0.79597616 18.830034 4.4841905 0.29879025 0.7538323 -0.5852018 140 112 69 255
-0.6864544 16.51309 3.6995103 0.38614497 0.31361228 -0.8674903 163 130 81 255
-0.55670524 16.428507 3.3408303 0.31695312 0.68785435 -0.652991 140 112 69 255
-0.44463897 13.711011 2.6158352 0.38890868 0.25323367 -0.88578945 146 118 73 255
-0.3171444 13.6233635 2.2728448 0.3195058 0.66319096 -0.67682624 140 112 69 255
-0.21517865 10.655547 1.663485 0.39346275 0.19821694 -0.89771783 141 113 69 255
-0.08591898 10.510921 1.3195498 0.3388825 0.59419817 -0.72944295 140 112 69 255
-0.012896284 7.5434813 0.9041847 0.39944428 0.13658974 -0.9065249 141 113 69 255
0.11337094 7.4137173 0.57743937 0.34552783 0.57631445 -0.7405891 140 112 69 255
0.15214987 4.533314 0.37480474 0.4069145 0.06777407 -0.91094863 142 114 70 255
0.27978525 4.3325577 0.052619576 0.3667188 0.4606369 -0.80828893 142 114 70 255
0.2619186 1.9277189 0.13849407 0.4181564 -0.036944233 -0.9076234 147 121 82 255
-1.259892 18.816778 4.414965 -0.15624577 0.74126583 -0.6527727 140 112 69 255
-1.0060841 16.503946 3.6518102 -0.13210091 0.2974982 -0.94553906 140 112 69 255
-1.0206256 16.415237 3.2716053 -0.15034994 0.67471457 -0.722603 140 112 69 255
-0.76427466 13.701875 2.568135 -0.12650003 0.23773135 -0.96305853 140 112 69 255
-0.78105915 13.610099 2.2036202 -0.14469515 0.6500673 -0.745973 140 112 69 255
-0.5348012 10.646402 1.6157998 -0.12467166 0.1830578 -0.975165 140 112 69 255
-0.5498352 10.49765 1.2503252 -0.14418615 0.5804273 -0.80144525 140 112 69 255
-0.33253336 7.5343394 0.85649955 -0.124737166 0.12172106 -0.9846952 140 112 69 255
-0.35054147 7.4004617 0.5082147 -0.14619862 0.5614907 -0.81446546 140 112 69 255
-0.16747244 4.5241685 0.32710478 -0.12797157 0.054208834 -0.99029523 142 114 70 255
-0.18414527 4.3192916 -0.016605556 -0.14067318 0.4458177 -0.8840008 140 112 69 255
-0.057718232 1.9185779 0.090794116 -0.13361178 -0.051312853 -0.98970443 254 203 126 255
-1.707071 18.74664 4.6087956 -0.559869 0.6559222 -0.50627327 140 112 69 255
-1.3130028 16.453852 3.7778254 -0.5973797 0.17885442 -0.7817599 142 114 70 255
-1.4660443 16.342617 3.4541254 -0.57112926 0.59044516 -0.57025075 140 112 69 255
-1.0705763 13.65288 2.68983 -0.59182477 0.1377081 -0.79421663 141 113 69 255
-1.2255982 13.53856 2.380005 -0.5657625 0.574111 -0.5918694 140 112 69 255
-0.8405017 10.592077 1.7344348 -0.5924696 0.097390726 -0.79968417 141 113 69 255
-0.9935197 10.418202 1.4225247 -0.5829963 0.5046433 -0.63675004 141 113 69 255
-0.6380716 7.474382 0.9751345 -0.59612715 0.049925417 -0.8013363 145 116 72 255
-0.79424703 7.315691 0.6815395 -0.5905365 0.49051982 -0.64082515 145 117 72 255
-0.47519958 4.4855742 0.45631438 -0.6033789 -0.002765344 -0.79744995 159 126 78 255
-0.63092047 4.2629404 0.17195955 -0.5936911 0.39453518 -0.70133644 161 128 79 255
-0.36637992 1.8778539 0.22676915 -0.61575854 -0.08496119 -0.783341 178 143 88 255
-2.037877 18.636198 5.0400157 -0.8049566 0.5443806 -0.23599696 140 112 69 255
-1.5383755 16.373915 4.058625 -0.88276744 0.0064003514 -0.46976647 141 113 70 255
-1.7930447 16.226797 3.8608656 -0.8338092 0.4765927 -0.27860668 140 112 69 255
-1.2946229 13.575346 2.96127 -0.8820612 -0.0072406633 -0.47107917 141 113 69 255
-1.5506806 13.425088 2.77344 -0.8321818 0.4715816 -0.29169223 141 113 69 255
-1.0632318 10.503005 1.9992448 -0.8836705 -0.024153661 -0.46748576 141 113 69 255
-1.3167515 10.287568 1.8068844 -0.85869 0.4019032 -0.31800205 141 113 69 255
-0.860451 7.3730607 1.2399745 -0.88550276 -0.048686814 -0.46207634 145 116 72 255
-1.1175196 7.173576 1.0683749 -0.86188567 0.39985085 -0.31188515 145 117 72 255
-0.7023106 4.430539 0.7440296 -0.8871754 -0.07774964 -0.45483476 159 126 78 255
-0.9608885 4.1823606 0.59179413 -0.8645527 0.34519646 -0.36522323 161 128 79 255
-0.5955595 1.8182096 0.52915424 -0.8899594 -0.12431611 -0.4387685 178 143 88 255
-2.173011 18.510134 5.586413 -0.8941637 0.39465553 0.21146655 140 112 69 255
-1.628729 16.282896 4.41744 -0.9755981 -0.2144202 -0.047246523 141 113 70 255
-1.9240607 16.094921 4.38078 -0.92792916 0.3378173 0.15756571 140 112 69 255
-1.3835418 13.486923 3.3099751 -0.98132896 -0.18898544 -0.035749804 141 113 69 255
-1.6796236 13.295737 3.278985 -0.9252909 0.3515878 0.14220706 140 112 69 255
-1.1507291 10.402096 2.3407795 -0.984646 -0.17314067 -0.022236126 141 113 69 255
-1.4436989 10.139668 2.3026044 -0.95262027 0.2838772 0.109216765 140 112 69 255
-0.94757104 7.2589207 1.5815395 -0.98568356 -0.16850765 -0.005760348 145 116 72 255
-1.2445178 7.0132523 1.5667797 -0.9486526 0.29733106 0.1079463 140 112 69 255
-0.79455626 4.3664565 1.1103295 -0.9849098 -0.1707567 0.028190779 159 126 78 255
-1.0951096 4.0885715 1.125884 -0.93340176 0.31952542 0.16329312 140 112 69 255
-0.69003147 1.7491391 0.9113091 -0.9814589 -0.1765141 0.07470502 178 143 88 255
-2.0450835 18.390676 5.879897 -0.75179714 0.19246812 0.6306798 140 112 69 255
-1.5442792 16.206165 4.64328 -0.80972123 -0.4199065 0.40991452 140 112 69 255
-1.8016515 15.983264 4.7097607 -0.79202014 0.17286882 0.58550864 140 112 69 255
-1.3010122 13.40672 3.549375 -0.8309614 -0.35562104 0.42782784 140 112 69 255
-1.5599935 13.180686 3.627225 -0.7955297 0.2081837 0.56902725 140 112 69 255
-1.0701082 10.338634 2.5897796 -0.8404862 -0.30766556 0.44600984 140 112 69 255
-1.326738 10.049484 2.6640148 -0.8176487 0.18518409 0.54512155 140 112 69 255
-0.8674573 7.2131834 1.8305098 -0.840702 -0.27279344 0.46776462 140 112 69 255
-1.1275034 6.939719 1.9246048 -0.80868167 0.23285604 0.5401962 140 112 69 255
-0.70757604 4.253641 1.326149 -0.8169472 -0.24385162 0.5226218 140 112 69 255
-0.96839803 3.9258437 1.4358741 -0.7735087 0.18328565 0.6067048 140 112 69 255
-0.60006404 1.643005 1.1058743 -0.7894091 -0.20860705 0.5773354 140 112 69 255
-1.7281462 18.313362 6.151589 -0.47963405 0.12379549 0.86869204 140 112 69 255
-1.3278112 16.155754 4.8426003 -0.49024987 -0.5182948 0.7007321 140 112 69 255
-1.4875475 15.909945 4.9996653 -0.5066034 0.097854644 0.8566081 140 112 69 255
-1.0855266 13.354518 3.75567 -0.5132924 -0.44066423 0.73644143 140 112 69 255
-1.2473198 13.1056185 3.927045 -0.51099133 0.1421741 0.84774655 140 112 69 255
-0.8556138 10.295032 2.8010094 -0.5239092 -0.37884098 0.7628883 140 112 69 255
-1.0154351 9.9871855 2.9705846 -0.5239243 0.12572454 0.842435 140 112 69 255
-0.6532072 7.17869 2.0417097 -0.5251939 -0.32700056 0.78564745 140 112 69 255
-0.8161686 6.8859763 2.2293296 -0.51710683 0.18228704 0.8362847 140 112 69 255
-0.4898134 4.1846833 1.5203243 -0.5084449 -0.2745734 0.81614536 140 112 69 255
-0.6520988 3.8262963 1.7160442 -0.48636016 0.15984103 0.8590137 140 112 69 255
-0.38076907 1.5774769 1.2891291 -0.4877161 -0.21714345 0.8455659 140 112 69 255
-0.18755771 4.1670065 1.6259694 -0.13853349 0.5543048 0.82070374 140 112 69 255
-0.4898134 4.1846833 1.5203243 -0.34457394 0.5651541 0.74957967 140 112 69 255
-0.70757604 4.253641 1.326149 -0.5004736 0.6048812 0.6193907 140 112 69 255
-0.79455626 4.3664565 1.1103295 -0.65503025 0.7200421 0.22907354 140 112 69 255
-0.7023106 4.430539 0.7440296 -0.62627256 0.75965905 -0.17521624 140 112 69 255
-0.47519958 4.4855742 0.45631438 -0.44298807 0.8071971 -0.3901208 140 112 69 255
-0.16747244 4.5241685 0.32710478 -0.1310801 0.8541439 -0.5032456 140 112 69 255
0.15214987 4.533314 0.37480474 0.2235954 0.86452395 -0.45011488 140 112 69 255
0.41046962 4.510891 0.5884646 0.4909449 0.8344474 -0.25034118 140 112 69 255
0.5464831 4.466251 0.9303595 0.5818162 0.8036156 -0.12526578 140 112 69 255
0.5464831 4.466251 0.9303595 0.6195027 0.77031744 0.15108752 140 112 69 255
0.53129685 4.4043627 1.3081647 0.51776296 0.75434744 0.40358603 140 112 69 255
0.3916005 4.285064 1.4901597 0.26199505 0.62759143 0.73313534 140 112 69 255
0.1308775 4.2024317 1.6129348 0.07816042 0.57776916 0.8124493 140 112 69 255
-0.35207188 7.1718345 2.1527097 -0.13337265 0.6262943 0.7680932 140 112 69 255
-0.6532072 7.17869 2.0417097 -0.3696342 0.63791704 0.67559785 140 112 69 255
-0.8674573 7.2131834 1.8305098 -0.55440575 0.6861215 0.47103238 140 112 69 255
-0.94757104 7.2589207 1.5815395 -0.6325009 0.74528295 0.21094093 140 112 69 255
-0.860451 7.3730607 1.2399745 -0.5965572 0.80186915 -0.03355029 140 112 69 255
-0.6380716 7.474382 0.9751345 -0.42987183 0.87060815 -0.23927265 140 112 69 255
-0.33253336 7.5343394 0.85649955 -0.13996972 0.9269694 -0.3480461 140 112 69 255
-0.012896284 7.5434813 0.9041847 0.1849134 0.9357907 -0.30017117 140 112 69 255
0.24759717 7.4996986 1.1072848 0.43462622 0.89368796 -0.11145358 140 112 69 255
0.38835728 7.4087696 1.4263196 0.51877546 0.8548585 0.009426368 140 112 69 255
0.38835728 7.4087696 1.4263196 0.549513 0.7917646 0.26672885 140 112 69 255
0.37828177 7.296827 1.7793748 0.5026736 0.78044343 0.37178922 140 112 69 255
0.23172297 7.2446203 1.9945197 0.34823763 0.71597564 0.60506976 140 112 69 255
-0.03253095 7.1964417 2.1343348 0.11787324 0.65372473 0.7474957 140 112 69 255
-0.55439585 10.285306 2.9120097 -0.13649872 0.5773084 0.8050361 140 112 69 255
-0.8556138 10.295032 2.8010094 -0.38246155 0.5902607 0.71085536 140 112 69 255
-1.0701082 10.338634 2.5897796 -0.57368165 0.640668 0.51032734 140 112 69 255
-1.1507291 10.402096 2.3407795 -0.6668074 0.71518874 0.20945875 140 112 69 255
-1.0632318 10.503005 1.9992448 -0.61456275 0.78565973 -0.071073666 140 112 69 255
-0.8405017 10.592077 1.7344348 -0.43029404 0.8614097 -0.2698523 140 112 69 255
-0.5348012 10.646402 1.6157998 -0.13650335 0.9193853 -0.36891377 140 112 69 255
-0.21517865 10.655547 1.663485 0.18607602 0.928754 -0.3206116 140 112 69 255
0.045156553 10.617413 1.866585 0.44060963 0.886783 -0.13956675 140 112 69 255
0.18557623 10.538713 2.1855752 0.5332619 0.8455902 -0.024675803 140 112 69 255
0.18557623 10.538713 2.1855752 0.58211595 0.7784436 0.23487562 140 112 69 255
0.17513841 10.439997 2.5386152 0.53524405 0.7489967 0.3905352 140 112 69 255
0.029068217 10.370056 2.75379 0.36419165 0.6667499 0.6502376 140 112 69 255
-0.23492686 10.312765 2.8936198 0.12525505 0.6044989 0.78669703 140 112 69 255
-0.7840088 13.342102 3.8651102 -0.1293543 0.6576407 0.74214303 140 112 69 255
-1.0855266 13.354518 3.75567 -0.32269755 0.67017 0.66838497 140 112 69 255
-1.3010122 13.40672 3.549375 -0.46697742 0.7149816 0.5203204 140 112 69 255
-1.3835418 13.486923 3.3099751 -0.54282737 0.80196345 0.24938537 140 112 69 255
-1.2946229 13.575346 2.96127 -0.4977694 0.86716086 -0.016049583 140 112 69 255
-1.0705763 13.65288 2.68983 -0.34907806 0.92224634 -0.16615102 140 112 69 255
-0.76427466 13.701875 2.568135 -0.12028331 0.96394527 -0.23736367 140 112 69 255
-0.44463897 13.711011 2.6158352 0.12987444 0.971171 -0.19989827 140 112 69 255
-0.18491618 13.678203 2.8219798 0.32950324 0.9419361 -0.06468321 140 112 69 255
-0.045816824 13.611052 3.147615 0.40363938 0.91475415 0.017322415 140 112 69 255
-0.045816824 13.611052 3.147615 0.4515364 0.86425763 0.22175139 140 112 69 255
-0.057687387 13.524835 3.5078099 0.40053558 0.8282277 0.39193133 140 112 69 255
-0.20183735 13.438148 3.7133849 0.25542313 0.7349084 0.62822664 140 112 69 255
-0.4648512 13.372266 3.8482797 0.07623845 0.68122166 0.72809666 140 112 69 255
-1.0259722 16.143902 4.9498653 -0.13163166 0.63527715 0.76098365 140 112 69 255
-1.3278112 16.155754 4.8426003 -0.3244617 0.6500223 0.68716496 140 112 69 255
-1.5442792 16.206165 4.64328 -0.467504 0.7008073 0.5388034 140 112 69 255
-1.628729 16.282896 4.41744 -0.5408431 0.7989942 0.262863 140 112 69 255
-1.5383755 16.373915 4.058625 -0.49574608 0.8684343 -0.0075831614 140 112 69 255
-1.3130028 16.453852 3.7778254 -0.3498775 0.9243656 -0.1520982 140 112 69 255
-1.0060841 16.503946 3.6518102 -0.12243009 0.96756315 -0.22098017 140 112 69 255
-0.6864544 16.51309 3.6995103 0.12742737 0.9746787 -0.18374906 140 112 69 255
-0.4273396 16.47917 3.909975 0.3269608 0.94365114 -0.051176436 140 112 69 255
-0.28957665 16.40961 4.244955 0.39842102 0.9168272 0.026239198 140 112 69 255
-0.28957665 16.40961 4.244955 0.44883734 0.8651844 0.22360857 140 112 69 255
-0.30287325 16.320799 4.6152754 0.39527664 0.8255222 0.40282696 140 112 69 255
-0.44510186 16.237604 4.80729 0.25041148 0.72105426 0.6460455 140 112 69 255
-0.70712775 16.173504 4.9352255 0.07323487 0.661221 0.74660784 140 112 69 255
-1.262665 18.483557 6.08783 -0.118113965 0.7517751 0.64875513 140 112 69 255
-1.5651255 18.496357 5.9845576 -0.2355942 0.7613813 0.6039817 140 112 69 255
-1.7835721 18.549772 5.797937 -0.31531453 0.7900314 0.5257635 140 112 69 255
-1.8718873 18.632328 5.5968394 -0.3665056 0.8796229 0.30321118 140 112 69 255
-1.7786517 18.719 5.2195606 -0.34487134 0.9363487 0.065688126 140 112 69 255
-1.550619 18.794891 4.921695 -0.25085562 0.967727 -0.023999779 140 112 69 255
-1.2424691 18.843136 4.787805 -0.10292694 0.99253607 -0.06540774 140 112 69 255
-0.9228395 18.852278 4.83549 0.06178738 0.9972541 -0.040823817 140 112 69 255
-0.66495204 18.820225 5.0538454 0.19216682 0.9804579 0.0421237 140 112 69 255
-0.52985007 18.754692 5.4058967 0.23910785 0.966942 0.08860335 140 112 69 255
-0.52985007 18.754692 5.4058967 0.27265823 0.93777156 0.21503964 140 112 69 255
-0.5460278 18.670248 5.7946744 0.21245928 0.89550406 0.391067 140 112 69 255
-0.68439984 18.581196 5.961947 0.10459259 0.80150336 0.58877206 140 112 69 255
-0.94444567 18.514095 6.0771723 0.0066733537 0.7680625 0.6403402 140 112 69 255
-0.31450891 -0.6107265 1.2643491 -0.5637152 -0.16141163 0.81004417 140 112 69 255
-0.52496463 -0.5588874 1.0244693 -0.87247306 -0.18243247 0.45333093 161 128 79 255
-0.014555678 -0.6230235 1.3843341 -0.14524059 -0.14798306 0.978267 140 112 69 255
0.5742156 -0.52745014 1.1884792 0.7140289 -0.15837063 0.6819688 140 112 69 255
0.30618176 -0.5929783 1.3569591 0.30829963 -0.15265505 0.93896097 140 112 69 255
0.7281426 -0.44146925 0.91748893 0.95867896 -0.13265686 0.25166816 140 112 69 255
0.7327122 -0.35473555 0.60608894 0.99457765 -0.10303573 -0.014104629 140 112 69 255
0.5868774 -0.2870947 0.32558933 0.7550831 -0.12098512 -0.64436954 140 112 69 255
0.7327122 -0.35473555 0.60608894 0.88164294 -0.104806855 -0.46013173 140 112 69 255
0.3240379 -0.25406152 0.14026433 0.37192866 -0.14124133 -0.917453 159 126 79 255
0.004400611 -0.2632025 0.09257913 -0.08788339 -0.14486262 -0.98554116 254 203 126 255
-0.29879183 -0.3124112 0.19343913 -0.53532535 -0.13503933 -0.8337813 201 162 100 255
-0.5160923 -0.3904277 0.41974425 -0.8587043 -0.1423198 -0.49231285 201 162 100 255
-0.59770995 -0.47937423 0.7196541 -0.9841403 -0.17475921 -0.030449947 202 162 100 255
-0.94444567 18.514095 6.0771723 0.27474475 -0.7343996 0.6206225 141 113 69 255
-1.262665 18.483557 6.08783 -0.06917845 -0.7768389 0.62588793 141 113 69 255
-1.5651255 18.496357 5.9845576 -0.39685833 -0.75958985 0.51529294 141 113 69 255
-1.7835721 18.549772 5.797937 -0.6906401 -0.67104113 0.26966643 140 112 69 255
-1.8718873 18.632328 5.5968394 -0.8613297 -0.49379206 -0.11950098 148 119 73 255
-1.7786517 18.719 5.2195606 -0.8148601 -0.29207194 -0.5006965 147 118 73 255
-1.550619 18.794891 4.921695 -0.5673499 -0.1039457 -0.8168901 147 118 73 255
-1.2424691 18.843136 4.787805 -0.11478413 0.040060945 -0.9925823 186 149 92 255
-0.9228395 18.852278 4.83549 0.40241417 0.0610411 -0.91342044 186 148 92 255
-0.66495204 18.820225 5.0538454 0.7884203 -0.049431577 -0.6131476 186 148 92 255
-0.52985007 18.754692 5.4058967 0.9097001 -0.14219144 -0.3901632 186 149 92 255
-0.52985007 18.754692 5.4058967 0.9438751 -0.3287363 -0.032128897 140 112 69 255
-0.5460278 18.670248 5.7946744 0.887522 -0.43704528 0.1459323 140 112 69 255
-0.68439984 18.581196 5.961947 0.6203756 -0.6255172 0.47314107 141 113 69 255
3 3 0 1
3 1 2 3
3 5 1 0
3 0 4 5
3 7 5 4
3 4 6 7
3 9 7 6
3 6 8 9
3 8 10 11
3 11 9 8
3 15 12 13
3 13 14 15
3 17 13 12
3 12 16 17
3 19 17 16
3 16 18 19
3 21 19 18
3 18 20 21
3 20 22 23
3 23 21 20
3 27 24 25
3 25 26 27
3 29 25 24
3 24 28 29
3 31 29 28
3 28 30 31
3 33 31 30
3 30 32 33
3 32 34 35
3 35 33 32
3 39 36 37
3 37 38 39
3 41 37 36
3 36 40 41
3 43 41 40
3 40 42 43
3 45 43 42
3 42 44 45
3 44 46 47
3 47 45 44
3 51 48 49
3 49 50 51
3 53 49 48
3 48 52 53
3 55 53 52
3 52 54 55
3 57 55 54
3 54 56 57
3 56 58 59
3 59 57 56
3 63 60 61
3 61 62 63
3 65 61 60
3 60 64 65
3 67 65 64
3 64 66 67
3 69 67 66
3 66 68 69
3 68 70 71
3 71 69 68
3 75 72 73
3 73 74 75
3 77 73 72
3 72 76 77
3 79 77 76
3 76 78 79
3 81 79 78
3 78 80 81
3 80 82 83
3 83 81 80
3 87 84 85
3 85 86 87
3 89 85 84
3 84 88 89
3 91 89 88
3 88 90 91
3 93 91 90
3 90 92 93
3 92 94 95
3 95 93 92
3 99 96 97
3 97 98 99
3 101 97 96
3 96 100 101
3 103 101 100
3 100 102 103
3 105 103 102
3 102 104 105
3 104 106 107
3 107 105 104
3 111 108 109
3 109 110 111
3 113 109 108
3 108 112 113
3 115 113 112
3 112 114 115
3 117 115 114
3 114 116 117
3 116 118 119
3 119 117 116
3 123 120 121
3 121 122 123
3 127 124 125
3 125 126 127
3 129 127 126
3 126 128 129
3 131 129 128
3 128 130 131
3 133 131 130
3 130 132 133
3 135 133 132
3 132 134 135
3 137 135 134
3 134 136 137
3 139 137 136
3 136 138 139
3 143 140 141
3 141 142 143
3 145 143 142
3 142 144 145
3 120 145 144
3 144 121 120
3 158 146 147
3 158 147 148
3 158 148 149
3 158 149 150
3 158 150 151
3 158 151 152
3 158 152 153
3 158 153 154
3 158 154 155
3 158 155 156
3 156 157 158
3 160 123 122
3 122 159 160
3 173 161 162
3 173 162 163
3 173 163 164
3 173 164 165
3 173 165 166
3 173 166 167
3 173 167 168
3 173 168 169
3 173 169 170
3 173 170 171
3 171 172 173
3 124 160 159
3 159 125 124
3 177 174 175
3 175 176 177
3 174 178 179
3 179 175 174
3 178 180 181
3 181 179 178
3 185 182 183
3 183 184 185
3 182 186 187
3 187 183 182
3 186 188 189
3 189 187 186
3 188 190 191
3 191 189 188
3 190 192 193
3 193 191 190
3 192 194 195
3 195 193 192
3 194 196 197
3 197 195 194
3 196 198 199
3 199 197 196
3 198 200 201
3 201 199 198
3 205 202 203
3 203 204 205
3 209 206 207
3 207 208 209
3 213 210 211
3 211 212 213
3 217 214 215
3 215 216 217
3 221 218 219
3 219 220 221
3 225 222 223
3 223 224 225
3 227 226 202
3 202 205 227
3 229 228 206
3 206 209 229
3 231 230 210
3 210 213 231
3 233 232 214
3 214 217 233
3 235 234 218
3 218 221 235
3 237 236 222
3 222 225 237
3 239 238 226
3 226 227 239
3 241 240 228
3 228 229 241
3 243 242 230
3 230 231 243
3 245 244 232
3 232 233 245
3 247 246 234
3 234 235 247
3 249 248 236
3 236 237 249
3 251 250 238
3 238 239 251
3 253 252 240
3 240 241 253
3 255 254 242
3 242 243 255
3 257 256 244
3 244 245 257
3 259 258 246
3 246 247 259
3 261 260 248
3 248 249 261
3 265 262 263
3 263 264 265
3 269 266 267
3 267 268 269
3 273 270 271
3 271 272 273
3 277 274 275
3 275 276 277
3 281 278 279
3 279 280 281
3 285 282 283
3 283 284 285
3 287 286 262
3 262 265 287
3 289 288 266
3 266 269 289
3 291 290 270
3 270 273 291
3 293 292 274
3 274 277 293
3 295 294 278
3 278 281 295
3 297 296 282
3 282 285 297
3 299 298 286
3 286 287 299
3 301 300 288
3 288 289 301
3 303 302 290
3 290 291 303
3 305 304 292
3 292 293 305
3 307 306 294
3 294 295 307
3 309 308 296
3 296 297 309
3 311 310 298
3 298 299 311
3 313 312 300
3 300 301 313
3 315 314 302
3 302 303 315
3 317 316 304
3 304 305 317
3 319 318 306
3 306 307 319
3 321 320 308
3 308 309 321
3 323 322 310
3 310 311 323
3 325 324 312
3 312 313 325
3 327 326 314
3 314 315 327
3 329 328 316
3 316 317 329
3 331 330 318
3 318 319 331
3 333 332 320
3 320 321 333
3 335 334 322
3 322 323 335
3 337 336 324
3 324 325 337
3 339 338 326
3 326 327 339
3 341 340 328
3 328 329 341
3 343 342 330
3 330 331 343
3 345 344 332
3 332 333 345
3 347 346 334
3 334 335 347
3 349 348 336
3 336 337 349
3 351 350 338
3 338 339 351
3 353 352 340
3 340 341 353
3 355 354 342
3 342 343 355
3 357 356 344
3 344 345 357
3 359 358 346
3 346 347 359
3 361 360 348
3 348 349 361
3 363 362 350
3 350 351 363
3 365 364 352
3 352 353 365
3 367 366 354
3 354 355 367
3 369 368 356
3 356 357 369
3 204 203 358
3 358 359 204
3 208 207 360
3 360 361 208
3 212 211 362
3 362 363 212
3 216 215 364
3 364 365 216
3 220 219 366
3 366 367 220
3 224 223 368
3 368 369 224
3 200 177 176
3 176 201 200
3 223 370 371
3 371 368 223
3 368 371 372
3 372 356 368
3 356 372 373
3 373 344 356
3 344 373 374
3 374 332 344
3 332 374 375
3 375 320 332
3 320 375 376
3 376 308 320
3 308 376 377
3 377 296 308
3 296 377 378
3 378 282 296
3 282 378 379
3 379 283 282
3 260 380 381
3 381 248 260
3 248 381 382
3 382 236 248
3 236 382 383
3 383 222 236
3 222 383 370
3 370 223 222
3 219 384 385
3 385 366 219
3 366 385 386
3 386 354 366
3 354 386 387
3 387 342 354
3 342 387 388
3 388 330 342
3 330 388 389
3 389 318 330
3 318 389 390
3 390 306 318
3 306 390 391
3 391 294 306
3 294 391 392
3 392 278 294
3 278 392 393
3 393 279 278
3 258 394 395
3 395 246 258
3 246 395 396
3 396 234 246
3 234 396 397
3 397 218 234
3 218 397 384
3 384 219 218
3 215 398 399
3 399 364 215
3 364 399 400
3 400 352 364
3 352 400 401
3 401 340 352
3 340 401 402
3 402 328 340
3 328 402 403
3 403 316 328
3 316 403 404
3 404 304 316
3 304 404 405
3 405 292 304
3 292 405 406
3 406 274 292
3 274 406 407
3 407 275 274
3 256 408 409
3 409 244 256
3 244 409 410
3 410 232 244
3 232 410 411
3 411 214 232
3 214 411 398
3 398 215 214
3 211 412 413
3 413 362 211
3 362 413 414
3 414 350 362
3 350 414 415
3 415 338 350
3 338 415 416
3 416 326 338
3 326 416 417
3 417 314 326
3 314 417 418
3 418 302 314
3 302 418 419
3 419 290 302
3 290 419 420
3 420 270 290
3 270 420 421
3 421 271 270
3 254 422 423
3 423 242 254
3 242 423 424
3 424 230 242
3 230 424 425
3 425 210 230
3 210 425 412
3 412 211 210
3 207 426 427
3 427 360 207
3 360 427 428
3 428 348 360
3 348 428 429
3 429 336 348
3 336 429 430
3 430 324 336
3 324 430 431
3 431 312 324
3 312 431 432
3 432 300 312
3 300 432 433
3 433 288 300
3 288 433 434
3 434 266 288
3 266 434 435
3 435 267 266
3 252 436 437
3 437 240 252
3 240 437 438
3 438 228 240
3 228 438 439
3 439 206 228
3 206 439 426
3 426 207 206
3 203 440 441
3 441 358 203
3 358 441 442
3 442 346 358
3 346 442 443
3 443 334 346
3 334 443 444
3 444 322 334
3 322 444 445
3 445 310 322
3 310 445 446
3 446 298 310
3 298 446 447
3 447 286 298
3 286 447 448
3 448 262 286
3 262 448 449
3 449 263 262
3 250 450 451
3 451 238 250
3 238 451 452
3 452 226 238
3 226 452 453
3 453 202 226
3 202 453 440
3 440 203 202
3 455 454 160
3 160 124 455
3 454 456 123
3 123 160 454
3 458 457 145
3 145 120 458
3 457 459 143
3 143 145 457
3 459 460 140
3 140 143 459
3 462 461 137
3 137 139 462
3 461 463 135
3 135 137 461
3 463 464 133
3 133 135 463
3 464 465 131
3 131 133 464
3 465 466 129
3 129 131 465
3 466 467 127
3 127 129 466
3 467 455 124
3 124 127 467
3 456 458 120
3 120 123 456
3 469 468 177
3 177 200 469
3 470 469 200
3 200 198 470
3 471 470 198
3 198 196 471
3 472 471 196
3 196 194 472
3 473 472 194
3 194 192 473
3 474 473 192
3 192 190 474
3 475 474 190
3 190 188 475
3 476 475 188
3 188 186 476
3 477 476 186
3 186 182 477
3 478 477 182
3 182 185 478
3 480 479 180
3 180 178 480
3 481 480 178
3 178 174 481
3 468 481 174
3 174 177 468
