ply
format ascii 1.0
comment Created in Blender version 4.0.2
element vertex 8
property float x
property float y
property float z
property float nx
property float ny
property float nz
property uchar red
property uchar green
property uchar blue
property uchar alpha
element face 6
property list uchar uint vertex_indices
end_header
5.756992 2.9020653 1.9491894 1.7355088 0.692355 0.9154583 21 141 0 255
0.8012095 2.902065 -6.1121473 -0.044366598 0.6516078 -1.9586356 21 141 0 255
-3.72319 2.9020655 2.2484672 -1.6877141 0.629406 1.0329547 21 141 0 255
0.60212165 19.274607 -0.660746 -0.0472326 1.8522661 -0.0032232516 21 141 0 255
1.81761 0.010723114 -0.5074807 1.8762513 0.18103214 -0.007889803 132 119 95 255
-0.24346238 0.010723114 -1.6974412 -0.9341155 0.19502726 -1.6257735 132 119 95 255
-0.24346209 0.010723114 0.6824801 -0.94215125 0.16691002 1.6239126 132 119 95 255
0.4435618 14.257034 -0.38320005 6.5728154e-06 1.9999328 0.0154394135 132 119 95 255
3 3 2 0
3 3 0 1
3 3 1 2
3 7 6 4
3 5 6 7
3 5 7 4
