ply
format ascii 1.0
comment Created in Blender version 4.0.2
element vertex 172
property float x
property float y
property float z
property float nx
property float ny
property float nz
property uchar red
property uchar green
property uchar blue
property uchar alpha
element face 304
property list uchar uint vertex_indices
end_header
3.692427 2.8311193 3.894738 1.0895916 -1.1350809 1.608143 2 67 0 255
5.6097417 2.9147887 -0.16106945 1.9153131 -1.2390295 0.118696466 2 67 0 255
4.5294967 2.9946468 -4.498913 1.3944637 -1.0237123 -1.4189976 2 67 0 255
-0.07647145 2.9981441 -5.4200826 -0.30677173 -1.2110826 -1.913636 2 67 0 255
-3.9118376 2.947879 -3.4139516 -1.6533791 -1.0695074 -1.0770185 2 67 0 255
-3.9389205 2.8575466 1.29251 -1.7588502 -1.2575784 0.7328916 2 67 0 255
-0.7833115 2.8112879 4.211042 -0.60157007 -1.2609661 1.8010782 2 67 0 255
2.3981438 5.1157084 2.0562758 1.0081648 1.4335288 1.5605996 2 67 0 255
3.7283516 5.1641293 -0.25550675 1.8585371 1.3898467 0.13416855 2 67 0 255
2.7499132 5.2087 -2.7367976 1.2568257 1.5297012 -1.2832613 23 85 22 255
0.19961268 5.215858 -3.5191343 -0.32124984 1.4278376 -1.8088876 2 67 0 255
-2.002121 5.180213 -2.0134015 -1.5838848 1.480554 -0.9040325 2 67 0 255
-2.1973386 5.1286063 0.6465532 -1.7323097 1.3628114 0.7345681 2 67 0 255
-0.23903662 5.0998993 2.45773 -0.55466247 1.3200881 1.8201926 2 67 0 255
1.6432531 7.3868384 1.0062127 1.1383753 0.82993186 1.684219 2 67 0 255
2.4002166 7.414393 -0.30932185 2.0128584 0.861764 0.16444552 2 67 0 255
1.8434297 7.4397564 -1.7213166 1.3696296 0.8910649 -1.466764 2 67 0 255
0.39216483 7.4438295 -2.1665103 -0.30694622 0.8957705 -1.9810749 2 67 0 255
-0.860746 7.4235454 -1.3096635 -1.7543738 0.8723372 -0.9912012 2 67 0 255
-0.97183573 7.3941784 0.20400101 -1.8827101 0.8384109 0.75746197 2 67 0 255
0.1425485 7.3778424 1.2346628 -0.59531575 0.8195388 1.948136 2 67 0 255
1.3244934 9.647087 0.59361833 0.8620524 2.0072925 1.3080411 2 67 0 255
1.8424665 9.665941 -0.30657277 1.5275185 2.031516 0.15152106 255 255 255 255
1.4614699 9.683297 -1.2727692 1.0380323 2.053814 -1.089801 255 255 255 255
0.46840155 9.686085 -1.5774055 -0.23781215 2.0573945 -1.4811825 255 255 255 255
-0.38893735 9.672204 -0.9910841 -1.3392788 2.0395622 -0.7279067 47 103 45 255
-0.46495366 9.652109 0.04468268 -1.4369406 2.0137448 0.602795 2 67 0 255
0.29759467 9.64093 0.74994165 -0.457256 1.9993836 1.5088773 2 67 0 255
5.077935 2.9141638 -0.21377653 0.009106733 -2.9608643 -0.056776267 2 67 0 255
3.3631935 2.8393342 3.4135163 0.009106733 -2.9608643 -0.056776267 2 67 0 255
-0.60148907 2.8217673 3.693704 0.009106733 -2.9608643 -0.056776267 2 67 0 255
-3.4343314 2.8632946 1.0736892 0.009106733 -2.9608643 -0.056776267 2 67 0 255
-3.410266 2.9435618 -3.1083543 0.009106733 -2.9608643 -0.056776267 2 67 0 255
-0.00074338913 2.988246 -4.8917427 0.009106733 -2.9608643 -0.056776267 2 67 0 255
4.118128 2.9851184 -4.06799 0.009106733 -2.9608643 -0.056776267 2 67 0 255
4.877549 6.006495 0.915952 2.1531787 -1.4067081 0.8441118 2 67 0 255
4.131675 5.89233 -2.7361665 1.8670434 -1.6388781 -1.175388 2 67 0 255
1.2542241 5.937385 -5.087157 0.26691493 -1.3801523 -2.295838 3 68 2 255
-2.2639844 6.1806183 -3.412589 -1.7348168 -1.4807222 -1.5357741 2 67 0 255
-3.8127584 6.3912253 -0.17218035 -2.4188285 -1.178987 0.22729091 2 67 0 255
-1.4873142 6.4063635 2.9741883 -1.2230855 -1.3468827 2.057981 2 67 0 255
2.0620081 6.2463756 3.3495755 0.6603578 -1.4155842 2.2542524 2 67 0 255
3.1779063 7.9383297 0.22554338 2.1651607 1.681278 0.6762376 2 67 0 255
2.9104252 7.8605843 -1.97403 1.9511293 1.5211558 -1.3045813 2 68 1 255
1.0250114 7.9056044 -3.139749 0.3563948 1.6991382 -2.2458713 2 68 1 255
-1.0585804 8.03949 -2.3938031 -1.5451429 1.6903709 -1.6101692 2 67 0 255
-1.7713623 8.161421 -0.29790553 -2.10348 1.8805208 0.1644493 2 67 0 255
-0.576596 8.179582 1.5696907 -1.0692635 1.7958435 1.8562206 2 67 0 255
1.6260356 8.0802965 1.8026476 0.8444393 1.6787593 2.057398 2 67 0 255
2.2291164 9.843659 -0.20797002 2.3502955 0.9496993 0.74404967 2 67 0 255
2.0769048 9.7994175 -1.4596515 2.09574 0.87571084 -1.3492336 5 71 4 255
1.0039978 9.825037 -2.123011 0.30143505 0.9185555 -2.4586217 5 71 4 255
-0.18168336 9.901225 -1.6985259 -1.6814703 1.0459707 -1.7487229 2 67 0 255
-0.5872967 9.970611 -0.505842 -2.3598087 1.16201 0.24589466 2 67 0 255
0.092592776 9.980946 0.5569256 -1.2227769 1.1792933 2.023243 2 67 0 255
1.3460144 9.924446 0.68949133 0.8734164 1.0848062 2.2449427 2 67 0 255
1.8874366 11.727558 -0.433768 1.8702308 2.3748302 0.49787802 2 67 0 255
1.7832816 11.697285 -1.2902658 1.6765189 2.318526 -1.0950727 19 82 17 255
1.0491152 11.714815 -1.7441881 0.31108388 2.3511307 -1.9392978 19 82 17 255
0.23777992 11.766949 -1.4537222 -1.1978719 2.448091 -1.3990772 22 84 20 255
-0.039772093 11.814428 -0.6375952 -1.7140754 2.5363946 0.11879075 2 67 0 255
0.42546105 11.821501 0.08963311 -0.84881485 2.549547 1.4713211 2 67 0 255
1.2831496 11.782839 0.18034488 0.7463519 2.4776442 1.6400311 2 67 0 255
3.7521753 5.9205704 -2.5071065 -0.17583025 -3.5557296 0.14706151 2 67 0 255
4.419245 6.022673 0.7591488 -0.17583025 -3.5557296 0.14706151 2 67 0 255
1.9251924 6.2351627 2.9148922 -0.17583025 -3.5557296 0.14706151 2 67 0 255
-1.261093 6.3787866 2.577901 -0.17583025 -3.5557296 0.14706151 2 67 0 255
-3.327424 6.3653355 -0.21788305 -0.17583025 -3.5557296 0.14706151 2 67 0 255
-1.9506111 6.1781125 -3.098507 -0.17583025 -3.5557296 0.14706151 2 67 0 255
1.1955342 5.960602 -4.5959826 -0.17583025 -3.5557296 0.14706151 2 67 0 255
4.3094444 9.866438 -1.436524 2.7868116 -1.4125862 -0.7123098 2 67 0 255
2.1035604 9.854207 -3.6854157 1.2157549 -1.6036105 -2.5565393 2 67 0 255
-1.0132624 9.7152815 -4.031067 -1.1111134 -1.4485314 -2.6121526 2 67 0 255
-2.734089 9.509864 -1.2253797 -2.5887337 -1.8815426 -0.5951247 2 67 0 255
-2.3415232 9.39987 1.7861814 -2.147716 -1.7242146 1.6230452 2 67 0 255
0.7500211 9.502403 2.950038 0.23200148 -1.869356 2.650661 2 67 0 255
3.4347138 9.6935 1.5848217 2.2253366 -1.7080445 1.6344867 2 67 0 255
2.681462 11.35159 -0.98004174 2.44145 2.22626 -0.5052286 2 68 1 255
1.4815525 11.354159 -2.4180343 0.96086556 2.1272743 -2.3483124 2 67 0 255
-0.3885349 11.2602005 -2.3785806 -1.2382195 2.1775703 -2.2400558 2 67 0 255
-1.5205863 11.140467 -0.89138985 -2.7047296 1.8732929 -0.39869377 2 67 0 255
-1.0621437 11.08512 0.9236521 -2.123091 1.91579 1.7369483 2 67 0 255
0.6415759 11.135838 1.6997828 0.00043527037 1.8549123 2.7404509 2 67 0 255
2.3076372 11.254428 0.85255927 2.0307357 1.963176 1.7038543 2 67 0 255
1.7029656 12.875782 -0.68641585 2.7271297 1.3878266 -0.64649713 9 74 7 255
1.0201495 12.877244 -1.5047147 1.1267873 1.3912532 -2.5643759 2 67 0 255
-0.04403591 12.823776 -1.4822633 -1.367385 1.2659386 -2.5117555 2 67 0 255
-0.68823695 12.755641 -0.6359679 -2.8772237 1.1062477 -0.528261 2 67 0 255
-0.42735744 12.724146 0.3968935 -2.26579 1.0324305 1.8924965 2 67 0 255
0.5421552 12.753006 0.8385555 0.0064940415 1.1000731 2.9276366 2 67 0 255
1.4902382 12.820491 0.35643768 2.228552 1.2582393 1.7976784 2 67 0 255
1.2496177 14.431539 -0.52446914 1.9788095 3.011819 -0.4079661 26 88 25 255
0.7823818 14.432539 -1.0844128 0.76097786 3.0144262 -1.8674375 7 72 5 255
0.054183483 14.395952 -1.0690498 -1.137044 2.9190648 -1.8273942 2 67 0 255
-0.3866291 14.349329 -0.48994875 -2.286004 2.797542 -0.3179899 2 67 0 255
-0.20811486 14.327777 0.21681535 -1.8207146 2.7413683 1.5241632 2 67 0 255
0.455301 14.347527 0.5190348 -0.09154698 2.7928433 2.3118865 2 67 0 255
1.104053 14.393704 0.18913233 1.5994006 2.9132051 1.4520082 2 67 0 255
1.9401902 9.831671 -3.348406 0.20766298 -4.209102 -0.18080129 2 67 0 255
3.9130123 9.842609 -1.33712 0.20766298 -4.209102 -0.18080129 2 67 0 255
3.1381617 9.689418 1.3392377 0.20766298 -4.209102 -0.18080129 2 67 0 255
0.72806865 9.517868 2.5648148 0.20766298 -4.209102 -0.18080129 2 67 0 255
-2.0189998 9.426759 1.5306411 0.20766298 -4.209102 -0.18080129 2 67 0 255
-2.3679786 9.52454 -1.1465442 0.20766298 -4.209102 -0.18080129 2 67 0 255
-0.8291354 9.708234 -3.65552 0.20766298 -4.209102 -0.18080129 2 67 0 255
4.3154516 12.279331 0.36631137 2.5783825 -1.7227213 0.8082589 2 67 0 255
3.4016933 12.127584 -2.644603 2.0130172 -2.0451589 -1.5331703 2 67 0 255
0.8009835 12.196249 -4.4010057 0.014947958 -1.7098007 -2.6893346 20 83 19 255
-2.0206103 12.533688 -2.7276666 -2.264469 -1.7290094 -1.5743662 7 73 6 255
-3.0655885 12.821718 0.111481786 -2.867611 -1.2941698 0.56728363 5 71 4 255
-0.8656399 12.835677 2.5778053 -1.2654191 -1.4857016 2.6011016 2 67 0 255
2.143511 12.610307 2.6239028 0.97266924 -1.6342318 2.6314049 2 67 0 255
2.8823555 13.942451 -0.12831098 2.6851923 1.9157516 0.52167124 2 67 0 255
2.4845896 13.838447 -1.9554883 2.227503 1.6255738 -1.8021221 2 67 0 255
0.81001806 13.904319 -2.7915995 0.22742924 1.8677479 -2.7613747 2 67 0 255
-0.88037276 14.090465 -2.0070357 -1.9502045 1.9931934 -1.7797745 2 67 0 255
-1.3136839 14.256712 -0.19258994 -2.3715608 2.3498363 0.36373553 2 67 0 255
-0.16362369 14.277873 1.2854238 -0.9749787 2.289768 2.2139277 2 67 0 255
1.7037895 14.138014 1.3140308 1.2657707 2.063131 2.262448 2 67 0 255
2.114278 15.564703 -0.5240785 2.8504925 1.2117571 0.618329 2 67 0 255
1.8929145 15.580297 -1.5664834 2.3508825 1.0780592 -1.8157009 2 67 0 255
0.94122046 15.636252 -2.0429292 0.11721136 1.1590258 -2.93594 2 67 0 255
-0.024158657 15.690431 -1.5946428 -2.1290126 1.3787333 -1.8719851 2 67 0 255
-0.27627283 15.702036 -0.5591929 -2.6698258 1.5851408 0.5314919 2 67 0 255
0.37472495 15.662329 0.2837057 -1.1519532 1.6312766 2.44191 2 67 0 255
1.4386201 15.60121 0.29933327 1.2740382 1.4667395 2.4896476 2 67 0 255
1.6649978 17.175158 -0.65152067 2.8996224 0.7701556 0.68898594 2 67 0 255
1.5439684 17.183685 -1.2214495 2.389139 0.82439804 -1.8136955 2 67 0 255
1.0236354 17.214277 -1.4819437 0.104453534 0.9546013 -2.9667215 2 67 0 255
0.49581975 17.243898 -1.2368456 -2.2165854 1.0605426 -1.8771857 2 67 0 255
0.35797775 17.250244 -0.6707193 -2.8004022 1.0774413 0.60809517 2 67 0 255
0.71390706 17.228535 -0.2098692 -1.2435206 0.9871344 2.6008832 2 67 0 255
1.2955856 17.195118 -0.20132506 1.2768282 0.8467295 2.6404917 2 67 0 255
3.10115 12.166682 -2.423428 -0.31888404 -4.1947217 0.30818444 95 140 94 255
3.9183655 12.302396 0.26936918 -0.31888404 -4.1947217 0.30818444 21 84 20 255
1.9944248 12.595579 2.2691805 -0.31888404 -4.1947217 0.30818444 55 110 53 255
-0.7069398 12.797897 2.2277982 -0.31888404 -4.1947217 0.30818444 46 103 44 255
-2.6617587 12.785494 0.03628528 -0.31888404 -4.1947217 0.30818444 30 92 29 255
-1.732805 12.529444 -2.4876304 -0.31888404 -4.1947217 0.30818444 255 255 252 255
0.7903953 12.227691 -3.984008 -0.31888404 -4.1947217 0.30818444 97 142 95 255
1.4000841 18.476477 -0.7459794 2.937519 0.5549555 0.60886335 2 68 1 255
1.3362173 18.410671 -1.0070446 2.364178 0.32592946 -1.8847449 2 67 0 255
1.087551 18.407946 -1.1283793 0.10510126 0.4329208 -3.0101082 4 70 3 255
0.841336 18.470352 -1.018616 -2.2062583 0.7397441 -1.970047 2 67 0 255
0.78297734 18.5509 -0.76040864 -2.8135238 1.1021066 0.5167411 2 67 0 255
0.9564201 18.588932 -0.54819274 -1.2237265 1.2622273 2.5347834 2 67 0 255
1.2310585 18.55581 -0.54177105 1.3367237 1.0059443 2.5801275 2 67 0 255
1.2637122 19.632296 -1.1373515 2.4510267 2.6232297 -0.16961354 11 75 9 255
1.2579421 19.62635 -1.1609373 1.9761003 2.0177662 -1.9132756 3 68 1 255
1.2354767 19.626104 -1.1718991 0.2831766 1.9603386 -2.7272854 3 68 1 255
1.2132328 19.631742 -1.1619825 -1.3816701 2.4932916 -2.0117822 2 67 0 255
1.2079604 19.639019 -1.1386552 -1.8014039 3.2305684 -0.282295 2 67 0 255
1.2236298 19.642456 -1.1194829 -0.60217977 3.6274476 1.2068715 2 67 0 255
1.2484417 19.639463 -1.1189027 1.3318146 3.3458817 1.2455794 11 75 9 255
1.8386623 0.010723114 -0.5074807 1.6183261 -1.175152 -0.006223906 59 47 29 255
1.1914849 0.010723114 -1.6284246 0.80939966 -1.1670613 -1.4081336 59 47 29 255
-0.10286963 0.010723114 -1.6284245 -0.8093992 -1.1670614 -1.4081339 59 47 29 255
-0.75004685 0.010723114 -0.50748056 -1.6183242 -1.1751546 -0.006224085 59 47 29 255
-0.10286939 0.010723114 0.6134634 -0.8088925 -1.1833011 1.3948089 59 47 29 255
1.1914848 0.010723114 0.6134634 0.80889255 -1.1833012 1.3948084 59 47 29 255
1.2787873 9.421665 -0.3904081 1.9965498 0.11735106 0.004134141 59 47 29 255
0.9115474 9.421665 -1.0264862 0.99973905 0.12831877 -1.727442 59 47 29 255
0.17706788 9.421665 -1.0264862 -0.99973905 0.12831879 -1.727442 255 255 255 255
-0.19017184 9.421665 -0.39040804 -1.9965498 0.117351055 0.004134051 59 47 29 255
0.177068 9.421665 0.2456699 -0.996801 0.10648065 1.7306211 59 47 29 255
0.9115474 9.421665 0.2456699 0.99680066 0.10648066 1.7306212 59 47 29 255
0.9979142 14.257034 -0.39040828 1.5504133 1.2634153 -4.8678993e-07 59 47 29 255
0.7711109 14.257034 -0.783243 0.77520645 1.2634156 -1.3426971 59 47 29 255
0.31750447 14.257034 -0.783243 -0.7752068 1.2634156 -1.342697 255 255 255 255
0.09070125 14.257034 -0.39040822 -1.5504131 1.2634158 5.527154e-07 59 47 29 255
0.31750453 14.257034 0.002426505 -0.7752062 1.2634156 1.3426975 59 47 29 255
0.7711109 14.257034 0.002426505 0.77520704 1.2634157 1.3426969 59 47 29 255
3 0 1 8
3 8 7 0
3 1 2 9
3 9 8 1
3 2 3 10
3 10 9 2
3 3 4 11
3 11 10 3
3 4 5 12
3 12 11 4
3 5 6 13
3 13 12 5
3 6 0 7
3 7 13 6
3 7 8 15
3 15 14 7
3 8 9 16
3 16 15 8
3 9 10 17
3 17 16 9
3 10 11 18
3 18 17 10
3 11 12 19
3 19 18 11
3 12 13 20
3 20 19 12
3 13 7 14
3 14 20 13
3 14 15 22
3 22 21 14
3 15 16 23
3 23 22 15
3 16 17 24
3 24 23 16
3 17 18 25
3 25 24 17
3 18 19 26
3 26 25 18
3 19 20 27
3 27 26 19
3 20 14 21
3 21 27 20
3 21 22 23
3 23 24 25
3 23 25 26
3 21 23 26
3 27 21 26
3 1 0 29
3 29 28 1
3 0 6 30
3 30 29 0
3 6 5 31
3 31 30 6
3 5 4 32
3 32 31 5
3 4 3 33
3 33 32 4
3 3 2 34
3 34 33 3
3 2 1 28
3 28 34 2
3 35 36 43
3 43 42 35
3 36 37 44
3 44 43 36
3 37 38 45
3 45 44 37
3 38 39 46
3 46 45 38
3 39 40 47
3 47 46 39
3 40 41 48
3 48 47 40
3 41 35 42
3 42 48 41
3 42 43 50
3 50 49 42
3 43 44 51
3 51 50 43
3 44 45 52
3 52 51 44
3 45 46 53
3 53 52 45
3 46 47 54
3 54 53 46
3 47 48 55
3 55 54 47
3 48 42 49
3 49 55 48
3 49 50 57
3 57 56 49
3 50 51 58
3 58 57 50
3 51 52 59
3 59 58 51
3 52 53 60
3 60 59 52
3 53 54 61
3 61 60 53
3 54 55 62
3 62 61 54
3 55 49 56
3 56 62 55
3 56 57 58
3 58 59 60
3 58 60 61
3 56 58 61
3 62 56 61
3 36 35 64
3 64 63 36
3 35 41 65
3 65 64 35
3 41 40 66
3 66 65 41
3 40 39 67
3 67 66 40
3 39 38 68
3 68 67 39
3 38 37 69
3 69 68 38
3 37 36 63
3 63 69 37
3 70 71 78
3 78 77 70
3 71 72 79
3 79 78 71
3 72 73 80
3 80 79 72
3 73 74 81
3 81 80 73
3 74 75 82
3 82 81 74
3 75 76 83
3 83 82 75
3 76 70 77
3 77 83 76
3 77 78 85
3 85 84 77
3 78 79 86
3 86 85 78
3 79 80 87
3 87 86 79
3 80 81 88
3 88 87 80
3 81 82 89
3 89 88 81
3 82 83 90
3 90 89 82
3 83 77 84
3 84 90 83
3 84 85 92
3 92 91 84
3 85 86 93
3 93 92 85
3 86 87 94
3 94 93 86
3 87 88 95
3 95 94 87
3 88 89 96
3 96 95 88
3 89 90 97
3 97 96 89
3 90 84 91
3 91 97 90
3 91 92 93
3 93 94 95
3 93 95 96
3 91 93 96
3 97 91 96
3 71 70 99
3 99 98 71
3 70 76 100
3 100 99 70
3 76 75 101
3 101 100 76
3 75 74 102
3 102 101 75
3 74 73 103
3 103 102 74
3 73 72 104
3 104 103 73
3 72 71 98
3 98 104 72
3 105 106 113
3 113 112 105
3 106 107 114
3 114 113 106
3 107 108 115
3 115 114 107
3 108 109 116
3 116 115 108
3 109 110 117
3 117 116 109
3 110 111 118
3 118 117 110
3 111 105 112
3 112 118 111
3 112 113 120
3 120 119 112
3 113 114 121
3 121 120 113
3 114 115 122
3 122 121 114
3 115 116 123
3 123 122 115
3 116 117 124
3 124 123 116
3 117 118 125
3 125 124 117
3 118 112 119
3 119 125 118
3 119 120 127
3 127 126 119
3 120 121 128
3 128 127 120
3 121 122 129
3 129 128 121
3 122 123 130
3 130 129 122
3 123 124 131
3 131 130 123
3 124 125 132
3 132 131 124
3 125 119 126
3 126 132 125
3 147 148 149
3 149 150 151
3 149 151 152
3 147 149 152
3 153 147 152
3 106 105 134
3 134 133 106
3 105 111 135
3 135 134 105
3 111 110 136
3 136 135 111
3 110 109 137
3 137 136 110
3 109 108 138
3 138 137 109
3 108 107 139
3 139 138 108
3 107 106 133
3 133 139 107
3 126 127 141
3 141 140 126
3 127 128 142
3 142 141 127
3 128 129 143
3 143 142 128
3 129 130 144
3 144 143 129
3 130 131 145
3 145 144 130
3 131 132 146
3 146 145 131
3 132 126 140
3 140 146 132
3 140 141 148
3 148 147 140
3 141 142 149
3 149 148 141
3 142 143 150
3 150 149 142
3 143 144 151
3 151 150 143
3 144 145 152
3 152 151 144
3 145 146 153
3 153 152 145
3 146 140 147
3 147 153 146
3 154 158 156
3 154 155 161
3 161 160 154
3 155 156 162
3 162 161 155
3 156 157 163
3 163 162 156
3 157 158 164
3 164 163 157
3 158 159 165
3 165 164 158
3 159 154 160
3 160 165 159
3 166 167 168
3 168 169 170
3 166 168 170
3 171 166 170
3 160 161 167
3 167 166 160
3 161 162 168
3 168 167 161
3 162 163 169
3 169 168 162
3 163 164 170
3 170 169 163
3 164 165 171
3 171 170 164
3 165 160 166
3 166 171 165
3 156 155 154
3 154 159 158
3 158 157 156
