ply
format ascii 1.0
comment Created in Blender version 4.0.2
element vertex 62
property float x
property float y
property float z
property float nx
property float ny
property float nz
property uchar red
property uchar green
property uchar blue
property uchar alpha
element face 61
property list uchar uint vertex_indices
end_header
3.692427 2.8311193 3.894738 0.4792987 0.51181656 0.7129633 2 67 1 255
5.6097417 2.9147887 -0.16106945 0.86282 0.4971497 0.0915633 2 67 0 255
4.5294967 2.9946468 -4.498913 0.5804505 0.5540685 -0.59672886 4 68 3 255
-0.07647145 2.9981441 -5.4200826 -0.12588966 0.51250213 -0.8494077 2 67 0 255
-3.9118376 2.947879 -3.4139516 -0.72431374 0.5358131 -0.43390563 2 67 0 255
-3.9389205 2.8575466 1.29251 -0.8037272 0.48000184 0.35159743 2 67 0 255
-0.7833115 2.8112879 4.211042 -0.28472394 0.47294876 0.83381766 2 67 0 255
1.3244934 9.647087 0.59361833 0.48816243 0.48542556 0.7252995 2 67 0 255
1.8424665 9.665941 -0.30657277 0.87021875 0.48717934 0.073318005 2 67 0 255
1.4614699 9.683297 -1.2727692 0.5849605 0.5169185 -0.6249932 2 67 0 255
0.46840155 9.686085 -1.5774055 -0.13310815 0.50188726 -0.85462934 2 67 0 255
-0.38893735 9.672204 -0.9910841 -0.75288564 0.5052624 -0.42175022 2 67 0 255
-0.46495366 9.652109 0.04468268 -0.8146332 0.477079 0.32980072 2 67 0 255
0.29759467 9.64093 0.74994165 -0.25782886 0.46891657 0.844773 2 67 0 255
4.877549 6.006495 0.915952 0.8313112 0.4943977 0.25395373 2 67 1 255
4.131675 5.89233 -2.7361665 0.7644383 0.439894 -0.4713041 2 67 0 255
1.2542241 5.937385 -5.087157 0.12821749 0.5001001 -0.85642284 2 67 0 255
-2.2639844 6.1806183 -3.412589 -0.58945966 0.50046176 -0.6340941 2 67 0 255
-3.8127584 6.3912253 -0.17218035 -0.8174743 0.5733928 0.05437304 2 67 0 255
-1.4873142 6.4063635 2.9741883 -0.4119942 0.5408414 0.73331535 2 67 0 255
2.0620081 6.2463756 3.3495755 0.29171556 0.5097857 0.8093334 2 67 0 255
1.8874366 11.727558 -0.433768 0.8447302 0.46775603 0.26006743 2 67 0 255
1.7832816 11.697285 -1.2902658 0.7590041 0.4290381 -0.48973358 2 67 0 255
1.0491152 11.714815 -1.7441881 0.11336938 0.4621007 -0.87955123 2 67 0 255
0.23777992 11.766949 -1.4537222 -0.5987879 0.4902411 -0.6333377 2 67 0 255
-0.039772093 11.814428 -0.6375952 -0.8342459 0.5451173 0.08295009 2 67 0 255
0.42546105 11.821501 0.08963311 -0.43390158 0.53816664 0.72256905 2 67 0 255
1.2831496 11.782839 0.18034488 0.31961638 0.5042015 0.8022632 2 67 0 255
4.3094444 9.866438 -1.436524 0.7989997 0.572374 -0.18435706 2 67 0 255
2.1035604 9.854207 -3.6854157 0.3503865 0.54715806 -0.7601627 2 67 0 255
-1.0132624 9.7152815 -4.031067 -0.39521772 0.55387396 -0.732821 2 67 0 255
-2.734089 9.509864 -1.2253797 -0.8726315 0.46139327 -0.1600956 2 67 0 255
-2.3415232 9.39987 1.7861814 -0.69148445 0.4731906 0.5458388 2 67 0 255
0.7500211 9.502403 2.950038 0.020312179 0.45288408 0.89133805 2 67 0 255
3.4347138 9.6935 1.5848217 0.6512668 0.49831593 0.5723049 2 67 0 255
1.2496177 14.431539 -0.52446914 0.8153526 0.5471583 -0.18925625 2 67 0 255
0.7823818 14.432539 -1.0844128 0.33651382 0.53669494 -0.7737681 2 67 0 255
0.054183483 14.395952 -1.0690498 -0.41766992 0.51564324 -0.7481068 2 67 0 255
-0.3866291 14.349329 -0.48994875 -0.87930775 0.45015278 -0.15550013 2 67 0 255
-0.20811486 14.327777 0.21681535 -0.6879352 0.4417893 0.5758189 2 67 0 255
0.455301 14.347527 0.5190348 -0.0036643227 0.448278 0.8938866 2 67 0 255
1.104053 14.393704 0.18913233 0.67106587 0.49630508 0.55077386 2 67 0 255
3.212847 12.343375 0.09712827 -0.9363458 -0.28885365 -0.19954996 2 67 0 255
2.576513 12.2371 -2.0078146 -0.78434134 -0.21392137 0.5822768 2 67 0 255
0.7627319 12.284831 -3.2348955 -0.050159547 -0.27459744 0.9602501 2 67 0 255
-1.2064984 12.520577 -2.063725 0.7060006 -0.32629126 0.62856746 2 67 0 255
-1.9366722 12.721969 -0.07810134 0.8906845 -0.43066388 -0.14563566 2 67 0 255
-0.40277314 12.731997 1.6455348 0.36522952 -0.4196056 -0.8309865 2 67 0 255
1.6966394 12.574677 1.6765633 -0.3926526 -0.3613458 -0.8457264 2 67 0 255
1.2274033 19.61615 -1.114126 -0.07813806 -0.9941179 0.074993946 4 68 3 255
1.8386623 0.010723114 -0.5074807 0.9982587 0.058933225 -0.0025363136 58 47 29 255
1.1914849 0.010723114 -1.6284246 0.49781573 0.065992884 -0.8647684 59 47 29 255
-0.10286963 0.010723114 -1.6284245 -0.4978156 0.06599288 -0.86476845 59 47 29 255
-0.75004685 0.010723114 -0.50748056 -0.99825877 0.05893322 -0.00253622 59 47 29 255
-0.10286939 0.010723114 0.6134634 -0.50043064 0.0518338 0.86422354 59 47 29 255
1.1914848 0.010723114 0.6134634 0.5004307 0.051833797 0.8642235 59 47 29 255
0.9979142 14.257034 -0.39040828 0.9982609 0.05889048 0.002680507 11 7 3 255
0.7711109 14.257034 -0.783243 0.5000734 0.06598221 -0.86346567 47 55 23 255
0.31750447 14.257034 -0.783243 -0.5000737 0.06598223 -0.86346555 59 47 29 255
0.09070125 14.257034 -0.39040822 -0.9982609 0.058890473 0.0026807 59 47 29 255
0.31750453 14.257034 0.002426505 -0.49817005 0.051823106 0.8655293 40 59 20 255
0.7711109 14.257034 0.002426505 0.49816996 0.051823106 0.86552936 59 47 29 255
3 3 11 10
3 1 9 8
3 6 7 13
3 5 11 4
3 3 9 2
3 6 12 5
3 1 7 0
3 3 4 11
3 1 2 9
3 6 0 7
3 5 12 11
3 3 10 9
3 6 13 12
3 1 8 7
3 20 26 19
3 20 21 27
3 15 21 14
3 19 25 18
3 17 25 24
3 17 23 16
3 15 23 22
3 20 27 26
3 20 14 21
3 15 22 21
3 19 26 25
3 17 18 25
3 17 24 23
3 15 16 23
3 33 39 32
3 34 40 33
3 34 35 41
3 31 39 38
3 31 37 30
3 29 37 36
3 29 35 28
3 33 40 39
3 34 41 40
3 34 28 35
3 31 32 39
3 31 38 37
3 29 30 37
3 29 36 35
3 48 49 42
3 48 47 49
3 47 46 49
3 46 45 49
3 45 44 49
3 44 43 49
3 42 49 43
3 58 51 52
3 56 55 50
3 54 59 53
3 61 54 55
3 53 58 52
3 57 50 51
3 58 57 51
3 56 61 55
3 54 60 59
3 61 60 54
3 53 59 58
3 57 56 50
